<svg width="1196" height="242" viewBox="0 0 1196 242" fill="none" xmlns="http://www.w3.org/2000/svg">
<path d="M0.428809 241.675L90.5888 45.6753H104.869L195.029 241.675H179.629L94.5088 54.6353H100.669L15.8288 241.675H0.428809ZM33.4688 186.515L38.2288 174.475H155.549L160.309 186.515H33.4688ZM213.811 241.675V45.6753H228.091V228.795H340.931V241.675H213.811ZM328.04 241.675L418.2 45.6753H432.48L522.64 241.675H507.24L422.12 54.6353H428.28L343.44 241.675H328.04ZM361.08 186.515L365.84 174.475H483.16L487.92 186.515H361.08ZM541.422 241.675V45.6753H618.982C639.702 45.6753 657.902 49.8753 673.582 58.2753C689.262 66.6753 701.395 78.2486 709.982 92.9953C718.755 107.742 723.142 124.635 723.142 143.675C723.142 162.715 718.755 179.609 709.982 194.355C701.395 209.102 689.262 220.675 673.582 229.075C657.902 237.475 639.702 241.675 618.982 241.675H541.422ZM555.702 228.795H617.862C636.342 228.795 652.395 225.155 666.022 217.875C679.648 210.595 690.195 200.609 697.662 187.915C705.128 175.035 708.862 160.289 708.862 143.675C708.862 127.062 705.128 112.409 697.662 99.7153C690.195 86.8353 679.648 76.7553 666.022 69.4753C652.395 62.1953 636.342 58.5553 617.862 58.5553H555.702V228.795ZM755.95 241.675V45.6753H833.51C854.23 45.6753 872.43 49.8753 888.11 58.2753C903.79 66.6753 915.923 78.2486 924.51 92.9953C933.283 107.742 937.67 124.635 937.67 143.675C937.67 162.715 933.283 179.609 924.51 194.355C915.923 209.102 903.79 220.675 888.11 229.075C872.43 237.475 854.23 241.675 833.51 241.675H755.95ZM770.23 228.795H832.39C850.87 228.795 866.923 225.155 880.55 217.875C894.176 210.595 904.723 200.609 912.19 187.915C919.656 175.035 923.39 160.289 923.39 143.675C923.39 127.062 919.656 112.409 912.19 99.7153C904.723 86.8353 894.176 76.7553 880.55 69.4753C866.923 62.1953 850.87 58.5553 832.39 58.5553H770.23V228.795ZM970.478 241.675V45.6753H984.758V241.675H970.478ZM977.758 21.8753C974.771 21.8753 972.158 20.8486 969.918 18.7953C967.865 16.5553 966.838 13.9419 966.838 10.9553C966.838 7.96861 967.865 5.44862 969.918 3.39529C972.158 1.15529 974.771 0.0352831 977.758 0.0352831C980.931 0.0352831 983.545 1.15529 985.598 3.39529C987.651 5.44862 988.678 7.96861 988.678 10.9553C988.678 13.9419 987.651 16.5553 985.598 18.7953C983.545 20.8486 980.931 21.8753 977.758 21.8753ZM1036.26 241.675V45.6753H1048.3L1188.02 224.035H1181.58V45.6753H1195.86V241.675H1184.1L1044.1 63.3153H1050.54V241.675H1036.26Z" fill="#4F4F4F"/>
</svg>
