<svg width="74" height="61" viewBox="0 0 74 61" fill="none" xmlns="http://www.w3.org/2000/svg">
<path fill-rule="evenodd" clip-rule="evenodd" d="M7.61482 25.3396C8.5179 24.5951 9.9821 24.5951 10.8852 25.3396L37 46.8667L63.1148 25.3396C64.0179 24.5951 65.4821 24.5951 66.3852 25.3396C67.2883 26.084 67.2883 27.291 66.3852 28.0354L38.6352 50.9104C37.7321 51.6549 36.2679 51.6549 35.3648 50.9104L7.61482 28.0354C6.71173 27.291 6.71173 26.084 7.61482 25.3396Z" fill="#FF4500"/>
<path fill-rule="evenodd" clip-rule="evenodd" d="M7.61482 10.0896C8.5179 9.34514 9.9821 9.34514 10.8852 10.0896L37 31.6167L63.1148 10.0896C64.0179 9.34514 65.4821 9.34514 66.3852 10.0896C67.2883 10.834 67.2883 12.041 66.3852 12.7854L38.6352 35.6604C37.7321 36.4049 36.2679 36.4049 35.3648 35.6604L7.61482 12.7854C6.71173 12.041 6.71173 10.834 7.61482 10.0896Z" fill="#FF4500"/>
</svg>
