<svg width="24" height="19" viewBox="0 0 24 19" fill="none" xmlns="http://www.w3.org/2000/svg">
<path d="M0 3.57544C0 1.92627 1.34361 0.589355 3.00103 0.589355H21.0072C22.6647 0.589355 24.0083 1.92627 24.0083 3.57544V15.5198C24.0083 17.1689 22.6647 18.5058 21.0072 18.5058H3.00103C1.34361 18.5058 0 17.1689 0 15.5198V3.57544ZM3.00103 2.0824C2.17232 2.0824 1.50052 2.75085 1.50052 3.57544V3.89928L12.0041 10.1701L22.5077 3.89928V3.57544C22.5077 2.75085 21.8359 2.0824 21.0072 2.0824H3.00103ZM22.5077 5.64045L15.4432 9.85806L22.5077 14.1838V5.64045ZM22.4571 15.9059L13.9936 10.7235L12.0041 11.9112L10.0147 10.7235L1.55118 15.9059C1.72221 16.5433 2.30652 17.0128 3.00103 17.0128H21.0072C21.7017 17.0128 22.2861 16.5433 22.4571 15.9059ZM1.50052 14.1838L8.56506 9.85806L1.50052 5.64045V14.1838Z" fill="#FF4500"/>
</svg>
