<svg width="1196" height="242" viewBox="0 0 1196 242" fill="none" xmlns="http://www.w3.org/2000/svg">
<path d="M0.285986 242L90.446 46H104.726L194.886 242H179.486L94.366 54.96H100.526L15.686 242H0.285986ZM33.326 186.84L38.086 174.8H155.406L160.166 186.84H33.326ZM213.668 242V46H227.948V229.12H340.788V242H213.668ZM327.897 242L418.057 46H432.337L522.497 242H507.097L421.977 54.96H428.137L343.297 242H327.897ZM360.937 186.84L365.697 174.8H483.017L487.777 186.84H360.937ZM541.279 242V46H618.839C639.559 46 657.759 50.2 673.439 58.6C689.119 67 701.252 78.5733 709.839 93.32C718.612 108.067 722.999 124.96 722.999 144C722.999 163.04 718.612 179.933 709.839 194.68C701.252 209.427 689.119 221 673.439 229.4C657.759 237.8 639.559 242 618.839 242H541.279ZM555.559 229.12H617.719C636.199 229.12 652.252 225.48 665.879 218.2C679.505 210.92 690.052 200.933 697.519 188.24C704.985 175.36 708.719 160.613 708.719 144C708.719 127.387 704.985 112.733 697.519 100.04C690.052 87.16 679.505 77.08 665.879 69.8C652.252 62.52 636.199 58.88 617.719 58.88H555.559V229.12ZM755.807 242V46H833.367C854.087 46 872.287 50.2 887.967 58.6C903.647 67 915.78 78.5733 924.367 93.32C933.14 108.067 937.527 124.96 937.527 144C937.527 163.04 933.14 179.933 924.367 194.68C915.78 209.427 903.647 221 887.967 229.4C872.287 237.8 854.087 242 833.367 242H755.807ZM770.087 229.12H832.247C850.727 229.12 866.78 225.48 880.407 218.2C894.034 210.92 904.58 200.933 912.047 188.24C919.514 175.36 923.247 160.613 923.247 144C923.247 127.387 919.514 112.733 912.047 100.04C904.58 87.16 894.034 77.08 880.407 69.8C866.78 62.52 850.727 58.88 832.247 58.88H770.087V229.12ZM970.335 242V46H984.615V242H970.335ZM977.615 22.2C974.628 22.2 972.015 21.1733 969.775 19.12C967.722 16.88 966.695 14.2667 966.695 11.28C966.695 8.29332 967.722 5.77333 969.775 3.72C972.015 1.47999 974.628 0.35999 977.615 0.35999C980.788 0.35999 983.402 1.47999 985.455 3.72C987.508 5.77333 988.535 8.29332 988.535 11.28C988.535 14.2667 987.508 16.88 985.455 19.12C983.402 21.1733 980.788 22.2 977.615 22.2ZM1036.11 242V46H1048.15L1187.87 224.36H1181.43V46H1195.71V242H1183.95L1043.95 63.64H1050.39V242H1036.11Z" fill="#4F4F4F"/>
</svg>
