<svg width="1440" height="232" viewBox="0 0 1440 232" fill="none" xmlns="http://www.w3.org/2000/svg">
<path d="M884.053 231.68V0.68016H973.153C997.793 0.68016 1019.24 5.74016 1037.5 15.8602C1055.76 25.7602 1069.95 39.4002 1080.07 56.7802C1090.41 73.9402 1095.58 93.7402 1095.58 116.18C1095.58 138.62 1090.41 158.53 1080.07 175.91C1069.95 193.07 1055.76 206.71 1037.5 216.83C1019.24 226.73 997.793 231.68 973.153 231.68H884.053ZM895.273 221.45H972.493C995.153 221.45 1014.84 216.94 1031.56 207.92C1048.5 198.9 1061.48 186.47 1070.5 170.63C1079.74 154.79 1084.36 136.64 1084.36 116.18C1084.36 95.7202 1079.74 77.5702 1070.5 61.7302C1061.48 45.8902 1048.5 33.4602 1031.56 24.4402C1014.84 15.4202 995.153 10.9102 972.493 10.9102H895.273V221.45ZM1136.89 231.68V0.68016H1148.11V231.68H1136.89ZM1212.8 231.68V0.68016H1222.04L1391.66 218.48H1386.05V0.68016H1397.27V231.68H1388.03L1218.41 13.8802H1224.02V231.68H1212.8Z" fill="#FF4500"/>
<path d="M2.31 231.68L109.23 0.68016H120.12L227.04 231.68H214.83L112.2 8.27016H117.15L14.52 231.68H2.31ZM39.27 164.03L43.56 154.46H184.8L189.09 164.03H39.27ZM258.815 231.68V0.68016H270.035V221.45H405.335V231.68H258.815ZM397.756 231.68L504.676 0.68016H515.566L622.486 231.68H610.276L507.646 8.27016H512.596L409.966 231.68H397.756ZM434.716 164.03L439.006 154.46H580.246L584.536 164.03H434.716ZM654.261 231.68V0.68016H743.361C768.001 0.68016 789.451 5.74016 807.711 15.8602C825.971 25.7602 840.161 39.4002 850.281 56.7802C860.621 73.9402 865.791 93.7402 865.791 116.18C865.791 138.62 860.621 158.53 850.281 175.91C840.161 193.07 825.971 206.71 807.711 216.83C789.451 226.73 768.001 231.68 743.361 231.68H654.261ZM665.481 221.45H742.701C765.361 221.45 785.051 216.94 801.771 207.92C818.711 198.9 831.691 186.47 840.711 170.63C849.951 154.79 854.571 136.64 854.571 116.18C854.571 95.7202 849.951 77.5702 840.711 61.7302C831.691 45.8902 818.711 33.4602 801.771 24.4402C785.051 15.4202 765.361 10.9102 742.701 10.9102H665.481V221.45Z" fill="#CCCCCC"/>
<path d="M890.023 157.86L890.023 226.466L923.86 226.466" stroke="#CCCCCC" stroke-width="10.4" stroke-miterlimit="2.9238"/>
<path d="M884.749 157.86L895.282 157.86L884.171 132.789L884.749 157.86Z" fill="#CCCCCC"/>
<path d="M928.419 231.706L923.86 221.389L923.86 231.706L928.419 231.706Z" fill="#CCCCCC"/>
</svg>
