<svg width="42" height="42" viewBox="0 0 42 42" fill="none" xmlns="http://www.w3.org/2000/svg">
<circle cx="21" cy="21" r="21" fill="#CCCCCC"/>
<path d="M21.0767 11.998C21.0853 11.9981 21.0945 11.9981 21.1043 11.9981L21.2105 11.9984C22.4432 12.003 28.6909 12.0483 30.3754 12.5011C31.408 12.7781 32.2212 13.5943 32.4972 14.6304C32.6491 15.1997 32.755 15.9563 32.8288 16.7344L32.8431 16.8903C32.8547 17.0203 32.8655 17.1506 32.8754 17.2805L32.8869 17.436C32.9855 18.8072 32.997 20.0903 32.9984 20.371L32.9985 20.4089C32.9985 20.412 32.9985 20.4171 32.9985 20.4171V20.4383C32.9985 20.4383 32.9985 20.4434 32.9985 20.4465L32.9984 20.4844C32.997 20.7757 32.9846 22.1466 32.8754 23.575L32.8631 23.731L32.85 23.8872C32.7757 24.7461 32.6643 25.5989 32.4972 26.225C32.2212 27.2611 31.408 28.0775 30.3754 28.3543C28.6347 28.8224 22.0216 28.8552 21.1043 28.8575L21.0337 28.8577C21.0279 28.8577 21.0228 28.8577 21.0184 28.8577L20.9896 28.8577C20.9896 28.8577 20.983 28.8577 20.9786 28.8577L20.8927 28.8575C20.4291 28.8564 18.5108 28.8474 16.5019 28.7784L16.2451 28.7693C16.2022 28.7677 16.1594 28.7661 16.1165 28.7645L15.8594 28.7543L15.6028 28.7434C13.9386 28.6704 12.3518 28.5506 11.6218 28.3543C10.5892 28.0775 9.77606 27.2611 9.50007 26.225C9.33287 25.5989 9.2214 24.7461 9.14709 23.8872L9.13399 23.731L9.12167 23.575C9.01636 22.1985 9.00107 20.8755 8.99885 20.5204L8.99858 20.4696C8.99856 20.465 8.99855 20.4608 8.99854 20.4569V20.3985C8.99855 20.3946 8.99856 20.3904 8.99858 20.3859L8.99885 20.335C9.00086 20.0134 9.01359 18.898 9.09421 17.6679L9.10464 17.5136C9.10644 17.4878 9.10827 17.4619 9.11013 17.436L9.12167 17.2805C9.13161 17.1506 9.14235 17.0203 9.15395 16.8903L9.16829 16.7344C9.24213 15.9563 9.34807 15.1997 9.50007 14.6304C9.77606 13.5943 10.5892 12.7781 11.6218 12.5011C12.3518 12.3049 13.9386 12.1852 15.6028 12.1122L15.8594 12.1013L16.1165 12.0911C16.1594 12.0895 16.2022 12.0879 16.2451 12.0863L16.5019 12.0772C18.3826 12.0126 20.1839 12.0007 20.7865 11.9984L20.8927 11.9981C20.9026 11.9981 20.9118 11.9981 20.9203 11.998H21.0767ZM18.5986 16.8148V24.0406L24.8337 20.4279L18.5986 16.8148Z" fill="#4F4F4F"/>
</svg>
