<svg width="42" height="42" viewBox="0 0 42 42" fill="none" xmlns="http://www.w3.org/2000/svg">
<circle cx="21" cy="21" r="21" fill="#CCCCCC"/>
<path d="M16.539 31.5C25.5954 31.5 30.551 23.9956 30.551 17.4988C30.551 17.2876 30.551 17.0765 30.5414 16.8654C31.5018 16.1745 32.3373 15.3012 33 14.3127C32.1164 14.7062 31.1657 14.9653 30.1669 15.0901C31.1849 14.4855 31.9628 13.5162 32.3373 12.3647C31.3866 12.9309 30.3301 13.3339 29.2065 13.5546C28.3037 12.595 27.0264 12 25.6146 12C22.8968 12 20.6879 14.2072 20.6879 16.923C20.6879 17.3068 20.7359 17.6811 20.8127 18.0458C16.7215 17.8442 13.0912 15.877 10.6615 12.9021C10.2389 13.6314 9.9988 14.4759 9.9988 15.378C9.9988 17.0861 10.8727 18.5928 12.1885 19.4756C11.3818 19.4468 10.623 19.2261 9.96038 18.8615C9.96038 18.8807 9.96038 18.8999 9.96038 18.9286C9.96038 21.3086 11.6603 23.3046 13.9076 23.7557C13.4946 23.8708 13.0624 23.9284 12.611 23.9284C12.2941 23.9284 11.9868 23.8996 11.6891 23.842C12.3133 25.7997 14.1381 27.22 16.2893 27.2584C14.599 28.5827 12.4766 29.3696 10.1717 29.3696C9.77791 29.3696 9.38415 29.3504 9 29.3024C11.1705 30.6843 13.7635 31.5 16.539 31.5Z" fill="#4F4F4F"/>
</svg>
