<svg width="42" height="42" viewBox="0 0 42 42" fill="none" xmlns="http://www.w3.org/2000/svg">
<circle cx="21" cy="21" r="21" fill="#CCCCCC"/>
<path d="M32.9999 21.0728C32.9999 14.4046 27.627 8.99902 20.9992 8.99902C14.3714 8.99902 8.99854 14.4046 8.99854 21.0728C8.99854 27.0992 13.387 32.0942 19.1241 33V24.5629H16.0771V21.0728H19.1241V18.4128C19.1241 15.3868 20.9158 13.7154 23.657 13.7154C24.9699 13.7154 26.3433 13.9512 26.3433 13.9512V16.9225H24.83C23.3393 16.9225 22.8743 17.8532 22.8743 18.808V21.0728H26.2027L25.6706 24.5629H22.8743V33C28.6115 32.0942 32.9999 27.0992 32.9999 21.0728Z" fill="#4F4F4F"/>
</svg>
