<svg width="42" height="42" viewBox="0 0 42 42" fill="none" xmlns="http://www.w3.org/2000/svg">
<circle cx="21" cy="21" r="21" fill="#CCCCCC"/>
<path d="M21.0011 9C17.7421 9 17.3331 9.01425 16.0531 9.0725C14.7756 9.131 13.9036 9.33325 13.1405 9.63001C12.3513 9.93651 11.6818 10.3465 11.0148 11.0138C10.3473 11.6808 9.93726 12.3503 9.62976 13.1393C9.33225 13.9026 9.12975 14.7748 9.07225 16.0518C9.015 17.3318 9 17.7411 9 21.0001C9 24.2592 9.0145 24.6669 9.0725 25.9469C9.13125 27.2244 9.3335 28.0964 9.63001 28.8595C9.93676 29.6487 10.3468 30.3182 11.014 30.9852C11.6808 31.6527 12.3503 32.0637 13.139 32.3702C13.9026 32.667 14.7748 32.8692 16.0521 32.9277C17.3321 32.986 17.7408 33.0002 20.9996 33.0002C24.2589 33.0002 24.6667 32.986 25.9467 32.9277C27.2242 32.8692 28.0972 32.667 28.8607 32.3702C29.6497 32.0637 30.3182 31.6527 30.985 30.9852C31.6525 30.3182 32.0625 29.6487 32.37 28.8597C32.665 28.0964 32.8675 27.2242 32.9275 25.9472C32.985 24.6672 33 24.2592 33 21.0001C33 17.7411 32.985 17.3321 32.9275 16.0521C32.8675 14.7746 32.665 13.9026 32.37 13.1395C32.0625 12.3503 31.6525 11.6808 30.985 11.0138C30.3175 10.3463 29.65 9.93626 28.86 9.63001C28.0949 9.33325 27.2224 9.131 25.9449 9.0725C24.6649 9.01425 24.2574 9 20.9974 9H21.0011ZM19.9246 11.1625C20.2441 11.162 20.6006 11.1625 21.0011 11.1625C24.2052 11.1625 24.5849 11.174 25.8502 11.2315C27.0202 11.285 27.6552 11.4805 28.0782 11.6448C28.6382 11.8623 29.0375 12.1223 29.4572 12.5423C29.8772 12.9623 30.1372 13.3623 30.3552 13.9223C30.5195 14.3448 30.7152 14.9798 30.7685 16.1498C30.826 17.4148 30.8385 17.7948 30.8385 20.9974C30.8385 24.1999 30.826 24.5799 30.7685 25.8449C30.715 27.0149 30.5195 27.6499 30.3552 28.0724C30.1377 28.6325 29.8772 29.0312 29.4572 29.451C29.0372 29.871 28.6385 30.131 28.0782 30.3485C27.6557 30.5135 27.0202 30.7085 25.8502 30.762C24.5852 30.8195 24.2052 30.832 21.0011 30.832C17.7968 30.832 17.4171 30.8195 16.1521 30.762C14.9821 30.708 14.3471 30.5125 13.9238 30.3482C13.3638 30.1307 12.9638 29.8707 12.5438 29.4507C12.1238 29.0307 11.8638 28.6317 11.6458 28.0714C11.4815 27.6489 11.2858 27.0139 11.2325 25.8439C11.175 24.5789 11.1635 24.1989 11.1635 20.9944C11.1635 17.7898 11.175 17.4118 11.2325 16.1468C11.286 14.9768 11.4815 14.3418 11.6458 13.9188C11.8633 13.3588 12.1238 12.9588 12.5438 12.5388C12.9638 12.1188 13.3638 11.8588 13.9238 11.6408C14.3468 11.4758 14.9821 11.2808 16.1521 11.227C17.2591 11.177 17.6881 11.162 19.9246 11.1595V11.1625ZM27.4067 13.155C26.6117 13.155 25.9667 13.7993 25.9667 14.5946C25.9667 15.3896 26.6117 16.0346 27.4067 16.0346C28.2017 16.0346 28.8467 15.3896 28.8467 14.5946C28.8467 13.7995 28.2017 13.1545 27.4067 13.1545V13.155ZM21.0011 14.8376C17.5978 14.8376 14.8386 17.5968 14.8386 21.0001C14.8386 24.4034 17.5978 27.1614 21.0011 27.1614C24.4044 27.1614 27.1627 24.4034 27.1627 21.0001C27.1627 17.5968 24.4042 14.8376 21.0009 14.8376H21.0011ZM21.0011 17.0001C23.2101 17.0001 25.0012 18.7909 25.0012 21.0001C25.0012 23.2091 23.2101 25.0002 21.0011 25.0002C18.7919 25.0002 17.0011 23.2091 17.0011 21.0001C17.0011 18.7909 18.7919 17.0001 21.0011 17.0001Z" fill="#4F4F4F"/>
</svg>
