<svg width="26" height="27" viewBox="0 0 26 27" fill="none" xmlns="http://www.w3.org/2000/svg">
<path d="M2.70898 6.61992C2.70898 5.49982 2.70898 4.93976 2.92697 4.51194C3.11872 4.13562 3.42468 3.82966 3.801 3.63791C4.22883 3.41992 4.78888 3.41992 5.90898 3.41992H20.0994C21.2195 3.41992 21.7796 3.41992 22.2074 3.63791C22.5837 3.82966 22.8897 4.13562 23.0814 4.51194C23.2994 4.93976 23.2994 5.49982 23.2994 6.61992V20.7078C23.2994 21.8279 23.2994 22.3879 23.0814 22.8157C22.8897 23.1921 22.5837 23.498 22.2074 23.6898C21.7796 23.9078 21.2195 23.9078 20.0994 23.9078H5.90899C4.78888 23.9078 4.22883 23.9078 3.801 23.6898C3.42468 23.498 3.11872 23.1921 2.92697 22.8157C2.70898 22.3879 2.70898 21.8279 2.70898 20.7078V6.61992Z" stroke="#FF4500" stroke-width="1.5" stroke-linecap="round"/>
<path d="M13.5459 16.9303C13.5459 19.2875 11.1673 20.9344 10.1773 21.5178C9.91291 21.6736 9.59296 21.6736 9.32852 21.5178C8.33854 20.9344 5.95996 19.2875 5.95996 16.9303C5.95996 14.6468 7.79779 13.1245 9.75293 13.1245C11.7759 13.1245 13.5459 14.6468 13.5459 16.9303Z" stroke="#FF4500"/>
<path d="M20.0481 23.9075L13.5459 7.73291" stroke="#FF4500" stroke-width="1.5"/>
<path d="M23.2994 5.57666L2.70898 9.88989" stroke="#FF4500"/>
<ellipse cx="9.75325" cy="16.8986" rx="1.08333" ry="1.07831" fill="#FF4500"/>
</svg>
