<svg width="23" height="24" viewBox="0 0 23 24" fill="none" xmlns="http://www.w3.org/2000/svg">
<path d="M5.25425 2.32321C4.89412 1.86249 4.20966 1.82009 3.79487 2.2328L2.3081 3.71217C1.61286 4.40394 1.35728 5.38399 1.66103 6.24365C2.88084 9.69591 4.8779 12.9374 7.65404 15.6997C10.4302 18.4621 13.6879 20.4492 17.1575 21.6629C18.0214 21.9651 19.0064 21.7108 19.7016 21.0191L21.1884 19.5397C21.6032 19.127 21.5606 18.4459 21.0976 18.0876L17.7813 15.5211C17.5447 15.338 17.2367 15.2733 16.946 15.3457L13.7981 16.1287C12.9431 16.3414 12.0386 16.0921 11.4155 15.472L7.8829 11.9571C7.25971 11.337 7.00918 10.437 7.22293 9.58625L8.0099 6.45407C8.08258 6.1648 8.01757 5.85834 7.83359 5.62298L5.25425 2.32321ZM2.71029 1.15363C3.77745 0.0917862 5.53843 0.200875 6.46498 1.38622L9.04432 4.68599C9.51766 5.29153 9.68492 6.07999 9.49793 6.82422L8.71097 9.9564C8.62788 10.2871 8.72526 10.6369 8.96748 10.8779L12.5 14.3928C12.7423 14.6339 13.0938 14.7308 13.4261 14.6481L16.574 13.865C17.322 13.679 18.1144 13.8454 18.7229 14.3164L22.0392 16.8829C23.2305 17.8048 23.3402 19.557 22.273 20.6189L20.7862 22.0982C19.7225 23.1566 18.1315 23.6214 16.6487 23.1027C12.9672 21.8148 9.51145 19.7062 6.56947 16.7789C3.62748 13.8516 1.50838 10.4131 0.214028 6.74985C-0.307274 5.27449 0.159804 3.69141 1.22352 2.63299L2.71029 1.15363Z" fill="#FF4500"/>
</svg>
