<svg width="201" height="201" viewBox="0 0 201 201" fill="none" xmlns="http://www.w3.org/2000/svg">
<path d="M28.8124 28.8235C28.7769 28.6013 28.7621 28.3764 28.7684 28.1515C28.7684 27.6715 28.7444 27.0515 28.7284 26.3115C28.7044 24.7595 28.6924 22.6195 28.6924 20.2515V19.8235H28.8124C31.1124 19.8235 33.1804 19.8235 34.6724 19.8595L36.4364 19.8995C36.6521 19.8928 36.868 19.9089 37.0804 19.9475C36.8677 19.9831 36.652 19.9978 36.4364 19.9915L34.6724 20.0315C33.1804 20.0515 31.1124 20.0675 28.8124 20.0675L28.9364 19.9475V20.2515C28.9364 22.6195 28.9364 24.7595 28.9004 26.3115C28.9004 27.0515 28.8724 27.6715 28.8604 28.1515C28.8695 28.3766 28.8534 28.602 28.8124 28.8235Z" fill="#E0E0E0"/>
<path d="M45.5561 38.8356C45.4853 38.4613 45.4558 38.0803 45.4681 37.6996C45.4681 36.9956 45.4321 36.0276 45.4321 34.9556V34.6956H45.5561C46.5961 34.6956 47.5321 34.6956 48.2081 34.7316C48.5727 34.7218 48.9374 34.7499 49.2961 34.8156C48.9377 34.8837 48.5728 34.9119 48.2081 34.8996C47.5321 34.9236 46.6081 34.9356 45.5561 34.9396L45.6761 34.8156V34.9556C45.6761 36.0276 45.6761 36.9956 45.6401 37.6996C45.6523 38.0801 45.6242 38.4609 45.5561 38.8356Z" fill="#E0E0E0"/>
<path d="M49.4363 46.2275C49.062 46.2984 48.681 46.3279 48.3003 46.3155C47.5963 46.3395 46.6283 46.3515 45.5563 46.3515H45.3003V46.2275C45.3003 45.1875 45.3003 44.2515 45.3363 43.5795C45.3264 43.2136 45.3545 42.8477 45.4203 42.4875C45.4886 42.8473 45.5168 43.2136 45.5043 43.5795C45.5283 44.2515 45.5403 45.1795 45.5443 46.2275L45.4203 46.1075H45.5603C46.6323 46.1075 47.6003 46.1075 48.3043 46.1435C48.6835 46.1316 49.063 46.1598 49.4363 46.2275Z" fill="#E0E0E0"/>
<path d="M60.7683 42.3474C60.8395 42.723 60.869 43.1053 60.8563 43.4874C60.8763 44.1874 60.8923 45.1594 60.8923 46.2274V46.4994H60.7683C59.7283 46.4994 58.7923 46.4994 58.1163 46.4594C57.7517 46.4717 57.3868 46.4436 57.0283 46.3754C57.3868 46.3073 57.7517 46.2791 58.1163 46.2914C58.7923 46.2674 59.7163 46.2554 60.7683 46.2554L60.6483 46.3754V46.2354C60.6483 45.1674 60.6483 44.1954 60.6843 43.4954C60.6714 43.1108 60.6996 42.726 60.7683 42.3474Z" fill="#E0E0E0"/>
<path d="M56.9004 34.8156C57.275 34.7475 57.6558 34.7193 58.0364 34.7316C58.7404 34.7076 59.7084 34.6956 60.7804 34.6956H61.0404V34.8156C61.0404 35.8556 61.0404 36.7916 61.0044 37.4676C61.0169 37.8335 60.9887 38.1998 60.9204 38.5596C60.8521 38.1998 60.8239 37.8335 60.8364 37.4676C60.8124 36.7916 60.8004 35.8676 60.7964 34.8156L60.9204 34.9396H60.7804C59.7084 34.9396 58.7404 34.9396 58.0364 34.9036C57.6556 34.9159 57.2747 34.8864 56.9004 34.8156Z" fill="#E0E0E0"/>
<path d="M37.3842 61.0155C37.1621 61.0514 36.9372 61.0674 36.7122 61.0635L34.8762 61.1035C33.3242 61.1235 31.1802 61.1395 28.8162 61.1395H28.3882V61.0155C28.3882 58.7195 28.3882 56.6515 28.4242 55.1595C28.4242 54.4475 28.4522 53.8555 28.4602 53.3955C28.4561 53.1798 28.4721 52.9642 28.5082 52.7515C28.5442 52.9642 28.5603 53.1798 28.5562 53.3955C28.5562 53.8555 28.5562 54.4475 28.5922 55.1595C28.6162 56.6515 28.6282 58.7195 28.6282 61.0155L28.5002 60.8995H28.8082C31.1722 60.8995 33.3162 60.8995 34.8682 60.9355L36.7042 60.9715C36.9317 60.9657 37.1593 60.9804 37.3842 61.0155Z" fill="#E0E0E0"/>
<path d="M77.1039 52.1394C77.1395 52.3616 77.1542 52.5865 77.1479 52.8114C77.1479 53.2914 77.1719 53.9074 77.1879 54.6474C77.2119 56.1994 77.2239 58.3434 77.2239 60.7114V61.1394H77.1039C74.8039 61.1394 72.7359 61.1394 71.2439 61.0994L69.4799 61.0634C69.2642 61.0675 69.0486 61.0514 68.8359 61.0154C69.0486 60.9794 69.2642 60.9633 69.4799 60.9674L71.2439 60.9314C72.7359 60.9074 74.8039 60.8954 77.1039 60.8954L76.9799 61.0154V60.7114C76.9799 58.3434 76.9799 56.1994 77.0159 54.6474C77.0159 53.9074 77.0439 53.2914 77.0559 52.8114C77.0468 52.5863 77.0629 52.3609 77.1039 52.1394Z" fill="#E0E0E0"/>
<path d="M68.5322 19.9475C68.7537 19.9065 68.9791 19.8904 69.2042 19.8995L71.0402 19.8595C72.5922 19.8595 74.7362 19.8235 77.1002 19.8235H77.5282V19.9475C77.5282 22.2435 77.5282 24.3115 77.4922 25.8035C77.4922 26.5115 77.4642 27.1035 77.4562 27.5675C77.4603 27.7832 77.4443 27.9988 77.4082 28.2115C77.3722 27.9988 77.3561 27.7832 77.3602 27.5675C77.3602 27.1035 77.3402 26.5115 77.3242 25.8035C77.3002 24.3115 77.2882 22.2435 77.2842 19.9475L77.4082 20.0675H77.1002C74.7362 20.0675 72.5922 20.0675 71.0402 20.0315L69.2042 19.9915C68.9793 19.9977 68.7544 19.983 68.5322 19.9475Z" fill="#E0E0E0"/>
<path d="M74.24 23.2515C74.2408 23.4154 74.1929 23.5759 74.1024 23.7126C74.0119 23.8493 73.8828 23.956 73.7316 24.0193C73.5804 24.0826 73.4138 24.0996 73.2529 24.0681C73.092 24.0366 72.9441 23.958 72.8279 23.8424C72.7117 23.7268 72.6325 23.5792 72.6002 23.4185C72.5679 23.2578 72.5841 23.0911 72.6466 22.9396C72.7092 22.788 72.8153 22.6585 72.9515 22.5673C73.0878 22.4762 73.248 22.4275 73.412 22.4275C73.6309 22.4275 73.8409 22.5142 73.9961 22.6686C74.1512 22.823 74.2389 23.0326 74.24 23.2515Z" fill="#E0E0E0"/>
<path d="M34.4441 22.4275H30.9641C30.8558 22.4275 30.7681 22.5152 30.7681 22.6235V23.8835C30.7681 23.9917 30.8558 24.0795 30.9641 24.0795H34.4441C34.5523 24.0795 34.6401 23.9917 34.6401 23.8835V22.6235C34.6401 22.5152 34.5523 22.4275 34.4441 22.4275Z" fill="#E0E0E0"/>
<path d="M35.5643 22.8835H34.8843V23.6275H35.5643V22.8835Z" fill="#E0E0E0"/>
<path d="M156.68 179.407C143.54 174.651 137.172 160.979 134.144 147.963C133.636 145.791 132.788 143.563 133.304 141.419C133.82 139.275 135.864 137.323 138.036 137.711C139.84 138.031 141.036 139.711 142.344 141.003C144.089 142.734 146.289 143.935 148.688 144.467C150.252 144.811 152.064 144.791 153.216 143.667C154.816 142.143 154.328 139.519 153.74 137.383C152.642 133.399 151.543 129.415 150.444 125.431C149.856 123.291 149.264 121.107 149.38 118.895C149.496 116.683 150.464 114.403 152.348 113.295C154.232 112.187 157.068 112.675 158.06 114.655C158.46 115.479 158.54 116.431 158.86 117.303C159.18 118.175 159.836 119.051 160.748 119.071C161.66 119.091 162.348 118.271 162.832 117.471C164.464 114.715 165.232 111.527 165.872 108.379C166.512 105.231 167.128 102.031 168.496 99.1355C169.864 96.2395 172.14 93.6235 175.16 92.6275C178.18 91.6315 181.96 92.6275 183.54 95.4275C185.12 98.2275 184.192 101.775 182.932 104.731C181.058 109.124 178.559 113.222 175.512 116.899C174.964 117.559 174.372 118.275 174.312 119.135C174.228 120.687 175.964 121.743 177.512 121.835C179.252 121.935 180.936 121.303 182.66 121.035C184.384 120.767 186.388 121.035 187.46 122.443C188.928 124.395 187.712 127.183 186.316 129.167C183.518 133.148 180.053 136.616 176.076 139.419C174.656 140.419 173.136 141.371 172.164 142.819C171.192 144.267 170.94 146.399 172.112 147.699C173.284 148.999 175.388 148.959 176.956 148.207C178.524 147.455 179.756 146.167 181.172 145.151C183.816 143.247 187.668 142.431 190.24 144.467C191.928 145.803 192.66 148.103 192.572 150.263C192.484 152.423 191.672 154.483 190.748 156.427C187.516 163.227 182.676 169.307 176.488 173.511C170.3 177.715 164.144 180.051 156.692 179.395" fill="#EBEBEB"/>
<path d="M159.084 189.016C158.075 182.874 157.657 176.649 157.836 170.428C157.988 163.408 158.788 155.728 159.9 147.724C160.188 145.724 160.471 143.749 160.748 141.8C161.028 139.856 161.308 137.928 161.7 136.06C162.456 132.474 163.409 128.932 164.556 125.452C165.628 122.12 166.768 119 167.856 116.092C168.944 113.184 170.016 110.492 171.096 108.092C172.78 104.276 174.765 100.6 177.032 97.0996C177.832 95.8596 178.484 94.9196 178.936 94.2996L179.452 93.5876C179.505 93.5019 179.569 93.4227 179.64 93.3516C179.595 93.4421 179.543 93.529 179.484 93.6116L179 94.3476C178.572 94.9956 177.944 95.9476 177.164 97.1996C174.957 100.724 173.017 104.409 171.36 108.224C170.3 110.624 169.248 113.332 168.16 116.224C167.072 119.116 165.964 122.26 164.904 125.584C163.777 129.05 162.841 132.575 162.1 136.144C161.7 138 161.44 139.912 161.156 141.86C160.872 143.808 160.596 145.784 160.312 147.78C159.2 155.78 158.388 163.44 158.22 170.44C158.025 176.638 158.412 182.841 159.376 188.968" fill="#E0E0E0"/>
<path d="M161.808 136.011C161.627 135.743 161.474 135.456 161.352 135.155C161.08 134.595 160.716 133.771 160.28 132.755C159.404 130.703 158.28 127.831 157.08 124.659C155.88 121.487 154.712 118.635 153.808 116.603C153.36 115.587 152.988 114.767 152.724 114.203C152.568 113.919 152.443 113.619 152.352 113.307C152.555 113.561 152.726 113.838 152.864 114.131C153.172 114.675 153.584 115.479 154.064 116.483C155.04 118.483 156.24 121.335 157.456 124.511C158.672 127.687 159.724 130.479 160.548 132.647C160.924 133.623 161.244 134.443 161.5 135.103C161.636 135.394 161.74 135.698 161.808 136.011Z" fill="#E0E0E0"/>
<path d="M187.956 123.468C187.615 123.642 187.259 123.785 186.892 123.896C186.204 124.148 185.204 124.508 183.984 124.992C181.536 125.944 178.2 127.372 174.588 129.112C170.976 130.852 167.788 132.58 165.5 133.888C164.356 134.536 163.444 135.088 162.812 135.46C162.496 135.676 162.16 135.861 161.808 136.012C162.093 135.755 162.401 135.525 162.728 135.324C163.336 134.924 164.224 134.32 165.352 133.636C167.6 132.26 170.788 130.492 174.408 128.74C177.495 127.238 180.656 125.897 183.88 124.72C185.12 124.268 186.136 123.948 186.844 123.744C187.205 123.616 187.577 123.524 187.956 123.468Z" fill="#E0E0E0"/>
<path d="M158.04 169.832C158.04 169.832 157.932 169.74 157.76 169.544L157.024 168.676C156.384 167.916 155.488 166.796 154.404 165.4C152.228 162.6 149.344 158.644 146.22 154.232C143.096 149.82 140.252 145.832 138.136 143.004L135.62 139.648C135.348 139.284 135.124 138.98 134.944 138.732C134.857 138.63 134.784 138.517 134.728 138.396C134.728 138.396 134.832 138.484 135.008 138.68L135.744 139.548C136.384 140.308 137.276 141.428 138.364 142.828C140.54 145.628 143.424 149.58 146.548 153.992C149.672 158.404 152.516 162.392 154.632 165.22C155.664 166.6 156.516 167.732 157.144 168.576L157.824 169.492C157.913 169.593 157.985 169.708 158.04 169.832Z" fill="#E0E0E0"/>
<path d="M191.456 148.204C191.358 148.299 191.25 148.382 191.132 148.452L190.164 149.096L186.588 151.416C183.568 153.38 179.428 156.136 174.86 159.188C170.292 162.24 166.12 164.968 163.06 166.864C161.528 167.816 160.284 168.572 159.412 169.076L158.404 169.652C158.291 169.727 158.169 169.787 158.04 169.832C158.04 169.832 158.144 169.732 158.364 169.584L159.328 168.94L162.904 166.62C165.924 164.656 170.064 161.9 174.636 158.844C179.208 155.788 183.372 153.068 186.432 151.168C187.964 150.22 189.208 149.464 190.08 148.956L191.088 148.38C191.202 148.304 191.326 148.245 191.456 148.204Z" fill="#E0E0E0"/>
<path d="M60.5518 112.303L59.4438 148.619C59.4445 150.57 59.928 152.49 60.8515 154.209C61.7749 155.927 63.1094 157.39 64.7358 158.467C66.9768 159.951 69.6566 160.625 72.3328 160.38C75.009 160.135 77.5216 158.985 79.4558 157.119L91.3279 145.671L90.0478 118.899L74.1878 135.207L73.3878 112.007L60.5518 112.303Z" fill="#FFBE9D"/>
<path d="M107.956 98.5315L92.1919 105.735L75.5039 130.347L89.4239 148.571L100.08 143.895L107.956 98.5315Z" fill="#FF5F0A"/>
<path d="M73.9922 134.995C74.0522 134.995 74.0962 137.707 74.0962 141.055C74.0962 144.403 74.0522 147.119 73.9922 147.119C73.9322 147.119 73.8882 144.407 73.8882 141.055C73.8882 137.703 73.9362 134.995 73.9922 134.995Z" fill="#EB996E"/>
<path d="M97.9759 103.659L106.18 99.4395L110.892 94.0915L132.856 92.6475L138.916 97.2675L153.948 101.755L150.84 142.859L153.872 188.867L92.1919 188.939V144.019L97.9759 103.659Z" fill="#FF5F0A"/>
<path d="M92.0999 129.135C92.1559 129.135 92.2239 140.999 92.2439 155.631C92.2639 170.263 92.2439 182.131 92.1839 182.131C92.1239 182.131 92.0599 170.271 92.0359 155.631C92.0119 140.991 92.0479 129.135 92.0999 129.135Z" fill="#263238"/>
<path d="M123.536 135.003C123.432 135.01 123.328 135.01 123.224 135.003L122.332 134.971L119.048 134.819H118.976V134.747C119.028 132.155 119.1 128.659 119.18 124.807C119.284 120.831 119.376 117.231 119.444 114.599C119.488 113.311 119.524 112.263 119.552 111.507C119.568 111.158 119.58 110.878 119.588 110.667C119.591 110.57 119.6 110.472 119.616 110.375C119.626 110.473 119.626 110.57 119.616 110.667V111.511C119.616 112.263 119.592 113.315 119.576 114.603C119.524 117.235 119.452 120.835 119.372 124.811C119.272 128.663 119.18 132.159 119.112 134.747L119.04 134.671L122.32 134.891L123.212 134.963C123.321 134.963 123.43 134.976 123.536 135.003Z" fill="#263238"/>
<path d="M122.312 116.039C122.42 116.024 122.531 116.042 122.628 116.091C122.908 116.204 123.14 116.409 123.288 116.671C123.406 116.865 123.477 117.083 123.497 117.308C123.516 117.534 123.483 117.761 123.4 117.971C123.293 118.224 123.1 118.431 122.856 118.555C122.597 118.688 122.306 118.745 122.016 118.719C121.727 118.696 121.45 118.594 121.216 118.423C120.994 118.26 120.837 118.023 120.772 117.755C120.725 117.534 120.73 117.305 120.785 117.086C120.841 116.867 120.946 116.664 121.092 116.491C121.284 116.258 121.546 116.094 121.84 116.023C121.944 115.991 122.056 115.991 122.16 116.023C122.16 116.043 122.048 116.023 121.86 116.099C121.6 116.19 121.372 116.357 121.208 116.579C121.086 116.737 121 116.919 120.957 117.113C120.913 117.308 120.913 117.509 120.956 117.703C121.042 117.926 121.188 118.12 121.379 118.262C121.57 118.405 121.797 118.491 122.034 118.511C122.272 118.53 122.51 118.481 122.721 118.371C122.932 118.261 123.108 118.093 123.228 117.887C123.302 117.703 123.334 117.504 123.322 117.306C123.311 117.107 123.255 116.914 123.16 116.739C123.033 116.495 122.837 116.293 122.596 116.159C122.42 116.071 122.308 116.059 122.312 116.039Z" fill="#263238"/>
<path d="M122.264 123.975C122.372 123.96 122.482 123.978 122.58 124.027C122.859 124.141 123.092 124.345 123.24 124.607C123.358 124.801 123.43 125.018 123.45 125.244C123.47 125.469 123.438 125.696 123.356 125.907C123.246 126.161 123.053 126.368 122.808 126.495C122.548 126.625 122.258 126.682 121.968 126.659C121.679 126.635 121.402 126.531 121.168 126.359C120.948 126.195 120.792 125.961 120.724 125.695C120.676 125.474 120.681 125.245 120.737 125.025C120.793 124.806 120.9 124.603 121.048 124.431C121.236 124.195 121.498 124.03 121.792 123.963C121.896 123.932 122.008 123.932 122.112 123.963C122.112 123.963 122 123.963 121.812 124.039C121.552 124.132 121.327 124.301 121.164 124.523C121.041 124.679 120.954 124.861 120.911 125.055C120.867 125.249 120.867 125.45 120.912 125.643C120.996 125.866 121.142 126.061 121.332 126.204C121.522 126.348 121.749 126.434 121.986 126.454C122.224 126.474 122.462 126.425 122.673 126.315C122.884 126.205 123.06 126.037 123.18 125.831C123.255 125.646 123.288 125.447 123.276 125.248C123.264 125.048 123.208 124.854 123.112 124.679C122.986 124.434 122.79 124.232 122.548 124.099C122.376 124.011 122.26 123.995 122.264 123.975Z" fill="#263238"/>
<g opacity="0.3">
<path d="M101.72 136.96C107.288 144.56 111.648 153.02 117.848 160.092C124.048 167.164 132.768 172.892 142.164 172.436C145.164 172.288 150.44 171.28 152.564 169.172L151.764 161.12C136.364 157.08 122.12 149.502 110.164 138.988C108.076 137.148 105.664 135.084 102.904 135.432" fill="black"/>
</g>
<path d="M104.7 71.6915C108.122 71.6915 110.896 68.7222 110.896 65.0595C110.896 61.3967 108.122 58.4275 104.7 58.4275C101.278 58.4275 98.5039 61.3967 98.5039 65.0595C98.5039 68.7222 101.278 71.6915 104.7 71.6915Z" fill="#FF5F0A"/>
<path d="M105.192 58.4275C105.414 58.5541 105.642 58.6689 105.876 58.7715C106.491 59.0837 107.043 59.5068 107.504 60.0195C108.166 60.7959 108.628 61.723 108.848 62.7195C109.176 63.927 109.176 65.2 108.848 66.4075C108.523 67.6184 107.884 68.7221 106.996 69.6075C106.281 70.3356 105.383 70.8567 104.396 71.1155C103.732 71.2972 103.034 71.3095 102.364 71.1515C101.892 71.0315 101.656 70.8915 101.64 70.9155C101.624 70.9395 101.692 70.9635 101.804 71.0315C101.973 71.1275 102.151 71.2053 102.336 71.2635C103.021 71.4704 103.749 71.4897 104.444 71.3195C105.481 71.0768 106.431 70.5521 107.188 69.8035C108.12 68.896 108.791 67.755 109.132 66.4995C109.481 65.2473 109.481 63.9237 109.132 62.6715C108.892 61.6379 108.392 60.6825 107.68 59.8955C107.189 59.3831 106.6 58.975 105.948 58.6955C105.774 58.6169 105.595 58.5501 105.412 58.4955C105.264 58.4315 105.196 58.4155 105.192 58.4275Z" fill="#263238"/>
<path d="M110.076 68.4996C110.112 68.4996 110.168 68.3756 110.148 68.1636C110.113 67.8805 109.974 67.6207 109.757 67.4356C109.54 67.2505 109.261 67.1534 108.976 67.1636C108.76 67.1636 108.644 67.2516 108.656 67.2876C108.668 67.3236 109.16 67.3116 109.564 67.6596C109.968 68.0076 109.996 68.4996 110.076 68.4996Z" fill="#263238"/>
<path d="M109.82 66.4594C109.848 66.3834 109.66 66.2474 109.388 66.2394C109.116 66.2314 108.92 66.3554 108.944 66.4314C108.968 66.5074 109.16 66.5234 109.38 66.5314C109.6 66.5394 109.792 66.5354 109.82 66.4594Z" fill="#263238"/>
<path d="M109.816 60.9795C109.856 60.9075 109.488 60.7155 109.048 60.8875C108.608 61.0595 108.468 61.4475 108.544 61.4755C108.62 61.5035 108.82 61.2875 109.156 61.1635C109.492 61.0395 109.792 61.0595 109.816 60.9795Z" fill="#263238"/>
<path d="M120.9 109.667C117.966 109.429 115.239 108.058 113.298 105.844C111.357 103.63 110.353 100.748 110.5 97.8073C110.712 93.5113 110.936 89.6393 110.936 89.6393C110.936 89.6393 101.736 88.2073 101.616 79.0033C101.496 69.7993 103.096 48.6633 103.096 48.6633C108.329 46.4155 114.067 45.6048 119.717 46.315C125.368 47.0252 130.727 49.2305 135.24 52.7033L136.604 53.7553L133.12 99.2353C133.007 100.724 132.6 102.176 131.923 103.507C131.247 104.838 130.314 106.022 129.179 106.991C128.043 107.961 126.727 108.696 125.307 109.155C123.886 109.615 122.388 109.789 120.9 109.667Z" fill="#FFBE9D"/>
<path d="M110.9 89.5074C110.9 89.5074 116.716 89.9794 122.9 86.0994C122.9 86.0994 120.064 92.7234 110.9 91.8914V89.5074Z" fill="#EB996E"/>
<path d="M117.764 73.3434C117.536 73.3434 117.532 74.8674 116.216 75.9554C114.9 77.0434 113.268 76.8794 113.256 77.0914C113.236 77.1874 113.62 77.3914 114.312 77.4114C115.212 77.4223 116.087 77.1164 116.784 76.5474C117.452 76.0008 117.882 75.2165 117.984 74.3594C118.04 73.6994 117.872 73.3354 117.764 73.3434Z" fill="#263238"/>
<path d="M118.372 56.3354C118.508 56.7354 119.924 56.5354 121.572 56.7354C123.22 56.9354 124.576 57.3874 124.796 57.0434C124.892 56.8794 124.66 56.5154 124.12 56.1434C123.399 55.6855 122.582 55.3988 121.733 55.3052C120.884 55.2116 120.024 55.3136 119.22 55.6034C118.616 55.8474 118.312 56.1514 118.372 56.3354Z" fill="#263238"/>
<path d="M104.616 59.5034C104.868 59.8514 106.008 59.6274 107.34 59.7474C108.672 59.8674 109.78 60.2034 110.072 59.8954C110.2 59.7434 110.072 59.4074 109.592 59.0554C108.95 58.6227 108.206 58.3659 107.434 58.3104C106.662 58.255 105.889 58.4029 105.192 58.7394C104.692 59.0234 104.5 59.3354 104.616 59.5034Z" fill="#263238"/>
<path d="M135.464 63.2995C135.62 63.2315 141.788 61.4315 141.588 67.7235C141.388 74.0155 135.108 72.5235 135.104 72.3355C135.1 72.1475 135.464 63.2995 135.464 63.2995Z" fill="#FFBE9D"/>
<path d="M137.104 69.9996C137.132 69.9996 137.212 70.0796 137.392 70.1716C137.644 70.2859 137.929 70.3016 138.192 70.2156C138.864 69.9916 139.456 68.9556 139.524 67.8156C139.558 67.2764 139.471 66.7363 139.268 66.2356C139.216 66.0364 139.116 65.8531 138.976 65.7017C138.837 65.5504 138.662 65.4356 138.468 65.3676C138.343 65.3297 138.208 65.3369 138.087 65.3881C137.967 65.4393 137.868 65.5311 137.808 65.6476C137.72 65.8196 137.756 65.9476 137.72 65.9556C137.684 65.9636 137.592 65.8476 137.648 65.5876C137.685 65.428 137.777 65.2866 137.908 65.1876C138.085 65.061 138.305 65.0092 138.52 65.0436C138.786 65.1042 139.031 65.2337 139.231 65.4191C139.431 65.6044 139.579 65.8391 139.66 66.0996C139.908 66.6544 140.019 67.2608 139.984 67.8676C139.9 69.1356 139.216 70.2996 138.296 70.5356C138.126 70.5791 137.948 70.5837 137.775 70.5491C137.603 70.5145 137.44 70.4415 137.3 70.3356C137.108 70.1556 137.08 70.0116 137.104 69.9996Z" fill="#EB996E"/>
<path d="M99.5679 40.7114C100.239 39.3859 101.205 38.2316 102.392 37.3373C103.579 36.4429 104.954 35.8321 106.414 35.5518C107.873 35.2714 109.377 35.329 110.81 35.72C112.244 36.111 113.569 36.825 114.684 37.8074C115.395 36.4235 116.428 35.2307 117.696 34.3299C118.965 33.429 120.431 32.8465 121.972 32.6314C122.164 32.6074 122.372 32.5874 122.552 32.5754C126.636 32.3114 130.236 35.2714 131.068 39.2794L131.52 41.4634C131.52 41.4634 139.3 44.0994 141.1 45.5554C142.097 46.3551 142.854 47.4143 143.288 48.6163C143.721 49.8184 143.815 51.1169 143.559 52.3689C143.303 53.6209 142.706 54.7779 141.835 55.7128C140.963 56.6476 139.851 57.3239 138.62 57.6674C140.596 61.2274 138.744 66.3354 134.948 67.8034L134.032 67.4234C132.318 65.4745 131.222 63.0604 130.882 60.4874C130.542 57.9143 130.975 55.2984 132.124 52.9714C132.012 52.9714 131.908 52.9714 131.796 52.9714C130.21 53.8513 128.356 54.1142 126.588 53.7096C124.82 53.305 123.265 52.2614 122.22 50.7794C120.944 51.6688 119.442 52.1762 117.888 52.2421C116.334 52.308 114.794 51.9296 113.448 51.1514C113.056 50.8577 112.606 50.6516 112.128 50.5474C111.548 50.4874 111 50.7874 110.48 51.0434C109.096 51.7194 107.544 52.1634 106.024 51.9394C105.31 51.8509 104.63 51.5848 104.046 51.1656C103.462 50.7463 102.992 50.1872 102.68 49.5394H102.572C100.8 49.2194 99.3719 47.7034 98.8879 45.9674C98.4536 44.1918 98.696 42.3181 99.5679 40.7114Z" fill="#263238"/>
<path d="M140.12 62.9994C140.12 62.9994 143.992 44.3874 133.244 41.4634H131.52C131.52 41.4634 139.204 47.4394 136.596 62.4354" fill="#FF5F0A"/>
<path d="M137.096 75.1314C140.518 75.1314 143.292 72.1622 143.292 68.4994C143.292 64.8367 140.518 61.8674 137.096 61.8674C133.674 61.8674 130.9 64.8367 130.9 68.4994C130.9 72.1622 133.674 75.1314 137.096 75.1314Z" fill="#FF5F0A"/>
<path d="M136.608 61.8674C136.608 61.8674 136.536 61.8674 136.412 61.9114C136.227 61.9623 136.047 62.0278 135.872 62.1074C135.221 62.3889 134.633 62.7968 134.14 63.3074C133.43 64.0955 132.93 65.0505 132.688 66.0834C132.343 67.337 132.34 68.6604 132.682 69.9151C133.023 71.1699 133.695 72.3098 134.628 73.2154C135.385 73.9631 136.333 74.4877 137.368 74.7314C138.065 74.9024 138.794 74.883 139.48 74.6754C139.664 74.6173 139.841 74.5396 140.008 74.4434C140.124 74.3754 140.18 74.3394 140.172 74.3274C140.164 74.3154 139.92 74.4434 139.448 74.5634C138.779 74.7235 138.08 74.7112 137.416 74.5274C136.431 74.2678 135.533 73.7484 134.816 73.0234C133.931 72.1362 133.293 71.0331 132.964 69.8234C132.638 68.6157 132.638 67.3431 132.964 66.1354C133.184 65.139 133.646 64.2118 134.308 63.4354C134.769 62.9227 135.321 62.4996 135.936 62.1874C136.356 61.9834 136.616 61.8954 136.608 61.8674Z" fill="#263238"/>
<path d="M131.72 71.9395C131.804 71.9395 131.828 71.4475 132.236 71.0995C132.644 70.7515 133.132 70.8075 133.144 70.7275C133.156 70.6475 133.036 70.6195 132.824 70.6035C132.539 70.5957 132.262 70.6925 132.044 70.8755C131.825 71.0599 131.682 71.3195 131.644 71.6035C131.632 71.8155 131.7 71.9435 131.72 71.9395Z" fill="#263238"/>
<path d="M131.98 69.8993C132.008 69.9753 132.2 69.9793 132.42 69.9713C132.64 69.9633 132.82 69.9513 132.852 69.8713C132.884 69.7913 132.68 69.6713 132.412 69.6793C132.144 69.6873 131.952 69.8233 131.98 69.8993Z" fill="#263238"/>
<path d="M131.98 64.4194C132.008 64.4994 132.312 64.4674 132.644 64.6034C132.976 64.7394 133.18 64.9594 133.256 64.9154C133.332 64.8714 133.188 64.5154 132.748 64.3274C132.308 64.1394 131.944 64.3474 131.98 64.4194Z" fill="#263238"/>
<path d="M124.804 34.5474C124.804 34.5954 125.564 34.5794 126.772 34.6394C127.478 34.6749 128.177 34.7835 128.86 34.9634C129.687 35.1797 130.45 35.5912 131.084 36.1634C131.72 36.7272 132.128 37.5038 132.232 38.3474C132.288 39.0418 132.179 39.7396 131.912 40.3834C131.46 41.4954 130.956 42.0834 131.008 42.1194C131.147 42.0051 131.267 41.8702 131.364 41.7194C131.655 41.3308 131.902 40.9109 132.1 40.4674C132.41 39.7972 132.548 39.0602 132.5 38.3234C132.409 37.4112 131.981 36.5656 131.3 35.9514C130.632 35.3458 129.824 34.9156 128.948 34.6994C128.245 34.5289 127.524 34.439 126.8 34.4314C126.184 34.4314 125.688 34.4314 125.348 34.4754C125.164 34.4708 124.981 34.4951 124.804 34.5474Z" fill="#263238"/>
<path d="M132.5 34.2075C132.46 34.2395 132.744 34.6075 133.008 35.3355C133.363 36.2528 133.459 37.2502 133.284 38.2182C133.11 39.1863 132.673 40.0877 132.02 40.8235C131.524 41.3955 131.12 41.6595 131.148 41.6995C131.544 41.5424 131.895 41.2911 132.172 40.9675C132.903 40.2322 133.392 39.292 133.576 38.2717C133.76 37.2514 133.628 36.1995 133.2 35.2555C133.052 34.8559 132.812 34.4968 132.5 34.2075Z" fill="#263238"/>
<path d="M105.248 41.9954C105.249 42.0704 105.263 42.1447 105.288 42.2154C105.339 42.4208 105.407 42.6215 105.492 42.8154C105.881 43.7309 106.51 44.5243 107.312 45.1116C108.115 45.6988 109.062 46.0581 110.052 46.1514C111.548 46.2791 113.034 45.8153 114.192 44.8594L113.976 44.8314C114.251 45.2193 114.565 45.5784 114.912 45.9034C116.141 47.027 117.743 47.653 119.408 47.6594C120.532 47.6419 121.632 47.3344 122.602 46.7668C123.572 46.1991 124.378 45.3905 124.944 44.4194C125.067 44.2095 125.172 43.9902 125.26 43.7634C125.298 43.6864 125.323 43.6041 125.336 43.5194C125.308 43.5194 125.18 43.8314 124.848 44.3594C124.372 45.0969 123.757 45.7342 123.036 46.2354C121.975 46.9864 120.708 47.3903 119.408 47.3914C117.817 47.3714 116.289 46.7695 115.112 45.6994C114.778 45.3929 114.479 45.0509 114.22 44.6794L114.124 44.5474L114.004 44.6514C112.905 45.5632 111.496 46.0134 110.072 45.9074C108.926 45.8197 107.841 45.3604 106.98 44.5994C106.4 44.0944 105.926 43.4783 105.588 42.7874C105.352 42.2834 105.276 41.9914 105.248 41.9954Z" fill="#455A64"/>
<path d="M104.628 48.4634C104.604 48.4874 104.848 48.8274 105.404 49.2114C106.136 49.7077 106.995 49.9838 107.879 50.0072C108.763 50.0306 109.635 49.8003 110.392 49.3434C110.713 49.1794 110.989 48.9373 111.192 48.6394C111.16 48.6034 110.848 48.8714 110.276 49.1594C109.534 49.5438 108.707 49.7336 107.872 49.7112C107.036 49.6888 106.22 49.4549 105.5 49.0314C104.956 48.7114 104.66 48.4314 104.628 48.4634Z" fill="#455A64"/>
<path d="M104.708 63.6993C104.872 63.8713 105.868 63.1353 107.288 63.1393C108.708 63.1433 109.74 63.8513 109.896 63.6753C109.972 63.5993 109.804 63.2753 109.352 62.9593C108.74 62.5335 108.01 62.3085 107.264 62.3153C106.527 62.3124 105.808 62.545 105.212 62.9793C104.776 63.3193 104.628 63.6313 104.708 63.6993Z" fill="#263238"/>
<path d="M119.916 63.6235C119.913 63.9665 120.043 64.2972 120.28 64.5452C120.517 64.7932 120.841 64.939 121.184 64.9515C121.353 64.9646 121.522 64.9436 121.683 64.89C121.843 64.8363 121.991 64.751 122.118 64.6391C122.245 64.5272 122.348 64.391 122.421 64.2385C122.494 64.086 122.536 63.9205 122.544 63.7515C122.547 63.4075 122.416 63.0758 122.179 62.827C121.941 62.5782 121.616 62.432 121.272 62.4195C121.103 62.4065 120.934 62.4276 120.773 62.4815C120.613 62.5355 120.465 62.6212 120.338 62.7336C120.212 62.8459 120.109 62.9827 120.037 63.1356C119.964 63.2885 119.923 63.4544 119.916 63.6235Z" fill="#263238"/>
<path d="M118.636 62.0756C118.8 62.2476 119.8 61.5076 121.216 61.5116C122.632 61.5156 123.672 62.2276 123.824 62.0516C123.9 61.9756 123.736 61.6516 123.28 61.3356C122.668 60.9098 121.938 60.6847 121.192 60.6916C120.455 60.6892 119.736 60.9218 119.14 61.3556C118.704 61.6996 118.556 61.9996 118.636 62.0756Z" fill="#263238"/>
<path d="M113.496 72.5835C113.496 72.5035 112.62 72.3515 111.192 72.1835C110.832 72.1475 110.488 72.0755 110.428 71.8275C110.397 71.4541 110.481 71.0801 110.668 70.7555L111.74 67.9995C113.224 64.0795 114.3 60.8515 114.14 60.7995C113.98 60.7475 112.648 63.8715 111.16 67.7955C110.804 68.7635 110.46 69.6835 110.136 70.5675C110 70.9675 109.764 71.4435 109.948 71.9875C110.001 72.1147 110.082 72.2282 110.185 72.3196C110.289 72.411 110.411 72.478 110.544 72.5155C110.743 72.5711 110.949 72.5994 111.156 72.5995C112.596 72.6595 113.488 72.6635 113.496 72.5835Z" fill="#263238"/>
<path d="M110.672 94.2994L119.1 106.371L119.864 109.535L121.228 106.371L134.276 93.7314V105.855L124.532 111.715L119.1 112.303L110.892 109.223L108.524 104.299L110.672 94.2994Z" fill="#FF5F0A"/>
<path d="M118.76 106.379C118.76 106.399 118.54 106.379 118.144 106.463C117.585 106.596 117.061 106.847 116.608 107.199C115.428 108.075 114.208 109.843 113.332 112.067L113.252 112.263L113.152 112.079L111.66 109.427C110.136 106.687 108.76 104.227 107.748 102.383C107.264 101.499 106.872 100.783 106.584 100.239C106.456 99.9995 106.356 99.8075 106.276 99.6515C106.235 99.5851 106.203 99.5138 106.18 99.4395C106.233 99.4967 106.278 99.5614 106.312 99.6315C106.4 99.7795 106.516 99.9675 106.652 100.199C106.956 100.723 107.368 101.439 107.876 102.311L111.84 109.327C112.36 110.251 112.86 111.147 113.324 111.983H113.144C114.044 109.731 115.3 107.959 116.532 107.083C117.005 106.731 117.552 106.491 118.132 106.383C118.287 106.361 118.444 106.351 118.6 106.355C118.708 106.367 118.76 106.371 118.76 106.379Z" fill="#263238"/>
<path d="M138.056 97.2996C138.015 97.3838 137.967 97.4641 137.912 97.5396C137.8 97.7076 137.656 97.9396 137.472 98.2036C137.072 98.7756 136.508 99.5956 135.768 100.604C133.843 103.191 131.778 105.672 129.584 108.036C127.908 109.848 126.256 111.468 124.816 112.804L124.72 112.9L124.672 112.772C124.088 111.205 123.372 109.69 122.532 108.244C122.228 107.72 121.972 107.316 121.8 107.044C121.704 106.907 121.619 106.764 121.544 106.616C121.575 106.646 121.603 106.679 121.628 106.716L121.848 107.016C122.036 107.28 122.304 107.676 122.62 108.216C123.499 109.648 124.243 111.16 124.84 112.732L124.696 112.696C126.12 111.348 127.76 109.724 129.432 107.92C131.996 105.156 134.148 102.5 135.652 100.54C136.404 99.5556 136.996 98.7516 137.408 98.1916L137.88 97.5516C137.928 97.4607 137.987 97.376 138.056 97.2996Z" fill="#263238"/>
<g opacity="0.3">
<path d="M119.624 114.351C120.296 113.527 120.208 112.047 121.224 111.683C121.475 111.605 121.743 111.6 121.996 111.671C122.249 111.742 122.475 111.886 122.648 112.083C123.58 113.083 123.312 114.555 124.16 115.607C124.315 115.807 124.517 115.965 124.748 116.067C125.708 116.487 126.512 115.747 127.148 115.067C128.338 113.785 129.512 112.49 130.672 111.183C132.203 109.552 133.573 107.777 134.764 105.883C135.959 103.978 136.631 101.791 136.712 99.5435C133.064 104.199 129.16 108.743 124.776 112.707C124.268 110.875 123.156 109.039 122.14 107.447C121.996 107.223 121.5 106.463 121.248 106.367C121.12 106.315 121.376 106.311 121.248 106.367L119.884 109.531C119.884 109.531 119.272 106.959 119.12 106.367C118.575 106.335 118.028 106.422 117.52 106.623C117.122 106.809 116.745 107.037 116.396 107.303C114.879 108.4 113.835 110.031 113.472 111.867C114.316 111.671 114.932 110.975 115.584 110.407C116.236 109.839 117.128 109.347 117.932 109.667C118.736 109.987 119.072 111.003 119.132 111.895C119.192 112.787 119.088 113.731 119.532 114.507" fill="black"/>
</g>
<path d="M136.484 56.8555L136.6 60.8075L141.048 61.3715L141.192 57.2395L136.484 56.8555Z" fill="#455A64"/>
<path d="M139.66 37.6995C139.716 37.6995 139.764 42.9795 139.764 49.4915C139.764 56.0035 139.716 61.2835 139.66 61.2835C139.604 61.2835 139.556 56.0035 139.556 49.4915C139.556 42.9795 139.6 37.6995 139.66 37.6995Z" fill="#455A64"/>
<path d="M138.644 129.447C138.644 129.447 138.644 129.375 138.644 129.231C138.644 129.087 138.644 128.863 138.616 128.587C138.596 128.015 138.568 127.187 138.528 126.123C138.464 123.971 138.368 120.871 138.248 117.047C138.128 113.223 138.004 108.647 137.848 103.587C137.8 102.323 137.792 101.015 137.716 99.7074C137.714 99.3857 137.644 99.0681 137.511 98.7752C137.378 98.4823 137.185 98.2207 136.944 98.0074C136.69 97.8115 136.377 97.7072 136.056 97.7114C135.902 97.7153 135.751 97.7604 135.621 97.842C135.49 97.9236 135.383 98.0387 135.312 98.1754C135.194 98.472 135.193 98.8024 135.309 99.0996C135.426 99.3968 135.651 99.6385 135.94 99.7754C136.26 99.8758 136.601 99.8824 136.925 99.7945C137.248 99.7066 137.539 99.5278 137.764 99.2794C138.23 98.7568 138.497 98.0872 138.52 97.3874C138.585 96.6754 138.531 95.9576 138.36 95.2634C138.26 94.8631 138.06 94.4944 137.78 94.1914C137.501 93.8993 137.132 93.7104 136.732 93.6554C136.541 93.6243 136.345 93.645 136.165 93.7154C135.985 93.7857 135.827 93.9032 135.708 94.0554C135.585 94.2003 135.504 94.376 135.474 94.5635C135.444 94.751 135.465 94.9432 135.536 95.1194C135.627 95.2822 135.768 95.4118 135.937 95.4894C136.107 95.5671 136.297 95.5888 136.48 95.5514C136.67 95.5274 136.853 95.4633 137.016 95.3633C137.18 95.2633 137.32 95.1297 137.428 94.9714C137.868 94.3234 137.892 93.4754 137.868 92.7034C137.854 92.3181 137.77 91.9386 137.62 91.5834C137.485 91.2346 137.223 90.9491 136.888 90.7834C136.555 90.6342 136.178 90.6212 135.836 90.7474C135.671 90.8038 135.529 90.9124 135.432 91.0568C135.334 91.2012 135.287 91.3734 135.296 91.5474C135.311 91.7163 135.38 91.876 135.492 92.0034C135.674 92.1925 135.904 92.3294 136.157 92.3997C136.411 92.4701 136.678 92.4713 136.932 92.4034C137.253 92.292 137.525 92.0711 137.7 91.7794C137.886 91.483 138.013 91.1527 138.072 90.8074C138.185 90.1234 138.195 89.4262 138.1 88.7394C138.016 88.0834 137.752 87.3994 137.18 87.1114C136.909 86.9583 136.593 86.9072 136.288 86.9674C136.144 86.9949 136.011 87.0613 135.902 87.1593C135.794 87.2573 135.714 87.3833 135.672 87.5234C135.644 87.6664 135.647 87.8138 135.682 87.9554C135.716 88.097 135.781 88.2294 135.872 88.3434C136.04 88.5812 136.28 88.7592 136.556 88.8514C136.689 88.8907 136.829 88.9021 136.966 88.8849C137.104 88.8677 137.237 88.8222 137.356 88.7514C137.599 88.6142 137.798 88.4119 137.932 88.1674C138.197 87.6883 138.271 87.1269 138.14 86.5954C138.001 86.0953 137.746 85.6349 137.396 85.2514C137.068 84.8868 136.711 84.5497 136.328 84.2434L136.3 84.2234V84.1914C136.476 81.3914 136.616 79.2074 136.7 77.6914C136.752 76.9474 136.788 76.3714 136.816 75.9714C136.816 75.7794 136.844 75.6354 136.852 75.5274C136.86 75.4194 136.852 75.3794 136.852 75.3794C136.855 75.4287 136.855 75.4781 136.852 75.5274C136.852 75.6354 136.852 75.7834 136.852 75.9714C136.852 76.3714 136.804 76.9514 136.768 77.6954C136.684 79.2114 136.564 81.4154 136.416 84.1994L136.392 84.1474C136.783 84.4539 137.147 84.7938 137.48 85.1634C137.853 85.5592 138.127 86.0375 138.28 86.5594C138.424 87.1278 138.347 87.7299 138.064 88.2434C137.917 88.5147 137.696 88.7392 137.428 88.8914C137.29 88.9726 137.137 89.0245 136.978 89.0438C136.819 89.063 136.657 89.0493 136.504 89.0034C136.191 88.9041 135.919 88.7062 135.728 88.4394C135.624 88.3057 135.55 88.151 135.511 87.986C135.472 87.8209 135.47 87.6495 135.504 87.4834C135.553 87.3132 135.647 87.1595 135.777 87.0389C135.906 86.9184 136.067 86.8356 136.24 86.7994C136.585 86.7297 136.944 86.785 137.252 86.9554C137.566 87.1244 137.819 87.3873 137.976 87.7074C138.13 88.0245 138.23 88.3652 138.272 88.7154C138.368 89.4221 138.36 90.139 138.248 90.8434C138.182 91.2111 138.046 91.5627 137.848 91.8794C137.746 92.0411 137.621 92.1868 137.476 92.3114C137.329 92.4456 137.152 92.543 136.96 92.5954C136.671 92.675 136.366 92.675 136.078 92.5954C135.789 92.5159 135.527 92.3597 135.32 92.1434C135.181 91.9829 135.095 91.7829 135.076 91.5714C135.066 91.3589 135.125 91.1489 135.244 90.9724C135.363 90.796 135.535 90.6624 135.736 90.5914C136.125 90.4472 136.556 90.4601 136.936 90.6274C137.314 90.8122 137.61 91.1298 137.768 91.5194C137.929 91.8998 138.02 92.3064 138.036 92.7194C138.058 93.1267 138.042 93.5351 137.988 93.9394C137.936 94.3601 137.79 94.7635 137.56 95.1194C137.435 95.3003 137.274 95.4529 137.087 95.5673C136.899 95.6817 136.69 95.7553 136.472 95.7834C136.246 95.8262 136.013 95.7966 135.806 95.6989C135.598 95.6012 135.427 95.4404 135.316 95.2394C135.255 95.0764 135.226 94.9028 135.233 94.7288C135.239 94.5548 135.28 94.3838 135.353 94.2257C135.426 94.0675 135.529 93.9255 135.658 93.8077C135.786 93.6899 135.936 93.5987 136.1 93.5394C136.314 93.4591 136.545 93.4317 136.772 93.4594C137.219 93.5214 137.632 93.7328 137.944 94.0594C138.248 94.3859 138.465 94.7833 138.576 95.2154C138.755 95.9355 138.812 96.6805 138.744 97.4194C138.718 98.1589 138.435 98.8663 137.944 99.4194C137.691 99.6974 137.363 99.8962 137 99.9921C136.636 100.088 136.253 100.077 135.896 99.9594C135.552 99.8011 135.283 99.5153 135.145 99.1623C135.008 98.8092 135.013 98.4166 135.16 98.0674C135.248 97.8979 135.379 97.7551 135.541 97.6538C135.703 97.5525 135.889 97.4964 136.08 97.4914C136.447 97.4866 136.804 97.6049 137.096 97.8274C137.379 98.0451 137.597 98.3373 137.724 98.6714C137.843 98.9931 137.919 99.3295 137.948 99.6714C138.024 101.007 138.028 102.299 138.068 103.567C138.2 108.631 138.316 113.191 138.416 117.027C138.516 120.863 138.58 123.951 138.632 126.103C138.652 127.167 138.668 127.999 138.68 128.571C138.68 128.847 138.68 129.059 138.68 129.215C138.68 129.371 138.644 129.447 138.644 129.447Z" fill="#455A64"/>
<path d="M136.3 75.0793V77.4113H137.456L137.628 75.1353L136.3 75.0793Z" fill="#FF5F0A"/>
<path d="M78.5003 72.9194C78.4603 72.9194 78.5243 72.2914 78.4683 71.2914C78.4405 70.7088 78.3133 70.1352 78.0923 69.5954C77.8161 68.9425 77.3268 68.4025 76.7043 68.0634C76.0759 67.7294 75.3796 67.5433 74.6683 67.5194C74.083 67.503 73.4975 67.5445 72.9203 67.6434C71.9323 67.8154 71.3203 67.9674 71.3203 67.9314C71.4479 67.8687 71.582 67.8204 71.7203 67.7874C71.9923 67.7114 72.3843 67.5994 72.8843 67.4994C73.4694 67.3757 74.0664 67.318 74.6643 67.3274C75.4087 67.3434 76.1389 67.5339 76.7963 67.8834C77.4571 68.2452 77.9739 68.8226 78.2603 69.5194C78.4782 70.0825 78.5946 70.6797 78.6043 71.2834C78.6163 71.6839 78.6016 72.0848 78.5603 72.4834C78.5573 72.6306 78.5372 72.7769 78.5003 72.9194Z" fill="#263238"/>
<path d="M93.9442 82.2314L85.5242 82.5274L60.5522 90.0194L78.9242 98.3034L82.0122 108.067L91.6682 104.315L100.468 100.315L100.66 90.6554C100.595 89.4167 100.244 88.2098 99.6357 87.1288C99.0272 86.0479 98.1773 85.122 97.1522 84.4234L93.9442 82.2314Z" fill="#455A64"/>
<path d="M68.9683 67.2674L71.1203 67.0754C71.2345 67.0661 71.3495 67.0794 71.4586 67.1146C71.5678 67.1498 71.6689 67.2061 71.7562 67.2804C71.8435 67.3548 71.9153 67.4455 71.9675 67.5476C72.0196 67.6497 72.0512 67.7611 72.0603 67.8754C72.0696 67.9897 72.0562 68.1046 72.0211 68.2138C71.9859 68.3229 71.9295 68.424 71.8552 68.5113C71.7809 68.5986 71.6901 68.6704 71.588 68.7226C71.4859 68.7748 71.3745 68.8063 71.2603 68.8154L69.4003 68.9794L68.9683 67.2674Z" fill="#455A64"/>
<path d="M53.4761 71.2995C53.5761 70.6235 53.4761 72.6515 53.4761 73.2755C53.4786 73.5571 53.5375 73.8354 53.6493 74.0939C53.7612 74.3524 53.9237 74.5859 54.1273 74.7805C54.3309 74.9752 54.5714 75.127 54.8347 75.2272C55.0979 75.3273 55.3786 75.3736 55.6601 75.3635L58.4201 75.2595L60.5601 73.3195H56.4041V71.1475L53.4761 71.2995Z" fill="#455A64"/>
<path d="M71.604 88.8755C71.604 88.8755 73.736 87.0555 74.592 86.9595C75.448 86.8635 80.92 86.9075 80.92 86.9075L84.52 89.3675L93.232 105.368L96.64 109.724L87.172 120.9L80.92 115.7L73.552 113.3L79.18 113.376C80.316 111.576 82.332 108.832 82.332 108.832L83.72 100.832L83.784 97.6515L81.944 92.6515L79.124 89.6555L71.604 88.8755Z" fill="#FFBE9D"/>
<path d="M61.748 89.3554L64.3641 85.6954L74.4281 82.2314C74.4281 82.2314 75.9961 84.1274 73.6281 85.7954H72.8281C72.8281 85.7954 73.956 88.2954 70.772 87.5914C70.476 87.5274 67.536 88.0474 67.536 88.0474L65.968 89.3554H61.748Z" fill="#FFBE9D"/>
<path d="M51.5962 89.3635L48.5562 92.2755L48.8762 108.948L51.6002 111.956L79.1362 113.624L82.7202 108.968L82.0122 94.3355L81.0642 91.9395L78.4202 90.1355L51.5962 89.3635Z" fill="#455A64"/>
<path d="M76.9999 91.2995L77.1679 91.4475L77.6639 91.8955L79.5799 93.6995C79.5799 97.1475 79.6039 103.035 79.6239 110.531V110.563V110.587L78.1359 112.347L78.1079 112.379H78.0639L52.6879 111.251L52.0679 111.223H52.0239L51.9959 111.191L49.6479 108.499L49.6239 108.467V108.431C49.5519 102.999 49.4799 97.8435 49.4199 93.1435V93.1035L49.4519 93.0755C50.3319 92.1955 51.1839 91.3475 52.0079 90.5195L52.0359 90.4915H52.0759L70.1439 91.0675L75.2159 91.2475L76.5479 91.2995H76.8879H77.0039H76.5359L75.1959 91.2715L70.1159 91.1435L52.0759 90.6435L52.1399 90.6195C51.3119 91.4435 50.4639 92.2955 49.5839 93.1795L49.6119 93.1075C49.6799 97.8075 49.7559 102.963 49.8359 108.395L49.8079 108.331L52.1519 111.047L52.0799 111.011L52.6959 111.039L78.0719 112.199L77.9999 112.227L79.4959 110.475V110.527C79.4959 103.031 79.5319 97.1435 79.5399 93.6955V93.7235L77.6559 91.9315L77.1719 91.4635C77.0519 91.3755 76.9999 91.2995 76.9999 91.2995Z" fill="#263238"/>
<path d="M50.792 92.3794L51.592 109.211L78.916 110.755L78.488 93.1274L50.792 92.3794Z" fill="#263238"/>
<path d="M59.2603 94.1394L59.7403 105.111L77.7443 105.855V94.5114L59.2603 94.1394Z" fill="#455A64"/>
<path d="M77.8567 100.2C78.3981 96.8457 76.1179 93.6876 72.7637 93.1462C69.4095 92.6047 66.2514 94.8849 65.7099 98.2391C65.1684 101.593 67.4486 104.751 70.8029 105.293C74.1571 105.834 77.3152 103.554 77.8567 100.2Z" fill="#263238"/>
<path d="M77.7443 102.387C77.2411 103.088 76.5962 103.675 75.8516 104.11C75.107 104.545 74.2792 104.818 73.422 104.913C72.5648 105.007 71.6973 104.92 70.8758 104.658C70.0543 104.395 69.2972 103.963 68.6535 103.389C68.0099 102.815 67.4942 102.112 67.1397 101.326C66.7853 100.54 66.6001 99.6878 66.5963 98.8254C66.5924 97.963 66.7698 97.1095 67.1171 96.3201C67.4645 95.5307 67.9739 94.8232 68.6123 94.2434L77.1323 94.4994C77.3604 94.7149 77.5655 94.9535 77.7443 95.2114V102.387Z" fill="#FAFAFA"/>
<path d="M51.592 109.223C51.568 109.171 53.372 108.211 55.62 107.075C57.868 105.939 59.716 105.075 59.74 105.111C59.764 105.147 57.964 106.123 55.712 107.259C53.46 108.395 51.62 109.275 51.592 109.223Z" fill="#455A64"/>
<path d="M71.788 72.5916L92.188 72.6956V83.8156L89.3 83.2996L85.492 82.8436V80.0996L85.46 78.3036L79.16 78.5116L79.212 82.0156L81.716 85.8516L81.74 86.4196L75.504 86.0996L73.164 82.0316C73.164 82.0316 73.112 80.4316 73.164 80.2716L71.7 80.8476C70.927 81.1591 70.1014 81.3193 69.268 81.3196H61.748C60.8596 81.3174 60.0083 80.9636 59.3801 80.3354C58.7519 79.7073 58.3981 78.8559 58.396 77.9676V75.5676C58.396 73.9676 60.076 72.6356 61.656 72.6236L71.788 72.5916Z" fill="#455A64"/>
<path d="M68.5881 72.5916H62.3441C60.0466 72.5916 58.1841 74.4541 58.1841 76.7516V77.1596C58.1841 79.4571 60.0466 81.3196 62.3441 81.3196H68.5881C70.8856 81.3196 72.7481 79.4571 72.7481 77.1596V76.7516C72.7481 74.4541 70.8856 72.5916 68.5881 72.5916Z" fill="#263238"/>
<path d="M68.5842 75.8193H61.5162C60.9838 75.8193 60.5522 76.2509 60.5522 76.7833V76.8473C60.5522 77.3797 60.9838 77.8113 61.5162 77.8113H68.5842C69.1166 77.8113 69.5482 77.3797 69.5482 76.8473V76.7833C69.5482 76.2509 69.1166 75.8193 68.5842 75.8193Z" fill="#455A64"/>
<path d="M74.34 72.6035C74.4703 72.6312 74.5948 72.6813 74.708 72.7515C75.0336 72.9161 75.3297 73.1338 75.584 73.3955C75.9606 73.7917 76.2352 74.2735 76.384 74.7995C76.5665 75.4385 76.6316 76.1053 76.576 76.7675C76.4643 77.4314 76.1596 78.0477 75.7 78.5395C75.3384 78.9385 74.927 79.2894 74.476 79.5835C74.1752 79.7822 73.8611 79.9599 73.536 80.1155C73.4208 80.1807 73.2968 80.2292 73.168 80.2595C73.168 80.2235 73.66 79.9835 74.392 79.4595C74.8183 79.1552 75.2088 78.8037 75.556 78.4115C75.9766 77.9403 76.2542 77.3589 76.356 76.7355C76.4061 76.1012 76.3493 75.463 76.188 74.8475C76.0552 74.3463 75.8088 73.8823 75.468 73.4915C75.1274 73.1531 74.7489 72.8552 74.34 72.6035Z" fill="#263238"/>
<path d="M51.0161 67.8116L67.4161 66.3036C67.9766 66.2509 68.5352 66.4213 68.971 66.7777C69.4067 67.1341 69.6845 67.6478 69.7441 68.2076C69.7741 68.487 69.7487 68.7696 69.6694 69.0393C69.5902 69.3089 69.4585 69.5603 69.2821 69.7791C69.1057 69.9979 68.8879 70.1798 68.6411 70.3144C68.3944 70.449 68.1236 70.5336 67.8441 70.5636L51.7001 72.3196L51.0161 67.8116Z" fill="#455A64"/>
<path d="M109.152 63.0315H86.7441V77.8515H109.152V63.0315Z" fill="#455A64"/>
<path d="M109.148 77.8476C109.148 77.8476 109.148 77.7516 109.148 77.5756C109.148 77.3996 109.148 77.1276 109.148 76.7756C109.148 76.0796 109.148 75.0756 109.128 73.7916C109.128 71.2116 109.1 67.5196 109.084 63.0196L109.164 63.0996L86.7642 63.1236C86.7402 63.1236 86.9602 62.9236 86.8682 63.0196V64.9756C86.8682 65.6276 86.8682 66.2756 86.8682 66.9156V70.7036C86.8682 73.1836 86.8682 75.5676 86.8682 77.8316L86.7762 77.7356L102.896 77.7836L107.516 77.8116H108.748H109.18C109.147 77.8157 109.113 77.8157 109.08 77.8116H108.772H107.572L102.972 77.8356L86.7922 77.8836H86.6962V77.7876C86.6962 75.5236 86.6962 73.1396 86.6962 70.6596V63.0356C86.6002 63.1276 86.8202 62.9076 86.8002 62.9276L109.2 62.9516H109.284V63.0356C109.284 67.5596 109.252 71.2676 109.24 73.8596C109.24 75.1356 109.24 76.1356 109.22 76.8236C109.22 77.1556 109.22 77.4116 109.22 77.5956C109.22 77.7796 109.148 77.8476 109.148 77.8476Z" fill="#263238"/>
<path d="M60.9 71.3314C60.542 71.4415 60.1732 71.5126 59.8 71.5434C59.116 71.6434 58.164 71.7514 57.116 71.8554L54.432 72.1034C54.0613 72.1582 53.6865 72.1796 53.312 72.1674C53.6719 72.0596 54.0418 71.9886 54.416 71.9554C55.1 71.8594 56.048 71.7514 57.096 71.6474L59.784 71.3954C60.1538 71.3457 60.5269 71.3243 60.9 71.3314Z" fill="#263238"/>
<path d="M56.3921 73.2996C56.4121 73.2996 56.5201 73.3956 56.5921 73.6316C56.6829 73.9467 56.6509 74.2846 56.5024 74.5771C56.354 74.8696 56.1001 75.0949 55.7921 75.2076C55.5561 75.2876 55.3921 75.2676 55.3921 75.2436C55.3921 75.2196 55.5281 75.1796 55.7241 75.0716C55.9744 74.94 56.1775 74.7337 56.3051 74.4814C56.4328 74.229 56.4785 73.9431 56.4361 73.6636C56.4201 73.4596 56.3641 73.3236 56.3921 73.2996Z" fill="#263238"/>
<path d="M69.2002 69.8676C69.1762 69.8676 69.2962 69.7036 69.4122 69.4316C69.563 69.0788 69.6405 68.6992 69.6402 68.3156C69.6404 67.9354 69.5245 67.5642 69.3082 67.2516C69.1362 67.0076 69.0122 66.8516 69.0362 66.8516C69.0602 66.8516 69.2122 66.9396 69.4362 67.1756C69.7138 67.4931 69.8647 67.9018 69.8602 68.3236C69.8667 68.7434 69.7618 69.1574 69.5562 69.5236C69.3842 69.7756 69.2162 69.8876 69.2002 69.8676Z" fill="#263238"/>
<path d="M36.1401 67.7994L47.9521 66.7074C48.9168 66.6179 49.8799 66.8956 50.6488 67.4851C51.4178 68.0746 51.936 68.9325 52.1001 69.8874C52.189 70.4014 52.1725 70.9282 52.0515 71.4357C51.9306 71.9432 51.7077 72.4207 51.3964 72.8394C51.0851 73.2581 50.692 73.609 50.2408 73.871C49.7897 74.133 49.29 74.3005 48.7721 74.3634L36.9961 75.7874C36.4741 75.8529 35.9444 75.8148 35.4371 75.6752C34.9299 75.5357 34.4552 75.2975 34.0402 74.9742C33.6252 74.651 33.278 74.249 33.0185 73.7914C32.759 73.3338 32.5924 72.8295 32.5281 72.3074C32.4574 71.7723 32.4958 71.2285 32.6408 70.7087C32.7859 70.1889 33.0346 69.7038 33.3721 69.2826C33.7095 68.8614 34.1287 68.5129 34.6044 68.258C35.0801 68.0031 35.6025 67.8471 36.1401 67.7994Z" fill="#263238"/>
<path d="M38.1999 75.1273C38.4554 74.8297 38.6894 74.5143 38.8999 74.1833C39.3366 73.3562 39.515 72.417 39.4119 71.4873C39.2745 70.5602 38.8158 69.7108 38.1159 69.0873C37.8196 68.8375 37.4863 68.635 37.1279 68.4873C37.236 68.4845 37.3435 68.5035 37.4439 68.5433C37.7241 68.6375 37.9845 68.7826 38.2119 68.9713C38.5503 69.2488 38.8408 69.5798 39.0719 69.9513C39.3614 70.4056 39.5484 70.9175 39.6199 71.4513C39.7314 72.4247 39.5221 73.4078 39.0239 74.2513C38.8724 74.5013 38.6866 74.7289 38.4719 74.9273C38.3936 75.0093 38.3015 75.077 38.1999 75.1273Z" fill="#455A64"/>
<path d="M73.3882 82.0194C73.5319 81.9926 73.678 81.9805 73.8242 81.9834L75.0242 81.9554L79.2042 81.9194H79.2562L79.2882 81.9634L80.6602 84.0594L81.7922 85.8034L81.8922 85.9594H81.7002L77.2202 85.9234L75.9162 85.8914C75.758 85.897 75.5997 85.8849 75.4442 85.8554C75.6003 85.8315 75.7582 85.8208 75.9162 85.8234L77.2202 85.7914L81.7002 85.7554L81.6162 85.9114L80.5002 84.1754C80.0242 83.4354 79.5642 82.7274 79.1362 82.0714L79.2202 82.1154L75.0322 82.0994L73.8322 82.0714C73.6831 82.0653 73.5347 82.0479 73.3882 82.0194Z" fill="#263238"/>
<path d="M92.1602 82.6275C91.0875 82.7305 90.0093 82.7652 88.9322 82.7315C87.8537 82.7651 86.7742 82.7304 85.7002 82.6275C86.7742 82.5245 87.8537 82.4898 88.9322 82.5235C90.0093 82.4897 91.0875 82.5245 92.1602 82.6275Z" fill="#263238"/>
<path d="M92.4602 103.955C92.4423 103.866 92.4342 103.775 92.4362 103.683C92.4362 103.483 92.4162 103.223 92.4042 102.903C92.3762 102.223 92.3363 101.243 92.2563 100.035C92.1763 98.8273 92.0603 97.3873 91.8883 95.7953C91.8029 94.9953 91.7056 94.162 91.5963 93.2953C91.4723 92.4353 91.3923 91.5313 91.1763 90.6433C90.9643 89.7766 90.6217 88.9471 90.1602 88.1833C89.7164 87.485 89.1115 86.9034 88.3963 86.4873C87.174 85.7783 85.8605 85.24 84.4922 84.8873C83.3282 84.5673 82.3642 84.3793 81.6922 84.2593L80.9242 84.1313C80.8338 84.1182 80.7443 84.0995 80.6562 84.0753C80.7466 84.0647 80.8379 84.0647 80.9283 84.0753C81.1083 84.0753 81.3682 84.1233 81.7042 84.1673C82.6553 84.3029 83.5981 84.4912 84.5283 84.7313C85.9193 85.0761 87.2551 85.6147 88.4963 86.3313C89.2388 86.7615 89.8671 87.3637 90.3283 88.0873C90.8058 88.8647 91.1581 89.7124 91.3722 90.5993C91.4816 91.0474 91.5644 91.5015 91.6203 91.9593C91.6803 92.4073 91.7362 92.8473 91.7922 93.2793C91.9042 94.1473 91.9963 94.9833 92.0763 95.7833C92.2363 97.3833 92.3363 98.8233 92.3963 100.035C92.4563 101.247 92.4802 102.231 92.4802 102.907C92.4802 103.247 92.4802 103.511 92.4802 103.707C92.4806 103.79 92.4739 103.873 92.4602 103.955Z" fill="#263238"/>
<path d="M95.3002 102.671C95.2942 102.585 95.2942 102.498 95.3002 102.411C95.3002 102.215 95.3002 101.967 95.2722 101.659C95.2522 100.979 95.2202 100.039 95.1882 98.8913C95.1107 95.8531 94.8744 92.8209 94.4802 89.8073C94.3488 88.9608 94.0785 88.1418 93.6802 87.3833C93.3309 86.6669 92.8553 86.0192 92.2762 85.4713C91.7352 84.9893 91.1293 84.5853 90.4762 84.2713C89.907 83.9933 89.3172 83.7593 88.7122 83.5713C87.8329 83.2982 86.9362 83.0844 86.0282 82.9313L85.2882 82.8033C85.2013 82.7949 85.1155 82.7775 85.0322 82.7513C85.1186 82.7408 85.2059 82.7408 85.2922 82.7513C85.4642 82.7513 85.7202 82.7954 86.0442 82.8394C86.9607 82.9616 87.8661 83.1555 88.7522 83.4193C89.3681 83.5992 89.9687 83.828 90.5482 84.1033C91.2206 84.4134 91.8456 84.8174 92.4042 85.3033C93.0049 85.8625 93.4983 86.5268 93.8602 87.2633C94.2781 88.0399 94.5634 88.8808 94.7042 89.7513C95.0881 92.7858 95.2872 95.8408 95.3002 98.8993C95.3242 100.067 95.3242 101.015 95.3202 101.667C95.3202 101.979 95.3202 102.227 95.3202 102.419C95.324 102.504 95.3173 102.588 95.3002 102.671Z" fill="#263238"/>
<path d="M79.1239 89.6514C79.1239 89.6514 79.0759 89.6514 78.9959 89.6154C78.9824 89.6056 78.9722 89.5919 78.9665 89.5763C78.9608 89.5606 78.9599 89.5436 78.9639 89.5274C78.9771 89.4962 78.9994 89.4697 79.0279 89.4514C79.0872 89.4084 79.1535 89.3759 79.2239 89.3554C79.6637 89.2377 80.1243 89.22 80.5719 89.3034C80.8811 89.356 81.184 89.4404 81.4759 89.5554C81.6432 89.6158 81.8018 89.6979 81.9479 89.7994C82.0982 89.9073 82.2425 90.0235 82.3799 90.1474C82.9399 90.6474 83.5079 91.2394 84.0959 91.8674C84.3839 92.1794 84.6599 92.4874 84.9279 92.7874C85.5199 94.0794 86.0319 95.2154 86.3919 96.0274L86.7919 96.9914C86.8514 97.1047 86.8945 97.2259 86.9199 97.3514C86.8423 97.2506 86.7778 97.1404 86.7279 97.0234L86.2879 96.0994C85.8879 95.2994 85.3599 94.1754 84.7559 92.8994V92.9234L83.9239 92.0114C83.3399 91.3834 82.7799 90.7874 82.2359 90.2874C82.0999 90.1674 81.9639 90.0474 81.8359 89.9474C81.6999 89.8537 81.5536 89.7759 81.3999 89.7154C81.1237 89.5963 80.8353 89.5077 80.5399 89.4514C80.111 89.3636 79.6688 89.3636 79.2399 89.4514C79.0999 89.4834 78.9599 89.5554 79.0159 89.6034C79.0719 89.6514 79.1279 89.6434 79.1239 89.6514Z" fill="#EB996E"/>
<path d="M84.8523 108.9C84.8523 108.96 84.2523 108.856 83.5483 108.996C82.8443 109.136 82.3483 109.436 82.3003 109.396C82.6205 109.066 83.0442 108.857 83.5003 108.804C83.9484 108.677 84.4265 108.711 84.8523 108.9Z" fill="#EB996E"/>
<path d="M84.6799 99.4834C84.5731 99.9468 84.4395 100.404 84.2799 100.851C84.0119 101.691 83.6679 102.851 83.3719 104.167C83.0759 105.483 82.8839 106.679 82.7639 107.551C82.7196 108.027 82.6488 108.5 82.5519 108.967C82.5348 108.835 82.5348 108.7 82.5519 108.567C82.5519 108.319 82.5839 107.963 82.6239 107.523C82.7383 106.375 82.9227 105.234 83.1759 104.107C83.4312 102.983 83.7558 101.876 84.1479 100.791C84.3039 100.391 84.4359 100.043 84.5479 99.8154C84.5797 99.7003 84.624 99.589 84.6799 99.4834Z" fill="#EB996E"/>
<path d="M157.396 154.84C160.324 153.4 161.36 149.955 160.956 146.819C160.556 143.579 157.264 140.852 154.316 139.452C151.368 138.052 148.08 137.564 144.836 137.216C143 137.016 141.1 136.864 139.356 137.468C137.612 138.072 136.064 139.624 136.056 141.468" fill="#FF5F0A"/>
<g opacity="0.3">
<path d="M157.396 154.84C160.324 153.4 161.36 149.955 160.956 146.819C160.556 143.579 157.264 140.852 154.316 139.452C151.368 138.052 148.08 137.564 144.836 137.216C143 137.016 141.1 136.864 139.356 137.468C137.612 138.072 136.064 139.624 136.056 141.468" fill="black"/>
</g>
<path d="M141.7 120.191L136.632 141.667L93.612 105.855L86.46 120.307L125.292 161.507C127.652 163.917 130.57 165.706 133.788 166.716C137.005 167.727 140.422 167.927 143.736 167.299C152.352 165.667 157.736 158.135 158.984 149.459L161.504 131.883L141.7 120.191Z" fill="#FFBE9D"/>
<path d="M158.668 104.411L153.948 101.755C153.948 101.755 142.9 102.635 141.7 120.191L139.98 124.743L136.632 141.667C137.272 138.367 153.624 126.387 160.948 146.819L163.52 117.731C162.86 111.667 163.428 107.575 158.668 104.411Z" fill="#FF5F0A"/>
<path d="M140.18 118.263C140.209 118.336 140.228 118.413 140.236 118.491C140.26 118.643 140.308 118.867 140.332 119.159C140.428 119.981 140.452 120.81 140.404 121.635C140.316 123.731 139.7 126.583 138.648 129.595C138.1 131.095 137.496 132.487 137.028 133.783C136.595 134.921 136.264 136.095 136.04 137.291C135.896 138.098 135.85 138.918 135.904 139.735C135.96 140.311 136.024 140.631 136 140.635C135.975 140.561 135.955 140.485 135.94 140.407C135.889 140.188 135.851 139.967 135.824 139.743C135.736 138.919 135.761 138.086 135.896 137.267C136.102 136.056 136.42 134.867 136.848 133.715C137.308 132.411 137.908 131.015 138.448 129.527C139.496 126.531 140.128 123.703 140.252 121.627C140.316 120.809 140.316 119.986 140.252 119.167C140.208 118.587 140.164 118.267 140.18 118.263Z" fill="#263238"/>
<path d="M155 102.867C154.761 102.851 154.524 102.822 154.288 102.779C153.648 102.695 153.002 102.663 152.356 102.683C149.893 102.763 147.517 103.611 145.56 105.109C143.603 106.606 142.164 108.679 141.444 111.035C141.386 111.266 141.314 111.493 141.228 111.715C141.228 111.653 141.236 111.591 141.252 111.531C141.276 111.411 141.304 111.235 141.364 111.011C141.528 110.379 141.75 109.763 142.028 109.171C142.936 107.195 144.39 105.52 146.22 104.344C148.049 103.168 150.177 102.54 152.352 102.535C153.006 102.528 153.66 102.582 154.304 102.699C154.478 102.727 154.65 102.764 154.82 102.811C154.883 102.82 154.944 102.839 155 102.867Z" fill="#263238"/>
<path d="M160.932 148.739C160.91 148.625 160.9 148.508 160.9 148.391C160.9 148.271 160.9 148.131 160.872 147.971C160.869 147.78 160.851 147.589 160.82 147.399C160.682 146.187 160.375 144.999 159.908 143.871C159.222 142.197 158.221 140.669 156.96 139.371C156.214 138.616 155.386 137.945 154.492 137.371C153.523 136.766 152.48 136.29 151.388 135.955C150.29 135.632 149.153 135.465 148.008 135.459C146.943 135.442 145.879 135.552 144.84 135.787C143.898 135.998 142.98 136.303 142.1 136.699C141.339 137.056 140.613 137.483 139.932 137.975C138.942 138.688 138.077 139.56 137.372 140.555C137.252 140.704 137.145 140.864 137.052 141.031C136.968 141.171 136.896 141.291 136.832 141.391C136.777 141.494 136.713 141.592 136.64 141.683C136.685 141.576 136.737 141.472 136.796 141.371C136.856 141.267 136.92 141.143 137 140.999C137.087 140.825 137.187 140.658 137.3 140.499C137.989 139.476 138.85 138.581 139.844 137.851C140.526 137.342 141.256 136.901 142.024 136.535C142.913 136.126 143.842 135.811 144.796 135.595C145.844 135.348 146.919 135.231 147.996 135.247C149.158 135.25 150.314 135.418 151.428 135.747C152.539 136.088 153.6 136.573 154.584 137.191C155.491 137.78 156.33 138.468 157.084 139.243C158.352 140.565 159.352 142.121 160.028 143.823C160.487 144.967 160.776 146.172 160.884 147.399C160.909 147.59 160.921 147.783 160.92 147.975C160.92 148.139 160.92 148.279 160.92 148.399C160.932 148.512 160.936 148.626 160.932 148.739Z" fill="#263238"/>
<g opacity="0.3">
<path d="M134.276 139.7C135.052 134.1 136.548 129.908 139.796 125.26C138.66 130.696 137.396 135.544 136.056 141.18" fill="black"/>
</g>
<path d="M143.5 146.592C143.468 146.64 141.932 145.56 140.076 144.192C138.934 143.39 137.834 142.53 136.78 141.616C136.812 141.572 138.344 142.648 140.2 144.016C142.056 145.384 143.536 146.548 143.5 146.592Z" fill="#EB996E"/>
<path d="M185.504 188.968C185.504 189.028 146.664 189.072 98.764 189.072C50.864 189.072 12.02 189.028 12.02 188.968C12.02 188.908 50.848 188.864 98.764 188.864C146.68 188.864 185.504 188.9 185.504 188.968Z" fill="#263238"/>
<path d="M39.404 165.299C38.28 166.899 36.088 166.375 35.072 165.395C34.056 164.415 33.628 162.995 33.24 161.631C32.344 158.499 31.444 155.259 32.1 152.099C32.2561 151.145 32.6711 150.251 33.3 149.515C33.6208 149.153 34.0316 148.881 34.4909 148.728C34.9502 148.575 35.4418 148.546 35.916 148.643C37.02 148.935 37.708 150.015 38.204 151.043C39.6638 154.082 40.4289 157.408 40.444 160.779C40.444 162.347 40.268 163.979 39.38 165.283" fill="#FF5F0A"/>
<g opacity="0.2">
<path d="M39.404 165.299C38.28 166.899 36.088 166.375 35.072 165.395C34.056 164.415 33.628 162.995 33.24 161.631C32.344 158.499 31.444 155.259 32.1 152.099C32.2561 151.145 32.6711 150.251 33.3 149.515C33.6208 149.153 34.0316 148.881 34.4909 148.728C34.9502 148.575 35.4418 148.546 35.916 148.643C37.02 148.935 37.708 150.015 38.204 151.043C39.6638 154.082 40.4289 157.408 40.444 160.779C40.444 162.347 40.268 163.979 39.38 165.283" fill="black"/>
</g>
<path d="M35.1839 173.435C33.3399 172.483 31.1839 172.359 29.1239 172.699C28.0279 172.879 26.8799 173.207 26.1319 174.035C25.3839 174.863 25.2439 176.311 26.0999 177.023C26.6549 177.396 27.3224 177.565 27.9879 177.499C29.5879 177.499 31.3679 177.199 32.6479 178.163C33.3759 178.715 33.8479 179.627 34.7359 179.899C35.1713 180.001 35.628 179.959 36.0371 179.779C36.4463 179.598 36.7856 179.29 37.0039 178.899C37.421 178.098 37.514 177.167 37.2639 176.299C37.1619 175.694 36.9211 175.12 36.5602 174.623C36.1993 174.126 35.7283 173.72 35.1839 173.435Z" fill="#FF5F0A"/>
<path d="M42.4999 167.595C41.2759 166.143 41.0439 164.023 41.5879 162.203C42.1319 160.383 43.3639 158.839 44.7879 157.575C46.4559 156.093 48.3957 154.947 50.4999 154.203C51.3141 153.873 52.1904 153.725 53.0679 153.767C53.5069 153.792 53.9331 153.924 54.3096 154.152C54.686 154.379 55.0013 154.695 55.2279 155.071C55.8279 156.219 55.2519 157.611 54.6279 158.747C53.5275 160.747 52.273 162.658 50.8759 164.463C49.7479 165.911 48.4759 167.343 46.7439 167.999C45.0119 168.655 43.2479 168.575 42.3439 167.387" fill="#FF5F0A"/>
<path d="M39.4798 189.559C39.4226 189.321 39.3891 189.077 39.3798 188.831C39.3278 188.299 39.2638 187.631 39.1838 186.831C39.0866 185.848 38.9371 184.871 38.7358 183.903C38.4744 182.725 38.1186 181.569 37.6718 180.447C37.2352 179.328 36.6412 178.276 35.9078 177.323C35.3185 176.55 34.5642 175.917 33.6998 175.471C33.1083 175.178 32.4736 174.981 31.8198 174.887C31.5737 174.88 31.3294 174.844 31.0918 174.779C31.3377 174.753 31.5859 174.753 31.8318 174.779C32.5101 174.831 33.1738 175.003 33.7918 175.287C34.7089 175.723 35.5136 176.363 36.1438 177.159C36.9091 178.129 37.5253 179.208 37.9718 180.359C38.4263 181.497 38.7797 182.672 39.0278 183.871C39.2211 184.85 39.3547 185.84 39.4278 186.835C39.4878 187.683 39.5118 188.367 39.5238 188.835C39.5383 189.078 39.5235 189.321 39.4798 189.559Z" fill="#263238"/>
<path d="M39.344 188.027C39.3307 187.914 39.3307 187.8 39.344 187.687C39.344 187.431 39.344 187.111 39.344 186.715C39.344 185.875 39.344 184.655 39.3 183.151C39.224 180.139 38.968 175.987 38.464 171.419C37.96 166.851 37.292 162.743 36.684 159.795C36.54 159.055 36.396 158.391 36.26 157.795C36.124 157.199 36.016 156.711 35.912 156.303L35.684 155.359C35.6532 155.251 35.6331 155.14 35.624 155.027C35.6787 155.126 35.7191 155.233 35.744 155.343C35.816 155.587 35.908 155.895 36.024 156.275C36.14 156.655 36.276 157.175 36.424 157.759C36.572 158.343 36.736 158.999 36.892 159.739C37.7236 163.582 38.3498 167.466 38.768 171.375C39.268 175.951 39.492 180.115 39.512 183.135C39.532 184.643 39.512 185.863 39.46 186.707C39.436 187.107 39.416 187.423 39.4 187.675C39.397 187.795 39.3782 187.913 39.344 188.027Z" fill="#263238"/>
<path d="M39.3241 179.991C39.2989 179.653 39.2989 179.314 39.3241 178.975C39.3601 178.323 39.4521 177.375 39.6321 176.231C39.8552 174.882 40.1544 173.547 40.5281 172.231C40.9727 170.616 41.5314 169.035 42.2001 167.499C43.3608 164.672 45.0252 162.08 47.1121 159.847C47.4763 159.467 47.8622 159.107 48.2681 158.771C48.4481 158.623 48.6041 158.475 48.7641 158.371L49.2121 158.063C49.4813 157.859 49.7662 157.675 50.0641 157.515C50.1121 157.583 48.8641 158.315 47.2641 160.011C45.242 162.261 43.6187 164.839 42.4641 167.635C41.8005 169.159 41.2392 170.725 40.7841 172.323C40.4003 173.628 40.0826 174.951 39.8321 176.287C39.6241 177.427 39.5001 178.359 39.4321 179.007C39.4203 179.338 39.3842 179.666 39.3241 179.991Z" fill="#263238"/>
</svg>
