<svg width="221" height="226" viewBox="0 0 221 226" fill="none" xmlns="http://www.w3.org/2000/svg">
<g clip-path="url(#clip0_78_3287)">
<path d="M220.5 172.58H0.5V172.693H220.5V172.58Z" fill="#EBEBEB"/>
<path d="M191.368 177.368H176.795V177.48H191.368V177.368Z" fill="#EBEBEB"/>
<path d="M138.251 177.314H134.427V177.426H138.251V177.314Z" fill="#EBEBEB"/>
<path d="M198.456 179.821H190.012V179.933H198.456V179.821Z" fill="#EBEBEB"/>
<path d="M50.924 181.314H31.9204V181.427H50.924V181.314Z" fill="#EBEBEB"/>
<path d="M49.2915 176.4H46.5063V176.513H49.2915V176.4Z" fill="#EBEBEB"/>
<path d="M109.818 176.882H83.022V176.995H109.818V176.882Z" fill="#EBEBEB"/>
<path d="M104.78 152.51H19.8205C19.1549 152.509 18.517 152.238 18.0468 151.756C17.5766 151.274 17.3125 150.621 17.3125 149.94V27.797C17.3183 27.1202 17.5849 26.4731 18.0545 25.9962C18.5241 25.5193 19.1587 25.2512 19.8205 25.25H104.78C105.446 25.25 106.085 25.5207 106.557 26.0026C107.028 26.4845 107.293 27.138 107.293 27.8195V149.94C107.293 150.622 107.028 151.276 106.557 151.757C106.085 152.239 105.446 152.51 104.78 152.51ZM19.8205 25.34C19.1841 25.3412 18.5742 25.6006 18.1246 26.0612C17.675 26.5219 17.4225 27.1461 17.4225 27.797V149.94C17.4225 150.591 17.675 151.216 18.1246 151.676C18.5742 152.137 19.1841 152.396 19.8205 152.397H104.78C105.417 152.396 106.027 152.137 106.478 151.677C106.928 151.216 107.181 150.592 107.183 149.94V27.797C107.181 27.1457 106.928 26.5215 106.478 26.061C106.027 25.6004 105.417 25.3412 104.78 25.34H19.8205Z" fill="#EBEBEB"/>
<path d="M199.956 152.51H114.992C114.326 152.509 113.688 152.238 113.217 151.756C112.746 151.274 112.481 150.622 112.48 149.94V27.797C112.487 27.1198 112.755 26.4727 113.225 25.9959C113.695 25.5191 114.33 25.2511 114.992 25.25H199.956C200.617 25.2523 201.251 25.521 201.72 25.9978C202.188 26.4745 202.454 27.121 202.46 27.797V149.94C202.46 150.62 202.197 151.273 201.727 151.754C201.258 152.236 200.621 152.508 199.956 152.51ZM114.992 25.34C114.356 25.3412 113.745 25.6004 113.295 26.061C112.845 26.5215 112.591 27.1457 112.59 27.797V149.94C112.591 150.592 112.845 151.216 113.295 151.677C113.745 152.137 114.356 152.396 114.992 152.397H199.956C200.593 152.396 201.204 152.137 201.654 151.677C202.104 151.216 202.358 150.592 202.359 149.94V27.797C202.358 27.1457 202.104 26.5215 201.654 26.061C201.204 25.6004 200.593 25.3412 199.956 25.34H114.992Z" fill="#EBEBEB"/>
<path d="M154.742 31.2485H62.3022V33.449H154.742V31.2485Z" fill="#E0E0E0"/>
<path d="M87.2151 32.7065C87.0875 32.7065 86.9555 32.7065 86.8279 32.7065C85.2439 32.6075 83.8051 31.8875 82.4279 31.19C81.7503 30.8525 81.0551 30.506 80.3555 30.236C76.0919 28.589 71.4499 29.543 66.2755 30.857L66.1699 30.407C70.4511 29.3225 75.7839 27.9725 80.5227 29.7995C81.2443 30.0785 81.9483 30.434 82.6303 30.7715C84.0515 31.4825 85.3891 32.1485 86.8851 32.243C88.6451 32.3555 90.2379 31.667 91.9451 30.938C92.7966 30.5532 93.6692 30.2196 94.5587 29.939C98.4439 28.7915 102.501 29.7545 106.439 30.686C110.016 31.5365 113.716 32.4185 117.267 31.6895C118.254 31.4577 119.227 31.1662 120.18 30.8165C121.572 30.282 123.023 29.9238 124.501 29.75C125.892 29.7057 127.284 29.8204 128.65 30.092C130.274 30.353 131.95 30.623 133.556 30.308C134.949 29.9526 136.284 29.3885 137.516 28.634C138.026 28.355 138.55 28.067 139.078 27.8105C142.446 26.1851 146.213 25.6287 149.893 26.213L149.827 26.663C146.234 26.0913 142.556 26.6336 139.267 28.22C138.752 28.4765 138.233 28.76 137.732 29.0345C136.462 29.8129 135.086 30.3924 133.648 30.7535C131.968 31.082 130.252 30.8075 128.588 30.542C127.256 30.2728 125.898 30.1596 124.54 30.2045C123.099 30.376 121.683 30.7282 120.325 31.253C119.34 31.6134 118.335 31.9139 117.316 32.153C113.668 32.9 109.924 32.009 106.316 31.1495C102.452 30.2495 98.4527 29.2775 94.6775 30.3935C93.8053 30.6716 92.9489 30.9991 92.1123 31.3745C90.5239 32 88.9399 32.7065 87.2151 32.7065Z" fill="#E0E0E0"/>
<path d="M83.6159 20.75H26.9043L23.3447 54.599H80.0563L83.6159 20.75Z" fill="#E0E0E0"/>
<path d="M25.791 52.349L28.8798 23H81.165L78.0762 52.349H25.791Z" fill="#F5F5F5"/>
<path d="M137.384 20.75H194.095L197.655 54.599H140.943L137.384 20.75Z" fill="#E0E0E0"/>
<path d="M195.209 52.349L192.12 23H139.835L142.924 52.349H195.209Z" fill="#F5F5F5"/>
<path d="M62.0471 63.752H63.8599C64.6441 63.752 65.3962 64.0706 65.9507 64.6377C66.5052 65.2048 66.8167 65.9739 66.8167 66.776V172.58H59.0859V66.776C59.0859 66.3785 59.1626 65.9849 59.3114 65.6177C59.4603 65.2505 59.6785 64.9169 59.9535 64.6361C60.2286 64.3552 60.555 64.1326 60.9143 63.9808C61.2735 63.8291 61.6585 63.7514 62.0471 63.752Z" fill="#EBEBEB"/>
<path d="M182.286 66.5015H66.8125V156.852H182.286V66.5015Z" fill="#F5F5F5"/>
<path d="M142.523 107.915L118.077 82.9131H66.8125V86.0001H116.827L141.274 111.002H186.149V107.915H142.523Z" fill="#EBEBEB"/>
<path d="M142.523 149.423L118.077 124.421H66.8125V127.508H116.827L141.274 152.51H182.286V149.423H142.523Z" fill="#FAFAFA"/>
<path d="M139.329 116.514L114.882 91.5125H66.8125V94.5995H113.633L138.079 119.601H186.149V116.514H139.329Z" fill="#EBEBEB"/>
<path d="M36.1093 73.6251H37.7549C38.4679 73.6251 39.1517 73.9147 39.6559 74.4304C40.1601 74.946 40.4433 75.6453 40.4433 76.3746V172.58H33.4033V76.3746C33.4033 76.012 33.4734 75.653 33.6096 75.3182C33.7458 74.9834 33.9454 74.6795 34.1969 74.424C34.4485 74.1684 34.7469 73.9663 35.0751 73.8292C35.4033 73.6921 35.7548 73.6227 36.1093 73.6251Z" fill="#EBEBEB"/>
<path d="M59.0862 76.1226H40.4434V154.949H59.0862V76.1226Z" fill="#F5F5F5"/>
<path d="M59.0858 76.1226H56.085V154.949H59.0858V76.1226Z" fill="#F0F0F0"/>
<path d="M185.247 63.752H187.06C187.448 63.752 187.833 63.8302 188.192 63.9821C188.55 64.1341 188.876 64.3569 189.151 64.6377C189.425 64.9185 189.643 65.2518 189.792 65.6187C189.94 65.9856 190.017 66.3788 190.017 66.776V172.58H182.286V66.776C182.286 66.3785 182.363 65.9849 182.512 65.6177C182.66 65.2505 182.879 64.9169 183.154 64.6361C183.429 64.3552 183.755 64.1326 184.114 63.9808C184.474 63.8291 184.859 63.7514 185.247 63.752Z" fill="#EBEBEB"/>
<path d="M110.5 192.902C157.616 192.902 195.812 190.621 195.812 187.808C195.812 184.995 157.616 182.714 110.5 182.714C63.3838 182.714 25.1885 184.995 25.1885 187.808C25.1885 190.621 63.3838 192.902 110.5 192.902Z" fill="#F5F5F5"/>
<path d="M98.677 39.9426C100.213 40.1316 100.028 41.6436 98.8002 42.0396C97.5726 42.4356 92.957 42.1881 92.957 42.1881L98.677 39.9426Z" fill="#FF5F0A"/>
<path opacity="0.2" d="M98.677 39.9426C100.213 40.1316 100.028 41.6436 98.8002 42.0396C97.5726 42.4356 92.957 42.1881 92.957 42.1881L98.677 39.9426Z" fill="black"/>
<path d="M82.8504 43.862C81.4072 45.4595 81.262 49.91 82.2872 52.5875C83.3124 55.265 87.4968 56.309 91.0872 55.112C94.6776 53.915 96.7588 50.3825 96.7588 50.3825C96.7588 50.3825 97.1988 51.386 99.126 51.809C98.906 50.4095 97.6388 43.412 95.7556 41.2115C93.8724 39.011 84.5136 36.635 82.8504 43.862Z" fill="#263238"/>
<path d="M83.8274 53.5999C80.8442 54.9499 80.4966 58.0504 83.031 59.3284C85.5654 60.6064 88.311 57.8029 87.7874 55.2019C87.2638 52.6009 83.8274 53.5999 83.8274 53.5999Z" fill="#263238"/>
<path d="M101.401 68.45L101.955 70.025C102.149 70.565 102.355 71.096 102.562 71.627C102.971 72.6934 103.411 73.742 103.882 74.7769C104.353 75.8119 104.824 76.8154 105.369 77.7515C105.497 77.9945 105.642 78.2015 105.779 78.449C105.914 78.6801 106.061 78.9039 106.219 79.1195L106.434 79.448L106.491 79.5289V79.5559L106.43 79.484C106.316 79.3696 106.188 79.2726 106.047 79.196C105.872 79.1017 105.681 79.0436 105.484 79.025C105.402 79.0184 105.319 79.0184 105.237 79.025C105.173 79.0284 105.11 79.0389 105.048 79.0565C104.855 79.1015 104.815 79.142 104.806 79.151C104.916 79.0988 105.017 79.0289 105.105 78.944C105.275 78.7934 105.436 78.6342 105.589 78.4669C105.947 78.0772 106.285 77.6687 106.601 77.2429C107.283 76.3699 107.921 75.4159 108.573 74.4529C109.849 72.5179 111.111 70.5109 112.343 68.5174L114.477 69.575C113.646 71.865 112.688 74.1051 111.609 76.2845C111.067 77.3825 110.478 78.4625 109.813 79.5514C109.475 80.0914 109.118 80.627 108.696 81.176C108.485 81.4504 108.256 81.7294 107.987 82.0174C107.667 82.3626 107.304 82.665 106.909 82.9174C106.582 83.117 106.226 83.2614 105.853 83.345C105.721 83.3675 105.581 83.3855 105.449 83.399C105.293 83.41 105.138 83.41 104.982 83.399C104.64 83.3597 104.309 83.2543 104.005 83.0885C103.735 82.9427 103.49 82.7527 103.279 82.526L103.143 82.373L103.095 82.31L103.015 82.2154L102.707 81.824C102.492 81.563 102.294 81.302 102.109 81.0365C101.924 80.771 101.722 80.5054 101.555 80.2309C100.858 79.1676 100.223 78.0632 99.6539 76.9235C99.0819 75.803 98.5715 74.6735 98.1051 73.5125C97.8807 72.932 97.6651 72.3515 97.4495 71.762C97.2339 71.1725 97.0447 70.601 96.8511 69.962L101.401 68.45Z" fill="#CF7A64"/>
<path d="M99.0867 63.8241C103.927 66.1506 104.001 72.8601 104.001 72.8601L98.0351 75.8076C98.0351 75.8076 94.4315 70.1466 94.8759 67.6806C95.3379 65.1066 96.3543 62.5101 99.0867 63.8241Z" fill="#FF5F0A"/>
<path opacity="0.2" d="M97.5554 68.9001C98.607 69.5616 100.195 72.0501 100.974 74.3766L98.0306 75.8346C98.0306 75.8346 95.7734 72.2751 95.0562 69.5706C95.351 68.7606 96.2266 68.1261 97.5554 68.9001Z" fill="black"/>
<path d="M112.04 66.9335L113.945 64.949L116.22 68.36C116.22 68.36 114.324 70.79 111.851 70.088L111.596 68.288C111.563 68.0425 111.586 67.7925 111.663 67.5576C111.74 67.3227 111.869 67.1091 112.04 66.9335Z" fill="#CE7A63"/>
<path d="M115.974 62.9106L117.391 64.3011L116.229 68.3646L113.945 64.9491L115.974 62.9106Z" fill="#CE7A63"/>
<path d="M80.1885 183.286L84.5709 183.713L86.5729 173.287L82.1861 172.859L80.1885 183.286Z" fill="#CE7A63"/>
<path d="M53.9863 171.415L57.7043 173.854L63.1427 164.881L59.4291 162.442L53.9863 171.415Z" fill="#CE7A63"/>
<path d="M58.4613 172.657L55.2933 168.724C55.2395 168.661 55.1668 168.62 55.087 168.605C55.0072 168.59 54.9248 168.604 54.8533 168.643L51.4521 170.762C51.3684 170.819 51.2973 170.893 51.2435 170.979C51.1897 171.066 51.1544 171.163 51.1398 171.265C51.1253 171.366 51.1319 171.47 51.1592 171.568C51.1864 171.667 51.2338 171.759 51.2981 171.838C52.4245 173.188 53.0361 173.782 54.4309 175.51C55.3109 176.572 57.0357 179.051 58.2193 180.523C59.4029 181.994 60.8857 180.869 60.5249 180.149C58.8881 176.923 58.7341 174.983 58.7649 173.399C58.7523 173.123 58.6448 172.86 58.4613 172.657Z" fill="#263238"/>
<path d="M85.121 182.358H79.841C79.7467 182.361 79.6556 182.394 79.5812 182.453C79.5067 182.512 79.4528 182.594 79.4274 182.687L78.2834 186.944C78.255 187.044 78.2502 187.15 78.2693 187.253C78.2885 187.356 78.3311 187.453 78.3937 187.536C78.4562 187.619 78.537 187.685 78.6295 187.73C78.7219 187.775 78.8234 187.797 78.9258 187.794C80.7782 187.794 81.6582 187.794 83.9726 187.794H91.0434C92.9662 187.794 93.3666 185.81 92.5702 185.63C89.0062 184.82 86.9514 183.708 85.847 182.646C85.6492 182.46 85.3898 182.357 85.121 182.358Z" fill="#263238"/>
<path opacity="0.2" d="M86.5684 173.287L85.5388 178.664H81.0728L82.1816 172.859L86.5684 173.287Z" fill="black"/>
<path opacity="0.2" d="M59.4249 162.442L63.1429 164.881L60.3357 169.507L56.6177 167.068L59.4249 162.442Z" fill="black"/>
<path d="M100.49 66.5104C100.349 69.5074 99.3903 76.1989 95.7075 91.0984L77.7643 89.5144C78.6971 82.0714 79.0843 77.4634 76.8843 61.8259C79.4407 61.5176 82.0156 61.4002 84.5887 61.4749C87.3183 61.5159 90.0415 61.7565 92.7375 62.1949C94.7175 62.5594 96.8779 63.1219 98.3651 63.5449C98.9971 63.7168 99.5526 64.1047 99.9392 64.6442C100.326 65.1837 100.52 65.8423 100.49 66.5104Z" fill="#FF5F0A"/>
<path opacity="0.2" d="M79.8628 68.7471C80.6372 70.4211 80.3468 76.0326 78.49 77.9946C78.4328 75.7446 78.2568 73.1301 77.9136 69.8946C78.1319 69.5644 78.4209 69.2895 78.7587 69.0907C79.0964 68.8919 79.474 68.7744 79.8628 68.7471Z" fill="black"/>
<path d="M87.5231 70.3266C87.3412 70.3259 87.1659 70.2571 87.0303 70.1331C84.1131 67.4736 81.3103 63.8061 82.0407 62.0331C82.3663 61.2501 83.3607 60.9171 84.9359 61.0476C84.9547 61.043 84.9743 61.043 84.9931 61.0476L90.9023 65.3901C90.9155 65.3989 90.9264 65.4109 90.9341 65.425C90.9418 65.4391 90.946 65.455 90.9463 65.4711C90.9482 65.4875 90.9464 65.5042 90.9411 65.5198C90.9358 65.5354 90.927 65.5495 90.9155 65.5611C89.7977 66.8167 88.8921 68.2539 88.2359 69.8136C88.1858 69.9263 88.1109 70.0256 88.017 70.1036C87.9231 70.1817 87.8127 70.2365 87.6947 70.2636C87.6402 70.2916 87.5825 70.3128 87.5231 70.3266ZM84.2979 61.2501C83.1759 61.2501 82.4851 61.5426 82.2431 62.1276C81.5787 63.7206 84.2231 67.2756 87.1755 69.9666C87.2385 70.0242 87.3143 70.0654 87.3963 70.0866C87.4783 70.1077 87.564 70.1082 87.6463 70.0881C87.732 70.0676 87.8115 70.0262 87.8782 69.9674C87.9448 69.9087 87.9966 69.8343 88.0291 69.7506C88.679 68.2035 89.5706 66.7749 90.6691 65.5206L84.8831 61.2726C84.6807 61.2501 84.4827 61.2501 84.2979 61.2501Z" fill="white"/>
<path d="M94.286 70.457H94.22C94.078 70.4439 93.9423 70.3907 93.8281 70.3032C93.7138 70.2158 93.6256 70.0977 93.5732 69.962C92.978 68.4388 92.1574 67.0182 91.14 65.75C91.1272 65.7357 91.1184 65.7181 91.1145 65.6991C91.1107 65.6801 91.1119 65.6604 91.118 65.642L92.3104 61.844C92.3199 61.8192 92.3371 61.7983 92.3594 61.7845C92.3816 61.7707 92.4077 61.7647 92.4336 61.7675C94.132 62.0465 95.2716 62.807 95.826 64.0175C96.684 65.921 95.8788 68.459 94.946 70.052C94.8815 70.1737 94.7862 70.2755 94.6701 70.3468C94.554 70.418 94.4214 70.4561 94.286 70.457ZM91.3468 65.6645C92.3594 66.9361 93.1796 68.3559 93.78 69.8765C93.8149 69.9707 93.8743 70.0532 93.9519 70.1151C94.0295 70.177 94.1223 70.2159 94.22 70.2275C94.3189 70.2389 94.419 70.2208 94.508 70.1753C94.597 70.1297 94.6712 70.0588 94.7216 69.971C95.6456 68.423 96.4332 65.9705 95.6016 64.148C95.0868 63.0095 94.0352 62.2985 92.4644 62.0195L91.3468 65.6645Z" fill="white"/>
<path d="M86.2076 52.1602C86.4936 54.8872 86.5904 59.8462 84.606 61.4752C84.606 61.4752 86.7268 63.6892 91.0168 66.1327C94.1364 63.9277 92.7548 62.1952 92.7548 62.1952C89.8904 61.2232 90.1544 59.0092 90.8408 56.9707L86.2076 52.1602Z" fill="#CE7A63"/>
<path opacity="0.2" d="M88.0952 54.1265L90.8408 56.9705C90.6712 57.4436 90.5445 57.9316 90.4624 58.4285C89.358 58.163 87.7608 56.993 87.7432 55.7825C87.7632 55.2134 87.8824 54.6526 88.0952 54.1265Z" fill="black"/>
<path d="M83.8624 47.903C84.9756 52.259 85.3539 54.1265 87.9675 55.949C91.8968 58.694 96.882 56.345 97.0668 51.737C97.2296 47.5925 95.386 41.1665 90.8275 40.2575C89.8235 40.0532 88.7851 40.1147 87.8109 40.4362C86.8367 40.7578 85.959 41.3286 85.2612 42.0946C84.5633 42.8606 84.0685 43.7963 83.8237 44.8129C83.5789 45.8295 83.5922 46.8932 83.8624 47.903Z" fill="#CE7A63"/>
<path d="M84.6061 50.486C89.5253 48.56 92.3105 42.638 92.3105 42.638L95.4565 43.3625C95.4565 43.3625 94.3037 39.884 90.8409 39.7625C87.3781 39.641 85.1209 40.01 83.3169 44.087C81.5129 48.164 84.6061 50.486 84.6061 50.486Z" fill="#263238"/>
<path d="M82.0363 47.3C85.8316 44.6387 89.9494 42.4937 94.2858 40.919C94.4017 40.8799 94.4978 40.7955 94.553 40.6842C94.6082 40.5729 94.6182 40.4438 94.5807 40.325C94.2155 39.182 93.1639 37.175 92.4423 36.8285C91.6107 36.446 86.8323 36.0905 84.6279 37.04C82.4235 37.9895 80.2279 41.5985 79.9199 42.44C79.6647 43.097 80.7735 46.04 81.3587 47.156C81.3911 47.2141 81.4353 47.2645 81.4882 47.3038C81.5412 47.3431 81.6017 47.3705 81.6657 47.3841C81.7298 47.3977 81.796 47.3973 81.8598 47.3828C81.9237 47.3683 81.9838 47.3401 82.0363 47.3Z" fill="#FF5F0A"/>
<path d="M93.1246 39.9065L90.5639 40.613C90.4847 40.613 90.3879 40.5725 90.3307 40.4555L89.7059 39.2675C89.6179 39.092 89.6487 38.885 89.7675 38.8535L92.3327 38.147C92.4119 38.147 92.5043 38.1875 92.5659 38.3045L93.1862 39.4925C93.2786 39.65 93.2478 39.875 93.1246 39.9065Z" fill="white"/>
<path d="M85.7632 44.9106C89.2832 43.7811 93.2784 43.6821 94.7304 42.6606C96.1824 41.6391 95.6632 41.0676 98.6904 39.9201C97.3056 39.7856 95.9088 39.8721 94.55 40.1766C94.55 40.1766 87.1448 43.1106 85.7632 44.9106Z" fill="#FF5F0A"/>
<path d="M83.5105 51.5974C83.9091 52.3664 84.5894 52.9425 85.4025 53.1994C86.4805 53.5324 87.0437 52.5514 86.7621 51.4939C86.5113 50.5444 85.6401 49.2439 84.5621 49.3564C84.3224 49.3877 84.0942 49.4799 83.8983 49.6245C83.7023 49.7692 83.5449 49.9617 83.4404 50.1844C83.3358 50.4072 83.2875 50.6533 83.2997 50.9001C83.312 51.1469 83.3844 51.3866 83.5105 51.5974Z" fill="#CE7A63"/>
<path d="M95.7073 91.0986C95.7073 91.0986 101.779 118.549 97.7269 137.935C95.0121 150.904 87.3825 177.085 87.3825 177.085L80.5361 176.9C80.5361 176.9 84.9801 149.405 86.5113 138.592C89.1513 120.092 82.5513 89.9331 82.5513 89.9331L95.7073 91.0986Z" fill="#263238"/>
<path opacity="0.2" d="M88.7069 96.647L84.8789 102.821C86.0378 110.141 86.7724 117.525 87.0789 124.934C92.4601 115.079 89.9037 101.862 88.7069 96.647Z" fill="black"/>
<path d="M87.8622 177.512L79.6958 177.264L80.2414 174.294L88.6014 174.762L87.8622 177.512Z" fill="#FF5F0A"/>
<path d="M91.7868 90.806C91.7868 90.806 87.7916 119.547 80.5228 135.675C74.6576 148.698 62.6148 168.075 62.6148 168.075L57.084 165.375C57.084 165.375 64.3528 146.025 69.844 133.952C79.7044 112.248 71.3356 97.214 77.764 89.5325L91.7868 90.806Z" fill="#263238"/>
<path d="M62.9053 169.25L56.1733 165.497L57.2557 162.554L64.4321 166.667L62.9053 169.25Z" fill="#FF5F0A"/>
<path d="M77.5835 88.4121L76.6199 89.9826C76.5451 90.1041 76.6815 90.2481 76.8883 90.2661L95.7114 91.9311C95.8698 91.9311 96.0106 91.8771 96.0326 91.7736L96.3319 90.1446C96.3319 90.0321 96.2218 89.9241 96.0458 89.9061L77.8739 88.2996C77.8202 88.2937 77.766 88.3008 77.7155 88.3204C77.665 88.3399 77.6198 88.3714 77.5835 88.4121Z" fill="#FF5F0A"/>
<path d="M79.8496 90.7071L79.3656 90.6621C79.2688 90.6621 79.1984 90.5991 79.2116 90.5361L79.6164 88.4211C79.6164 88.3581 79.7176 88.3176 79.8144 88.3221L80.3028 88.3671C80.3996 88.3671 80.47 88.4346 80.4568 88.4931L80.0476 90.6081C80.0344 90.6711 79.9464 90.7161 79.8496 90.7071Z" fill="#263238"/>
<path d="M94.3432 91.9894L93.8592 91.9444C93.7624 91.9444 93.692 91.8769 93.7052 91.8184L94.1144 89.7034C94.1144 89.6404 94.2112 89.5954 94.308 89.6044L94.7964 89.6494C94.8932 89.6494 94.9636 89.7169 94.9504 89.7754L94.5412 91.8904C94.5324 91.9534 94.44 91.9984 94.3432 91.9894Z" fill="#263238"/>
<path d="M87.0966 91.346L86.6126 91.3055C86.5158 91.3055 86.4454 91.238 86.4586 91.175L86.8634 89.06C86.8634 89.0015 86.9646 88.9565 87.0614 88.9655L87.5498 89.006C87.6466 89.006 87.717 89.0735 87.7038 89.1365L87.2946 91.2515C87.2858 91.3145 87.1802 91.355 87.0966 91.346Z" fill="#263238"/>
<path d="M91.0697 47.7499C91.1401 48.1099 91.3821 48.3664 91.6109 48.3169C91.8397 48.2674 91.9717 47.9434 91.9013 47.5834C91.8309 47.2234 91.5933 46.9714 91.3645 47.0164C91.1357 47.0614 91.0037 47.3944 91.0697 47.7499Z" fill="#263238"/>
<path d="M95.0385 46.9535C95.1089 47.3135 95.3509 47.5655 95.5797 47.5205C95.8085 47.4755 95.9405 47.147 95.8701 46.787C95.7997 46.427 95.5577 46.175 95.3289 46.22C95.1001 46.265 94.9681 46.5935 95.0385 46.9535Z" fill="#263238"/>
<path d="M95.2319 46.2605L96.0283 45.842C96.0283 45.842 95.7247 46.6025 95.2319 46.2605Z" fill="#263238"/>
<path d="M93.6743 47.8491C94.1443 48.6053 94.7144 49.2913 95.3683 49.8876C95.2144 50.0545 95.0269 50.1852 94.8187 50.2706C94.6106 50.3561 94.3867 50.3943 94.1627 50.3826L93.6743 47.8491Z" fill="#BA4D3C"/>
<path d="M92.5394 52.0926C91.7996 52.1025 91.0838 51.8242 90.5374 51.3141C90.5212 51.2973 90.5122 51.2747 90.5122 51.2511C90.5122 51.2275 90.5212 51.2049 90.5374 51.1881C90.5452 51.1794 90.5547 51.1724 90.5653 51.1676C90.5759 51.1629 90.5874 51.1604 90.599 51.1604C90.6105 51.1604 90.622 51.1629 90.6326 51.1676C90.6432 51.1724 90.6527 51.1794 90.6606 51.1881C90.9966 51.4906 91.3975 51.7082 91.8308 51.8231C92.2642 51.938 92.7179 51.9471 93.1554 51.8496C93.1786 51.8455 93.2025 51.8507 93.2222 51.8641C93.2418 51.8775 93.2557 51.8981 93.261 51.9216C93.2648 51.9448 93.2596 51.9687 93.2464 51.9881C93.2333 52.0074 93.2132 52.0207 93.1906 52.0251C92.976 52.068 92.758 52.0906 92.5394 52.0926Z" fill="#263238"/>
<path d="M88.6895 46.3596C88.6569 46.359 88.625 46.3497 88.5971 46.3325C88.5586 46.3075 88.5312 46.2682 88.5205 46.2229C88.5098 46.1775 88.5168 46.1297 88.5399 46.0895C88.704 45.8008 88.9327 45.556 89.2073 45.3753C89.4819 45.1946 89.7945 45.0831 90.1195 45.05C90.1662 45.05 90.2109 45.069 90.2439 45.1028C90.2769 45.1365 90.2955 45.1823 90.2955 45.23C90.2955 45.2778 90.2769 45.3236 90.2439 45.3573C90.2109 45.3911 90.1662 45.4101 90.1195 45.4101C89.8515 45.4398 89.5943 45.5345 89.3693 45.6864C89.1443 45.8382 88.958 46.0428 88.8259 46.283C88.8099 46.3052 88.7895 46.3235 88.7659 46.3367C88.7424 46.3499 88.7163 46.3577 88.6895 46.3596Z" fill="#263238"/>
<path d="M96.1385 44.924C96.111 44.9301 96.0825 44.9301 96.0549 44.924C95.8227 44.7842 95.5618 44.7016 95.293 44.6828C95.0241 44.6641 94.7547 44.7097 94.5061 44.816C94.4863 44.8277 94.4644 44.8351 94.4418 44.8378C94.4191 44.8404 94.3961 44.8383 94.3743 44.8316C94.3524 44.8248 94.3322 44.8136 94.3147 44.7985C94.2973 44.7835 94.2831 44.7649 94.2729 44.744C94.2509 44.7022 94.246 44.6532 94.2592 44.6077C94.2724 44.5622 94.3026 44.5239 94.3433 44.501C94.6427 44.3636 94.9701 44.3016 95.2978 44.3204C95.6255 44.3392 95.944 44.4382 96.2265 44.609C96.2664 44.6326 96.2957 44.6713 96.3081 44.7167C96.3204 44.7622 96.3148 44.8108 96.2925 44.852C96.2748 44.8763 96.2515 44.8956 96.2245 44.9082C96.1976 44.9208 96.168 44.9262 96.1385 44.924Z" fill="#263238"/>
<path d="M78.7147 69.296C78.0415 71.3615 77.3683 73.517 76.7919 75.596C76.5103 76.6445 76.2463 77.6885 76.0659 78.674C75.9857 79.1203 75.9313 79.5711 75.9031 80.024C75.9031 80.1995 75.9031 80.348 75.9031 80.348C75.8692 80.2752 75.831 80.2046 75.7887 80.1365L75.7491 80.0825V80.1095C75.7582 80.1305 75.7701 80.1502 75.7843 80.168C75.93 80.3606 76.1186 80.5149 76.3343 80.618C76.675 80.7813 77.0364 80.8949 77.4079 80.9555C78.3509 81.1068 79.3085 81.1386 80.2591 81.05C81.3029 80.9705 82.3415 80.8308 83.3699 80.6315C84.4171 80.4515 85.4951 80.1815 86.5027 79.9385L87.3827 82.1885C85.3005 83.3141 83.081 84.1509 80.7827 84.677C79.5312 84.961 78.2483 85.073 76.9679 85.01C76.2282 84.9617 75.4984 84.8103 74.7987 84.56C73.9636 84.2617 73.2097 83.7652 72.5987 83.111C72.5164 83.0268 72.4386 82.9382 72.3655 82.8455L72.2555 82.7015C72.2324 82.6767 72.2117 82.6496 72.1939 82.6205L72.1015 82.4765C71.9072 82.1693 71.7589 81.8341 71.6615 81.482C71.5447 81.0412 71.4768 80.5884 71.4591 80.132C71.434 79.4391 71.4649 78.7452 71.5515 78.0575C71.6966 76.8457 71.9111 75.6436 72.1939 74.4575C72.7272 72.1682 73.3958 69.9141 74.1959 67.7075L78.7147 69.296Z" fill="#CF7A64"/>
<path d="M85.627 80.834L87.2814 77.1575L89.7542 80.2445C89.7542 80.2445 88.3462 82.4945 86.5026 82.463L85.627 80.834Z" fill="#CE7A63"/>
<path d="M89.1469 76.0596L91.4833 78.5616L89.7541 80.2491L87.2812 77.1576L89.1469 76.0596Z" fill="#CE7A63"/>
<path d="M76.9016 61.8261C72 62.6361 72 71.1141 72 71.1141L78.71 75.1146C78.71 75.1146 81.5744 68.8866 81.35 65.9571C81.1388 63.4686 79.7 61.3626 76.9016 61.8261Z" fill="#FF5F0A"/>
<path d="M59.7243 174.852C59.666 174.862 59.6066 174.862 59.5483 174.852C59.0027 174.771 58.4835 173.853 58.2283 173.318C58.2198 173.303 58.2153 173.286 58.2153 173.268C58.2153 173.251 58.2198 173.234 58.2283 173.219C58.2395 173.206 58.2542 173.196 58.2706 173.191C58.287 173.187 58.3044 173.187 58.3207 173.192C58.4923 173.246 60.0103 173.741 60.1599 174.29C60.1751 174.35 60.1746 174.414 60.1584 174.474C60.1422 174.534 60.1108 174.588 60.0675 174.632C59.9789 174.741 59.8587 174.818 59.7243 174.852ZM58.4791 173.435C58.8575 174.173 59.2623 174.632 59.5747 174.677C59.6455 174.686 59.7173 174.676 59.783 174.647C59.8487 174.619 59.9058 174.573 59.9487 174.515C59.9722 174.494 59.9893 174.467 59.9979 174.437C60.0065 174.407 60.0062 174.374 59.9971 174.344C59.9003 174.006 59.0203 173.619 58.4791 173.435Z" fill="#FF5F0A"/>
<path d="M59.6886 173.435C59.2173 173.519 58.7335 173.496 58.2718 173.367C58.2575 173.361 58.2448 173.351 58.2349 173.338C58.225 173.326 58.218 173.311 58.2146 173.295C58.2127 173.28 58.2145 173.265 58.2199 173.251C58.2252 173.237 58.234 173.224 58.2454 173.214C58.2894 173.178 59.2706 172.355 59.8998 172.458C59.977 172.47 60.0509 172.498 60.1162 172.542C60.1816 172.585 60.2369 172.643 60.2782 172.71C60.329 172.774 60.3567 172.853 60.3567 172.935C60.3567 173.017 60.329 173.097 60.2782 173.16C60.117 173.316 59.9095 173.413 59.6886 173.435ZM58.4918 173.246C58.9978 173.363 59.9262 173.313 60.1418 173.043C60.1814 172.998 60.2122 172.931 60.1418 172.805C60.1134 172.759 60.0754 172.72 60.0306 172.69C59.9857 172.66 59.9351 172.641 59.8822 172.634C59.4598 172.562 58.7734 173.03 58.4918 173.246Z" fill="#FF5F0A"/>
<path d="M87.4574 183.232C86.9726 183.221 86.4903 183.158 86.0186 183.043C86.0007 183.04 85.9844 183.03 85.9724 183.016C85.9604 183.002 85.9534 182.985 85.9526 182.966C85.9508 182.948 85.9544 182.929 85.963 182.913C85.9717 182.897 85.9849 182.884 86.001 182.876C86.2166 182.773 88.1262 181.873 88.6058 182.201C88.6492 182.232 88.6836 182.274 88.7053 182.323C88.727 182.372 88.7352 182.427 88.729 182.48C88.7265 182.579 88.7017 182.676 88.6567 182.763C88.6117 182.851 88.5476 182.926 88.4694 182.984C88.1652 183.172 87.8117 183.258 87.4574 183.232ZM86.3178 182.926C86.8854 183.034 87.9326 183.173 88.3638 182.84C88.4229 182.799 88.4714 182.744 88.5052 182.68C88.5389 182.616 88.5568 182.544 88.5574 182.471C88.5622 182.448 88.5601 182.424 88.5514 182.403C88.5428 182.381 88.528 182.363 88.509 182.35C88.2406 182.165 87.1098 182.57 86.3002 182.926H86.3178Z" fill="#FF5F0A"/>
<path d="M86.0362 183.047C86.0164 183.047 85.9976 183.039 85.9834 183.025C85.9712 183.014 85.962 183.001 85.9566 182.986C85.9512 182.971 85.9498 182.955 85.9526 182.939C85.9526 182.854 86.3926 180.932 87.4398 181.054C87.6994 181.085 87.7698 181.216 87.783 181.319C87.849 181.81 86.6478 182.8 86.0714 183.038L86.0362 183.047ZM87.3562 181.225C86.6918 181.225 86.309 182.345 86.1814 182.795C86.8018 182.462 87.6598 181.657 87.6202 181.346C87.6202 181.324 87.6202 181.252 87.4266 181.229L87.3562 181.225Z" fill="#FF5F0A"/>
<path d="M91.2632 47.0571L92.0596 46.6431C92.0596 46.6431 91.756 47.4036 91.2632 47.0571Z" fill="#263238"/>
<path d="M124.655 78.5391H126.138C126.239 78.5447 126.34 78.523 126.43 78.4763C126.52 78.4295 126.597 78.3593 126.652 78.2726C126.707 78.186 126.739 78.086 126.745 77.9826C126.75 77.8793 126.729 77.7764 126.683 77.6841L125.764 74.9841C125.674 74.7483 125.521 74.5432 125.323 74.392C125.124 74.2408 124.888 74.1497 124.642 74.129H123.155C123.054 74.1234 122.953 74.1451 122.863 74.1918C122.772 74.2386 122.696 74.3088 122.641 74.3955C122.585 74.4821 122.553 74.5821 122.548 74.6855C122.542 74.7888 122.563 74.8918 122.609 74.9841L123.529 77.6841C123.619 77.9204 123.772 78.126 123.972 78.2772C124.171 78.4285 124.408 78.5192 124.655 78.5391Z" fill="black"/>
<path d="M125.332 78.5391H126.815C126.916 78.5447 127.017 78.523 127.107 78.4763C127.197 78.4295 127.274 78.3593 127.329 78.2726C127.385 78.186 127.417 78.086 127.422 77.9826C127.428 77.8793 127.406 77.7764 127.361 77.6841L126.441 74.9841C126.351 74.7483 126.198 74.5432 126 74.392C125.802 74.2408 125.566 74.1497 125.319 74.129H123.832C123.731 74.1234 123.63 74.1451 123.54 74.1918C123.45 74.2386 123.373 74.3088 123.318 74.3955C123.263 74.4821 123.231 74.5821 123.225 74.6855C123.219 74.7888 123.241 74.8918 123.286 74.9841L124.21 77.6841C124.3 77.9198 124.453 78.1249 124.651 78.2761C124.85 78.4273 125.086 78.5184 125.332 78.5391Z" fill="#263238"/>
<path d="M128.742 78.5391H127.255C127.154 78.5447 127.054 78.523 126.963 78.4763C126.873 78.4295 126.796 78.3593 126.741 78.2726C126.686 78.186 126.654 78.086 126.648 77.9826C126.643 77.8793 126.664 77.7764 126.71 77.6841L127.634 74.9841C127.724 74.7483 127.876 74.5432 128.075 74.392C128.273 74.2408 128.509 74.1497 128.756 74.129H130.238C130.339 74.1234 130.44 74.1451 130.53 74.1918C130.621 74.2386 130.697 74.3088 130.753 74.3955C130.808 74.4821 130.84 74.5821 130.845 74.6855C130.851 74.7888 130.83 74.8918 130.784 74.9841L129.864 77.6841C129.775 77.9198 129.622 78.1249 129.423 78.2761C129.225 78.4273 128.989 78.5184 128.742 78.5391Z" fill="black"/>
<path d="M129.42 78.5391H127.937C127.836 78.5447 127.736 78.523 127.645 78.4763C127.555 78.4295 127.479 78.3593 127.423 78.2726C127.368 78.186 127.336 78.086 127.33 77.9826C127.325 77.8793 127.346 77.7764 127.392 77.6841L128.311 74.9841C128.401 74.7483 128.554 74.5432 128.753 74.392C128.951 74.2408 129.187 74.1497 129.433 74.129H130.921C131.022 74.1234 131.122 74.1451 131.213 74.1918C131.303 74.2386 131.379 74.3088 131.435 74.3955C131.49 74.4821 131.522 74.5821 131.528 74.6855C131.533 74.7888 131.512 74.8918 131.466 74.9841L130.542 77.6841C130.452 77.9198 130.299 78.1249 130.101 78.2761C129.903 78.4273 129.667 78.5184 129.42 78.5391Z" fill="#263238"/>
<path d="M130.089 75.9021H128.223L121.821 75.1596C121.387 75.1083 120.987 74.8974 120.694 74.5662C120.401 74.2351 120.235 73.8062 120.229 73.3596V69.0666C120.229 68.6835 120.377 68.3161 120.642 68.0452C120.907 67.7743 121.266 67.6221 121.641 67.6221H130.089C130.25 67.6221 130.404 67.6875 130.518 67.804C130.632 67.9204 130.696 68.0784 130.696 68.2431V75.3036C130.69 75.4643 130.624 75.6166 130.511 75.7282C130.397 75.8398 130.246 75.9022 130.089 75.9021Z" fill="black"/>
<path d="M132.526 67.5994H128.83C128.495 67.5994 128.223 67.8774 128.223 68.2204V75.2809C128.223 75.6238 128.495 75.9019 128.83 75.9019H132.526C132.862 75.9019 133.134 75.6238 133.134 75.2809V68.2204C133.134 67.8774 132.862 67.5994 132.526 67.5994Z" fill="#263238"/>
<path d="M133.134 71.5639L125.46 72.4639V68.2249H133.134V71.5639Z" fill="black"/>
<path d="M134.216 70.799H130.089L115.938 69.1565C114.97 69.0458 114.075 68.5737 113.426 67.8306C112.777 67.0875 112.418 66.1256 112.418 65.129V55.643C112.418 55.2236 112.498 54.8083 112.655 54.4207C112.811 54.0331 113.041 53.6808 113.331 53.3841C113.62 53.0873 113.964 52.8519 114.343 52.6913C114.722 52.5307 115.128 52.448 115.538 52.448H134.216C134.566 52.448 134.902 52.5902 135.149 52.8434C135.397 53.0966 135.536 53.44 135.536 53.798V69.4085C135.541 69.5892 135.511 69.7691 135.447 69.9376C135.383 70.1061 135.287 70.2597 135.164 70.3894C135.041 70.5191 134.893 70.6221 134.731 70.6925C134.568 70.7629 134.393 70.7991 134.216 70.799Z" fill="black"/>
<path d="M106.452 52.448H102.492L99.7642 42.575H106.452V52.448Z" fill="black"/>
<path d="M119.014 47.5115H115.01V48.524H119.014V47.5115Z" fill="black"/>
<path d="M105.128 52.448H117.008V42.575H105.128V52.448Z" fill="#263238"/>
<path d="M113.198 58.451H111.218L105.132 47.5115H107.112L113.198 58.451Z" fill="black"/>
<path d="M125.077 58.451H123.097L117.012 47.5115H118.992L125.077 58.451Z" fill="black"/>
<path d="M107.112 47.5115H103.108V48.524H107.112V47.5115Z" fill="black"/>
<path d="M139.602 52.448H131.426C130.688 52.448 130.089 53.0605 130.089 53.816V69.431C130.089 70.1865 130.688 70.799 131.426 70.799H139.602C140.34 70.799 140.939 70.1865 140.939 69.431V53.816C140.939 53.0605 140.34 52.448 139.602 52.448Z" fill="#263238"/>
<path d="M136.02 57.9514H157.03V65.2999H136.02C135.178 65.2999 134.369 64.9576 133.774 64.3483C133.178 63.739 132.843 62.9126 132.843 62.0509V61.2004C132.843 60.3387 133.178 59.5123 133.774 58.903C134.369 58.2937 135.178 57.9514 136.02 57.9514Z" fill="black"/>
<path d="M150.025 61.6235C150.025 63.2944 149.376 64.8968 148.221 66.0783C147.066 67.2597 145.499 67.9235 143.865 67.9235C140.464 67.9235 139.061 65.1065 139.061 61.6235C139.061 58.1405 140.464 55.3235 143.865 55.3235C145.499 55.3235 147.066 55.9872 148.221 57.1687C149.376 58.3502 150.025 59.9526 150.025 61.6235Z" fill="#263238"/>
<path d="M146.695 69.377L143.549 67.2215C143.206 66.986 142.925 66.6678 142.731 66.295C142.537 65.9223 142.435 65.5064 142.436 65.084V58.163C142.435 57.7407 142.537 57.3248 142.731 56.952C142.925 56.5793 143.206 56.2611 143.549 56.0255L146.695 53.8745C146.811 53.7928 146.949 53.7489 147.091 53.7485H161.457C161.647 53.7496 161.828 53.8272 161.963 53.9645L164.519 56.5745C164.652 56.7143 164.726 56.9016 164.726 57.0965V66.155C164.726 66.3486 164.652 66.5344 164.519 66.6725L161.963 69.2825C161.897 69.3513 161.818 69.4059 161.731 69.443C161.644 69.4801 161.551 69.499 161.457 69.4985H147.091C146.95 69.4998 146.812 69.4574 146.695 69.377Z" fill="black"/>
<path d="M148.899 69.2825L146.347 66.6725C146.213 66.5352 146.137 66.3492 146.136 66.155V57.0965C146.137 56.9011 146.213 56.7138 146.347 56.5745L148.899 53.9645C149.035 53.8274 149.218 53.7499 149.409 53.7485H163.692C163.883 53.7499 164.066 53.8274 164.202 53.9645L166.754 56.5745C166.821 56.6429 166.875 56.7243 166.911 56.8139C166.947 56.9035 166.966 56.9996 166.965 57.0965V66.155C166.966 66.2514 166.947 66.3468 166.911 66.4357C166.875 66.5246 166.821 66.6051 166.754 66.6725L164.202 69.2825C164.135 69.3513 164.056 69.4057 163.968 69.4428C163.88 69.4799 163.787 69.4988 163.692 69.4985H149.409C149.315 69.4988 149.221 69.4799 149.133 69.4428C149.045 69.4057 148.966 69.3513 148.899 69.2825Z" fill="#263238"/>
<path opacity="0.5" d="M163.445 68.1484H149.66L147.46 65.8984V57.3484C148.34 56.4484 148.802 55.9984 149.66 55.0984H163.45C164.308 55.9984 164.77 56.4484 165.65 57.3484V65.8984L163.445 68.1484Z" fill="#FF5F0A"/>
<path d="M156.551 67.1358C159.527 67.1358 161.941 64.6678 161.941 61.6233C161.941 58.5789 159.527 56.1108 156.551 56.1108C153.574 56.1108 151.161 58.5789 151.161 61.6233C151.161 64.6678 153.574 67.1358 156.551 67.1358Z" fill="#263238"/>
<path opacity="0.7" d="M154.852 57.5645C154.428 57.5637 154.005 57.6336 153.603 57.7715C153.013 58.2166 152.534 58.797 152.204 59.466C151.874 60.1351 151.702 60.874 151.702 61.6235C151.702 62.3729 151.874 63.1119 152.204 63.7809C152.534 64.4499 153.013 65.0303 153.603 65.4755C154.005 65.6133 154.428 65.6832 154.852 65.6825C155.372 65.6825 155.887 65.5777 156.368 65.3742C156.848 65.1706 157.285 64.8723 157.652 64.4962C158.02 64.1202 158.312 63.6737 158.511 63.1823C158.71 62.691 158.812 62.1643 158.812 61.6325C158.812 61.1006 158.71 60.574 158.511 60.0826C158.312 59.5912 158.02 59.1448 157.652 58.7687C157.285 58.3926 156.848 58.0943 156.368 57.8907C155.887 57.6872 155.372 57.5825 154.852 57.5825V57.5645Z" fill="#FF5F0A"/>
<path d="M157.792 60.3183C157.792 60.6396 157.698 60.9537 157.524 61.2209C157.349 61.488 157.101 61.6962 156.811 61.8192C156.521 61.9421 156.201 61.9743 155.893 61.9116C155.585 61.849 155.302 61.6942 155.08 61.467C154.858 61.2398 154.707 60.9504 154.645 60.6353C154.584 60.3201 154.615 59.9935 154.736 59.6967C154.856 59.3998 155.059 59.1461 155.321 58.9676C155.582 58.7891 155.889 58.6938 156.203 58.6938C156.624 58.6938 157.028 58.865 157.326 59.1697C157.624 59.4743 157.792 59.8875 157.792 60.3183Z" fill="#FF5F0A"/>
<path d="M126.463 64.7689L111.701 60.2419C111.423 60.1609 111.178 59.9884 111.004 59.7509C110.831 59.5134 110.739 59.2242 110.742 58.9279V55.9759C110.742 55.6107 110.884 55.2604 111.137 55.0022C111.389 54.744 111.732 54.5989 112.089 54.5989H126.851C127.208 54.5989 127.55 54.744 127.803 55.0022C128.055 55.2604 128.197 55.6107 128.197 55.9759V63.4504C128.197 63.665 128.148 63.8767 128.054 64.0685C127.959 64.2603 127.823 64.4269 127.654 64.555C127.486 64.6831 127.29 64.7692 127.084 64.8063C126.877 64.8434 126.664 64.8306 126.463 64.7689Z" fill="#FF5F0A"/>
<path d="M125.68 64.7689L110.914 60.2419C110.636 60.1601 110.392 59.9872 110.22 59.7498C110.047 59.5124 109.956 59.2236 109.959 58.9279V55.9759C109.958 55.615 110.096 55.2681 110.343 55.0103C110.59 54.7526 110.926 54.6048 111.279 54.5989H126.045C126.402 54.6001 126.743 54.7457 126.995 55.0038C127.246 55.2619 127.387 55.6115 127.387 55.9759V63.4504C127.387 63.6623 127.339 63.8713 127.246 64.0609C127.154 64.2506 127.02 64.4157 126.854 64.5435C126.689 64.6712 126.497 64.758 126.293 64.7971C126.089 64.8362 125.88 64.8266 125.68 64.7689Z" fill="#263238"/>
<path d="M110.742 62.447V63.5405C110.741 63.7163 110.796 63.8878 110.898 64.0291C111 64.1703 111.145 64.2737 111.31 64.3235L127.15 69.1835C127.269 69.2198 127.394 69.2273 127.517 69.2053C127.639 69.1834 127.755 69.1327 127.855 69.0572C127.955 68.9817 128.036 68.8834 128.092 68.7702C128.149 68.657 128.178 68.532 128.179 68.405V67.307C128.179 67.1309 128.123 66.9597 128.02 66.8186C127.917 66.6776 127.772 66.5743 127.607 66.524L111.767 61.664C111.648 61.6274 111.522 61.6199 111.4 61.6421C111.277 61.6642 111.162 61.7154 111.062 61.7915C110.962 61.8677 110.882 61.9666 110.826 62.0804C110.77 62.1942 110.742 62.3198 110.742 62.447Z" fill="#FF5F0A"/>
<path d="M131.114 76.7253H122.213V85.6263H131.114C132.733 85.6263 134.005 83.6688 134.005 81.1758C134.005 78.6828 132.733 76.7253 131.114 76.7253Z" fill="#263238"/>
<path d="M122.213 85.6263C120.594 85.6263 119.322 83.6688 119.322 81.1758C119.322 78.6828 120.594 76.7253 122.213 76.7253C123.832 76.7253 125.099 78.6783 125.099 81.1758C125.099 83.6733 123.828 85.6263 122.213 85.6263Z" fill="#FF5F0A"/>
<path d="M122.213 84.7265C123.321 84.7265 124.219 83.1369 124.219 81.176C124.219 79.2151 123.321 77.6255 122.213 77.6255C121.105 77.6255 120.207 79.2151 120.207 81.176C120.207 83.1369 121.105 84.7265 122.213 84.7265Z" fill="#263238"/>
<path d="M126.864 86.792C124.378 86.792 122.27 87.998 121.544 89.6675C121.48 89.8078 121.452 89.9628 121.463 90.1174C121.474 90.2721 121.524 90.4211 121.608 90.5501C121.692 90.6792 121.808 90.7838 121.943 90.8538C122.078 90.9239 122.229 90.957 122.38 90.95H131.352C131.503 90.9562 131.653 90.9225 131.788 90.8521C131.922 90.7817 132.037 90.677 132.121 90.5481C132.204 90.4192 132.254 90.2705 132.265 90.1162C132.276 89.962 132.248 89.8074 132.184 89.6675C131.453 87.998 129.346 86.792 126.864 86.792Z" fill="#263238"/>
<path d="M130.516 85.6265H123.212C122.66 85.6265 122.213 86.0838 122.213 86.648V87.4535C122.213 88.0176 122.66 88.475 123.212 88.475H130.516C131.067 88.475 131.514 88.0176 131.514 87.4535V86.648C131.514 86.0838 131.067 85.6265 130.516 85.6265Z" fill="black"/>
<path d="M111.31 187.808H109.902L122.376 90.95H123.784L111.31 187.808Z" fill="#263238"/>
<path d="M120.466 187.808H119.058L125.293 90.95H126.701L120.466 187.808Z" fill="#263238"/>
<path d="M142.413 187.808H143.821L131.347 90.95H129.944L142.413 187.808Z" fill="#263238"/>
<path d="M133.389 187.808H134.665L128.43 90.95H127.154L133.389 187.808Z" fill="#263238"/>
<path d="M108.622 89.3074L107.843 88.8889L117.404 70.3489H120.748V71.2489H117.932L108.622 89.3074Z" fill="black"/>
<path d="M110.593 82.5787L107.061 89.4241L108.618 90.2641L112.15 83.4187L110.593 82.5787Z" fill="#FF5F0A"/>
</g>
<defs>
<clipPath id="clip0_78_3287">
<rect width="220" height="225" fill="white" transform="translate(0.5 0.5)"/>
</clipPath>
</defs>
</svg>
