<svg width="232" height="231" viewBox="0 0 232 231" fill="none" xmlns="http://www.w3.org/2000/svg">
<path d="M39.8671 36.4009H27.6333V41.5707H39.8671V36.4009Z" fill="#EBEBEB"/>
<path d="M33.0433 29.8821H20.8096V35.0519H33.0433V29.8821Z" fill="#EBEBEB"/>
<path d="M46.6908 29.8821H34.457V35.0519H46.6908V29.8821Z" fill="#EBEBEB"/>
<path d="M167.319 74.4927H155.085V79.6624H167.319V74.4927Z" fill="#EBEBEB"/>
<path d="M160.491 67.9739H148.257V73.1437H160.491V67.9739Z" fill="#EBEBEB"/>
<path d="M174.143 67.9739H161.909V73.1437H174.143V67.9739Z" fill="#EBEBEB"/>
<path d="M204.367 29.8821H192.133V35.0519H204.367V29.8821Z" fill="#EBEBEB"/>
<path d="M204.367 169.388H192.133V174.557H204.367V169.388Z" fill="#EBEBEB"/>
<path d="M211.19 162.869H198.957V168.038H211.19V162.869Z" fill="#EBEBEB"/>
<path d="M33.0433 169.383H20.8096V174.553H33.0433V169.383Z" fill="#EBEBEB"/>
<path d="M54.5172 113.037H66.751V107.868H54.5172V113.037Z" fill="#EBEBEB"/>
<path d="M61.3409 119.556H73.5747V114.386H61.3409V119.556Z" fill="#EBEBEB"/>
<path d="M212.923 204.204H208.469V98.5583L190.821 59.5978L194.882 57.759L212.923 97.5973V204.204Z" fill="#EBEBEB"/>
<path d="M198.31 90.8522L177.418 102.402V20.6328L198.31 32.1828V90.8522Z" fill="#EBEBEB"/>
<path d="M145.462 25.2528L177.418 20.6328V102.402L145.462 97.7822V25.2528Z" fill="#DBDBDB"/>
<path d="M147.938 27.9185L174.942 24.0146V98.8355L147.938 94.9316V27.9185Z" fill="white"/>
<path d="M202.26 72.9867L198.31 75.2967V50.6768L202.26 52.9868V72.9867Z" fill="#DBDBDB"/>
<path d="M14.6694 204.204L40.0009 204.093L65.337 204.052L116 203.973L166.663 204.052L191.999 204.089L217.33 204.204L191.999 204.315L166.663 204.357L116 204.435L65.337 204.357L40.0009 204.315L14.6694 204.204Z" fill="#263238"/>
<path d="M52.6227 50.7831H51.6987V37.8794H69.7121V38.8034H52.6227V50.7831Z" fill="#EBEBEB"/>
<path d="M69.7121 77.362H51.6987V63.271H52.6227V76.438H69.7121V77.362Z" fill="#EBEBEB"/>
<path d="M108.192 50.7831H107.268V38.8034H90.1787V37.8794H108.192V50.7831Z" fill="#EBEBEB"/>
<path d="M108.192 77.362H90.1787V76.438H107.268V63.271H108.192V77.362Z" fill="#EBEBEB"/>
<path d="M72.2624 55.6201H71.3384V51.5083H76.9471V52.4323H72.2624V55.6201Z" fill="#EBEBEB"/>
<path d="M76.9471 63.733H71.3384V59.2793H72.2624V62.809H76.9471V63.733Z" fill="#EBEBEB"/>
<path d="M88.5525 55.6201H87.6285V52.4323H82.9438V51.5083H88.5525V55.6201Z" fill="#EBEBEB"/>
<path d="M88.5525 63.733H82.9438V62.809H87.6285V59.2793H88.5525V63.733Z" fill="#EBEBEB"/>
<path d="M95.4223 83.4233H69.6104V110.769H95.4223V83.4233Z" fill="#455A64"/>
<path d="M127.79 83.4233H95.4224V110.769H127.79V83.4233Z" fill="#37474F"/>
<path d="M55.2746 83.4233H30.0771V110.769H55.2746V83.4233Z" fill="#455A64"/>
<path d="M52.1236 86.9668H33.2231V107.235H52.1236V86.9668Z" fill="#455A64"/>
<path d="M64.5839 108.464L61.5209 110.774H55.27V83.4233H61.4423L64.5839 85.7333V108.464Z" fill="#37474F"/>
<path d="M89.2363 87.2302H64.584V106.971H89.2363V87.2302Z" fill="#263238"/>
<path d="M33.2231 86.9668L37.3026 91.0463V103.603L33.2231 107.23V86.9668Z" fill="#37474F"/>
<path d="M37.3026 91.0463L33.2231 86.9668H52.1236V91.0463H37.3026Z" fill="#263238"/>
<path d="M33.2231 107.23L37.3026 103.604H52.1236V107.23H33.2231Z" fill="#263238"/>
<path d="M52.1237 93.0515V101.714C51.3119 102.588 50.2889 103.239 49.1531 103.604H44.607C43.2129 103.215 41.9894 102.37 41.1323 101.204C40.2751 100.038 39.8339 98.6175 39.8791 97.171C39.9244 95.7244 40.4535 94.3348 41.3818 93.2244C42.3101 92.1141 43.584 91.3472 44.9997 91.0464H48.7604C50.0498 91.3802 51.2169 92.0759 52.1237 93.0515Z" fill="#37474F"/>
<path d="M52.1237 92.862V101.885C51.4266 102.657 50.5488 103.245 49.5688 103.594H45.4108C44.1246 103.1 43.0237 102.218 42.26 101.071C41.4964 99.9243 41.1078 98.5684 41.1478 97.191C41.1879 95.8137 41.6547 94.4827 42.4837 93.382C43.3127 92.2813 44.463 91.4652 45.7758 91.0464H49.2039C50.3275 91.3672 51.339 91.9962 52.1237 92.862Z" fill="#EBEBEB"/>
<path d="M80.4075 78.406H75.3901V83.4233H80.4075V78.406Z" fill="#37474F"/>
<path d="M85.7391 73.176H61.7705V78.4059H85.7391V73.176Z" fill="#37474F"/>
<path d="M65.3092 71.0786H45.5494C43.8297 71.0786 42.4355 72.4727 42.4355 74.1925V77.3895C42.4355 79.1093 43.8297 80.5034 45.5494 80.5034H65.3092C67.0289 80.5034 68.423 79.1093 68.423 77.3895V74.1925C68.423 72.4727 67.0289 71.0786 65.3092 71.0786Z" fill="#263238"/>
<path d="M88.5895 74.6775H85.7344V76.9043H88.5895V74.6775Z" fill="#455A64"/>
<path d="M104.538 91.9795H101.364V102.222H104.538V91.9795Z" fill="#455A64"/>
<path d="M121.743 89.9143H103.715V104.283H121.743V89.9143Z" fill="#455A64"/>
<path d="M94.5307 73.176H90.2988V83.4278H94.5307V73.176Z" fill="#37474F"/>
<path d="M117.843 76.5396H90.2988V72.3123L93.3711 69.5356H117.843V76.5396Z" fill="#37474F"/>
<path d="M126.169 65.1604L117.843 69.5355V76.5395L126.169 80.9146V65.1604Z" fill="#263238"/>
<path d="M93.3479 117.533H86.5889V124.292H93.3479V117.533Z" fill="#37474F"/>
<path d="M108.816 117.533H102.057V124.292H108.816V117.533Z" fill="#455A64"/>
<path d="M95.4227 110.774H81.1191V117.533H95.4227V110.774Z" fill="#37474F"/>
<path d="M115.455 110.774H95.4224V117.533H115.455V110.774Z" fill="#455A64"/>
<path d="M95.6118 145.886H88.5894V152.645H95.6118V145.886Z" fill="#37474F"/>
<path d="M105.443 145.886H95.6118V152.645H105.443V145.886Z" fill="#455A64"/>
<path d="M94.9237 152.645H84.4409V156.027H94.9237V152.645Z" fill="#37474F"/>
<path d="M109.611 152.645H94.9282V156.027H109.611V152.645Z" fill="#455A64"/>
<path d="M107.268 122.721V145.89H86.9907C82.6202 145.641 79.1367 140.554 79.1367 134.313C79.1367 128.071 82.6202 122.989 86.9907 122.739L107.268 122.721Z" fill="#263238"/>
<path d="M107.268 145.886C111.79 145.886 115.455 140.7 115.455 134.303C115.455 127.907 111.79 122.721 107.268 122.721C102.747 122.721 99.0815 127.907 99.0815 134.303C99.0815 140.7 102.747 145.886 107.268 145.886Z" fill="#37474F"/>
<path d="M107.268 144.093C111.088 144.093 114.184 139.71 114.184 134.303C114.184 128.897 111.088 124.514 107.268 124.514C103.449 124.514 100.352 128.897 100.352 134.303C100.352 139.71 103.449 144.093 107.268 144.093Z" fill="#455A64"/>
<path d="M73.9994 204.204H71.8511L86.2193 156.027H91.7633L73.9994 204.204Z" fill="#263238"/>
<path d="M119.857 204.204H122.62L108.257 156.027H102.089L119.857 204.204Z" fill="#263238"/>
<path d="M98.2131 204.204H95.4503L94.1567 156.027H100.32L98.2131 204.204Z" fill="#263238"/>
<path d="M161.909 92.5802C172.341 105.054 182.352 130.349 181.493 135.837C180.393 142.855 160.126 156.969 152.387 163.271C148.788 166.195 134.064 140.674 138.901 139.205C140.948 138.6 157.072 129.078 158.134 128.293C160.333 126.671 153.182 110.607 150.631 95.7819C148.959 86.0429 154.032 83.1601 161.909 92.5802Z" fill="#D3766A"/>
<path d="M140.879 138.6C140.879 138.6 133.371 140.771 130.285 142.453C127.199 144.135 118.005 154.636 120.158 156.752C122.93 159.482 129.44 154.442 132.304 151.591C132.304 151.591 138.735 157.916 144.178 155.324C149.62 152.732 140.879 138.6 140.879 138.6Z" fill="#D3766A"/>
<path d="M152.374 163.271C150.332 165.47 140.103 174.705 136.666 176.641C133.228 178.577 123.013 183.414 121.267 180.956C119.521 178.498 122.404 176.826 122.404 176.826C122.404 176.826 117.751 178.189 116.222 175.546C114.693 172.903 119.262 170.464 119.262 170.464C119.262 170.464 114.383 171.513 113.044 168.764C111.704 166.015 116.74 164.338 116.74 164.338C116.74 164.338 112.323 165.507 112.17 162.781C111.99 159.496 120.375 158.258 123.993 155.851C124.815 155.301 139.849 143.53 139.849 143.53L152.374 163.271Z" fill="#D3766A"/>
<path d="M116.291 164.472C122.454 163.548 124.991 162.079 129.638 158.069C129.731 157.99 129.865 158.106 129.782 158.198C125.587 162.536 122.671 164.842 116.319 164.772C116 164.786 116 164.537 116.291 164.472Z" fill="#263238"/>
<path d="M118.772 170.529C125.092 169.009 127.86 167.438 133.034 163.599C133.108 163.548 133.21 163.663 133.14 163.724C128.377 167.918 125.416 170.15 118.902 170.838C118.606 170.866 118.486 170.598 118.772 170.529Z" fill="#263238"/>
<path d="M122.662 176.623C128.668 174.71 131.782 173.121 136.328 168.746C136.349 168.723 136.378 168.709 136.409 168.708C136.439 168.707 136.469 168.718 136.492 168.739C136.515 168.759 136.528 168.788 136.53 168.819C136.531 168.85 136.52 168.88 136.499 168.903C132.295 173.814 128.432 175.833 122.741 176.798C122.353 176.868 122.283 176.743 122.662 176.623Z" fill="#263238"/>
<path d="M121.174 157.251C125.503 157.911 129.028 153.897 132.008 151.319C132.05 151.278 132.101 151.248 132.157 151.232C132.213 151.216 132.272 151.213 132.329 151.225C132.386 151.237 132.439 151.263 132.484 151.3C132.529 151.337 132.564 151.385 132.586 151.439C135.459 153.906 140.227 156.553 144.099 155.555C144.122 155.547 144.147 155.549 144.17 155.56C144.192 155.571 144.209 155.59 144.217 155.613C144.225 155.636 144.223 155.662 144.212 155.684C144.201 155.706 144.182 155.723 144.159 155.731C140.153 157.366 135.256 155.144 132.281 152.238C129.264 154.932 125.559 158.803 121.165 157.292L121.174 157.251Z" fill="#263238"/>
<path d="M149.361 132.1L167.98 154.423C167.98 154.423 179.068 145.789 182.422 140.148C185.776 134.507 176.416 111.822 164.372 95.1396C152.327 78.4568 147.347 85.5531 150.794 99.3531C153.519 110.242 157.063 127.66 157.1 128.256C157.137 128.852 149.361 132.1 149.361 132.1Z" fill="#FF5F0A"/>
<path d="M164.413 117.348C164.63 117.311 164.847 117.292 165.06 117.265C165.293 117.226 165.532 117.25 165.753 117.334C165.982 117.427 166.179 117.585 166.318 117.789C166.458 117.992 166.534 118.233 166.538 118.48C166.537 118.667 166.585 118.85 166.678 119.012C166.77 119.175 166.904 119.31 167.065 119.404C167.238 119.504 167.433 119.56 167.633 119.566C167.846 119.593 168.063 119.612 168.28 119.649C168.063 119.69 167.846 119.709 167.633 119.736C167.453 119.765 167.268 119.753 167.093 119.703C166.917 119.652 166.755 119.563 166.617 119.443C166.48 119.323 166.371 119.174 166.297 119.006C166.223 118.839 166.188 118.658 166.192 118.475C166.193 118.285 166.142 118.098 166.044 117.935C165.947 117.772 165.806 117.639 165.637 117.551C165.459 117.458 165.261 117.409 165.06 117.408C164.847 117.403 164.63 117.389 164.413 117.348ZM153.856 97.9947C154.056 97.9981 154.253 98.0487 154.429 98.1426C154.597 98.2314 154.738 98.3643 154.837 98.5271C154.935 98.6898 154.988 98.8763 154.988 99.0666C154.986 99.3131 155.055 99.5551 155.188 99.7627C155.321 99.9704 155.512 100.135 155.737 100.235C155.953 100.331 156.192 100.363 156.425 100.328C156.642 100.295 156.855 100.282 157.072 100.24C156.855 100.203 156.642 100.185 156.425 100.157C156.225 100.151 156.03 100.096 155.857 99.9952C155.697 99.9001 155.564 99.7648 155.473 99.6027C155.381 99.4406 155.334 99.2574 155.335 99.0712C155.329 98.8239 155.252 98.5836 155.111 98.38C154.971 98.1764 154.774 98.0183 154.545 97.9254C154.325 97.8418 154.088 97.8179 153.856 97.8561C153.639 97.8838 153.422 97.9023 153.205 97.9393C153.422 97.9439 153.639 97.967 153.856 97.9947ZM171.777 135.828C171.978 135.83 172.176 135.879 172.355 135.971C172.521 136.062 172.66 136.195 172.758 136.358C172.855 136.52 172.908 136.706 172.909 136.895C172.905 137.077 172.941 137.258 173.014 137.425C173.087 137.591 173.196 137.74 173.334 137.86C173.471 137.98 173.632 138.068 173.807 138.118C173.982 138.169 174.166 138.18 174.346 138.152C174.563 138.124 174.78 138.106 174.993 138.069C174.78 138.027 174.563 138.013 174.346 137.981C174.147 137.974 173.952 137.92 173.778 137.824C173.618 137.728 173.486 137.593 173.394 137.431C173.303 137.269 173.255 137.086 173.256 136.9C173.25 136.652 173.173 136.412 173.032 136.209C172.892 136.005 172.695 135.847 172.466 135.754C172.246 135.67 172.009 135.646 171.777 135.685C171.56 135.712 171.343 135.731 171.131 135.772C171.343 135.796 171.56 135.828 171.777 135.828ZM154.683 110.441C154.541 110.582 154.367 110.687 154.175 110.746C153.931 110.82 153.668 110.802 153.436 110.695L153.519 111.074C153.77 111.126 154.031 111.1 154.268 111C154.483 110.905 154.668 110.753 154.803 110.561C154.937 110.39 155.076 110.224 155.201 110.044C155.03 110.182 154.868 110.326 154.693 110.455L154.683 110.441ZM167.407 102.587C167.405 102.787 167.356 102.983 167.264 103.16C167.174 103.327 167.041 103.468 166.878 103.566C166.716 103.665 166.53 103.717 166.34 103.719C166.158 103.715 165.977 103.75 165.81 103.824C165.643 103.897 165.495 104.006 165.375 104.143C165.255 104.28 165.167 104.442 165.116 104.617C165.066 104.792 165.054 104.976 165.083 105.156C165.111 105.373 165.129 105.585 165.166 105.803C165.208 105.585 165.226 105.373 165.254 105.156C165.26 104.956 165.315 104.76 165.416 104.587C165.51 104.427 165.645 104.294 165.807 104.202C165.97 104.111 166.153 104.063 166.34 104.065C166.587 104.06 166.827 103.982 167.031 103.842C167.234 103.702 167.392 103.505 167.485 103.275C167.569 103.056 167.593 102.819 167.555 102.587C167.527 102.37 167.508 102.153 167.472 101.94C167.462 102.185 167.448 102.402 167.416 102.619L167.407 102.587ZM162.26 140.587C162.258 140.786 162.209 140.982 162.117 141.159C162.027 141.327 161.894 141.467 161.731 141.565C161.569 141.663 161.383 141.716 161.193 141.718C161.011 141.714 160.83 141.75 160.663 141.823C160.497 141.897 160.348 142.006 160.228 142.143C160.108 142.28 160.02 142.441 159.97 142.616C159.919 142.791 159.908 142.975 159.936 143.155C159.964 143.372 159.982 143.585 160.019 143.802C160.061 143.585 160.075 143.372 160.107 143.155C160.114 142.956 160.168 142.761 160.264 142.587C160.36 142.427 160.495 142.295 160.657 142.204C160.819 142.112 161.002 142.064 161.188 142.065C161.436 142.06 161.676 141.982 161.88 141.841C162.083 141.701 162.241 141.504 162.334 141.275C162.418 141.056 162.442 140.818 162.403 140.587C162.376 140.369 162.357 140.152 162.316 139.94C162.316 140.185 162.297 140.402 162.269 140.619L162.26 140.587ZM154.905 85.8164C154.894 85.9782 154.848 86.1357 154.771 86.2784C154.682 86.4461 154.549 86.5863 154.386 86.684C154.223 86.7817 154.037 86.8331 153.847 86.8328C153.665 86.8285 153.484 86.8643 153.318 86.9376C153.151 87.011 153.002 87.12 152.883 87.2571C152.763 87.3942 152.674 87.5559 152.624 87.7309C152.573 87.9058 152.562 88.0898 152.59 88.2696C152.618 88.4868 152.637 88.7039 152.674 88.921C152.715 88.7039 152.734 88.4868 152.761 88.2696C152.768 88.0719 152.822 87.8785 152.919 87.706C153.013 87.5451 153.148 87.4118 153.31 87.3193C153.472 87.2269 153.656 87.1786 153.843 87.1793C154.09 87.1745 154.33 87.0971 154.534 86.9566C154.738 86.8162 154.896 86.6189 154.988 86.3893C155.053 86.2282 155.08 86.0543 155.067 85.8811L154.905 85.8164ZM180.68 125.71H180.528C180.345 125.707 180.165 125.743 179.998 125.817C179.831 125.891 179.683 126 179.563 126.138C179.443 126.275 179.355 126.437 179.304 126.612C179.254 126.787 179.243 126.971 179.271 127.152C179.299 127.364 179.317 127.581 179.354 127.798C179.396 127.581 179.414 127.364 179.442 127.152C179.448 126.952 179.503 126.756 179.604 126.583C179.698 126.422 179.833 126.288 179.995 126.196C180.157 126.104 180.341 126.055 180.528 126.057C180.613 126.058 180.699 126.047 180.782 126.024L180.68 125.71ZM159.557 128.51C159.7 128.369 159.874 128.264 160.066 128.205C160.245 128.15 160.435 128.144 160.617 128.188C160.799 128.232 160.966 128.324 161.101 128.454C161.275 128.629 161.495 128.749 161.736 128.802C161.977 128.854 162.228 128.836 162.459 128.75C162.679 128.664 162.87 128.516 163.009 128.325C163.138 128.154 163.281 127.988 163.406 127.808C163.226 127.932 163.059 128.071 162.888 128.205C162.742 128.341 162.564 128.439 162.371 128.491C162.189 128.539 161.998 128.537 161.817 128.487C161.636 128.437 161.472 128.339 161.341 128.205C161.161 128.029 160.933 127.912 160.687 127.866C160.44 127.821 160.185 127.85 159.955 127.951C159.74 128.046 159.554 128.198 159.419 128.39C159.285 128.561 159.146 128.727 159.022 128.907C159.197 128.782 159.359 128.639 159.534 128.51H159.557Z" fill="white"/>
<path d="M144.732 133.324L151.408 130.385L171.426 152.866L165.702 157.482L144.732 133.324Z" fill="#FF5F0A"/>
<path opacity="0.1" d="M144.732 133.324L151.408 130.385L171.426 152.866L165.702 157.482L144.732 133.324Z" fill="black"/>
<path d="M134.817 204.204H174.965C176.231 190.593 177.502 176.646 178.509 165.525C178.541 165.156 178.578 164.786 178.61 164.421C179.747 151.841 180.518 143.146 180.518 143.146H142.634C142.632 143.184 142.632 143.223 142.634 143.261C142.334 145.322 138.495 175.389 134.817 204.204Z" fill="#37474F"/>
<path d="M168.88 204.204H169.518C171.269 189.466 172.692 174.701 173.985 159.917C174.059 159.033 174.136 158.147 174.216 157.26C174.475 154.225 174.734 151.176 174.983 148.136C174.983 148.043 174.849 148.043 174.836 148.136C174.552 150.831 174.278 153.52 174.013 156.202C174.011 156.21 174.011 156.218 174.013 156.225C173.921 157.205 173.819 158.18 173.722 159.164C172.692 169.365 171.671 179.556 170.553 189.743C170.023 194.57 169.466 199.39 168.88 204.204Z" fill="#263238"/>
<path d="M148.104 143.146L153.186 176.743L153.367 177.879L153.829 180.905L153.866 181.118L153.986 181.931L157.368 204.204H178.934C181.147 191.73 183.411 178.942 185.286 168.33C185.328 168.089 185.369 167.868 185.411 167.627C187.938 153.347 189.745 143.141 189.745 143.141L148.104 143.146Z" fill="#263238"/>
<path d="M142.598 143.114C142.598 143.114 142.598 143.16 142.621 143.262C142.921 145.22 146.183 166.228 151.602 180.014C151.639 180.129 151.681 180.235 151.731 180.355C151.731 180.355 152.494 180.591 153.87 181.136C154.406 181.349 155.044 181.598 155.765 181.922L156.55 182.273C158.139 182.984 160.066 183.918 162.265 185.109C162.478 185.22 162.685 185.336 162.893 185.451C162.893 185.451 162.893 185.539 162.893 185.701C163.004 187.147 163.568 194.567 164.279 204.181H202.066C199.156 174.183 195.959 143.091 195.959 143.091L142.598 143.114Z" fill="#37474F"/>
<path d="M191.768 148.958C192.845 163.031 193.875 177.103 195.002 191.157C195.353 195.506 195.714 199.855 196.083 204.204H196.638C195.039 185.792 193.519 167.38 192.078 148.967C192.059 148.764 191.768 148.764 191.768 148.958Z" fill="#263238"/>
<path d="M149.823 179.367C154.35 181.014 158.724 183.052 162.898 185.456C162.934 185.472 162.962 185.502 162.977 185.539C162.991 185.575 162.99 185.616 162.974 185.652C162.958 185.689 162.929 185.717 162.892 185.731C162.855 185.746 162.814 185.745 162.778 185.729C158.37 183.834 153.88 182.033 149.588 179.894C149.518 179.862 149.463 179.805 149.436 179.733C149.409 179.662 149.411 179.582 149.442 179.512C149.473 179.443 149.531 179.388 149.603 179.361C149.674 179.333 149.753 179.336 149.823 179.367Z" fill="#263238"/>
<path d="M148.423 149.143C148.423 148.99 148.7 148.958 148.7 149.143C148.701 154.057 148.947 158.968 149.44 163.858C149.643 166.126 151.468 178.665 155.404 177.75C156.06 177.597 156.397 176.951 156.504 175.957C156.624 174.765 156.176 173.301 155.981 172.114C155.519 169.485 155.191 166.851 154.965 164.204C154.508 159.267 154.562 154.295 155.127 149.369C155.132 149.34 155.148 149.313 155.171 149.294C155.195 149.275 155.224 149.264 155.254 149.264C155.284 149.264 155.313 149.275 155.336 149.294C155.359 149.313 155.375 149.34 155.381 149.369C155.381 156.221 155.552 163.058 156.577 169.845C157.072 173.107 158.712 178.018 155.302 178.517C151.893 179.016 149.583 170.806 149.158 168.556C147.975 162.273 147.929 155.495 148.423 149.143Z" fill="#263238"/>
<path d="M155.298 178.068C155.649 178.916 155.945 179.785 156.185 180.67C156.438 181.352 156.562 182.076 156.55 182.804C156.55 182.943 156.351 182.956 156.277 182.864C155.866 182.222 155.555 181.521 155.353 180.785C155.053 179.981 154.734 179.182 154.457 178.369C154.449 178.267 154.474 178.166 154.529 178.08C154.584 177.995 154.666 177.93 154.762 177.896C154.858 177.861 154.963 177.86 155.059 177.891C155.156 177.922 155.24 177.985 155.298 178.068Z" fill="#263238"/>
<path d="M173.103 153.245C173.094 152.699 173.15 152.153 173.27 151.619C173.275 151.603 173.286 151.589 173.3 151.579C173.314 151.569 173.331 151.563 173.348 151.563C173.365 151.563 173.382 151.569 173.396 151.579C173.41 151.589 173.421 151.603 173.427 151.619C173.541 152.073 173.603 152.538 173.612 153.005C173.667 153.546 173.736 154.082 173.796 154.622C173.91 155.726 174.103 156.821 174.374 157.898C174.87 159.935 175.908 161.801 177.377 163.298C178.837 164.734 180.563 165.87 182.459 166.643C184.57 167.54 186.792 167.872 188.978 168.514C189.07 168.537 189.042 168.671 188.95 168.676C186.53 168.669 184.134 168.199 181.891 167.29C179.907 166.546 178.102 165.394 176.591 163.908C175.075 162.377 174.006 160.46 173.501 158.364C173.252 157.286 173.111 156.186 173.08 155.079C173.049 154.468 173.057 153.856 173.103 153.245Z" fill="#263238"/>
<path d="M138.241 163.774L201.04 159.681C201.04 159.681 189.92 105.493 160.874 85.0589C155.644 81.3629 146.511 86.1677 145.097 90.6029C138.481 111.425 138.051 163.585 138.241 163.774Z" fill="#FF5F0A"/>
<path d="M164.413 117.348C164.63 117.311 164.847 117.292 165.06 117.265C165.293 117.226 165.532 117.25 165.753 117.334C165.982 117.427 166.179 117.585 166.318 117.789C166.458 117.992 166.535 118.233 166.538 118.48C166.537 118.667 166.585 118.85 166.678 119.012C166.77 119.175 166.904 119.31 167.065 119.404C167.238 119.504 167.433 119.56 167.633 119.566C167.846 119.593 168.063 119.612 168.28 119.649C168.063 119.69 167.846 119.709 167.633 119.736C167.453 119.765 167.268 119.753 167.093 119.703C166.917 119.652 166.755 119.563 166.617 119.443C166.48 119.323 166.371 119.174 166.297 119.006C166.223 118.839 166.188 118.658 166.192 118.475C166.193 118.285 166.142 118.098 166.044 117.935C165.947 117.772 165.806 117.639 165.637 117.551C165.459 117.458 165.261 117.409 165.06 117.408C164.847 117.403 164.63 117.389 164.413 117.348ZM177.705 160.097C177.486 160.013 177.248 159.989 177.016 160.027C176.799 160.055 176.587 160.074 176.37 160.111C176.587 160.148 176.799 160.166 177.016 160.194C177.218 160.197 177.416 160.247 177.594 160.342C177.747 160.424 177.877 160.544 177.973 160.689C178.069 160.834 178.127 161 178.144 161.173L178.486 161.15C178.466 160.919 178.383 160.699 178.245 160.513C178.107 160.327 177.92 160.183 177.705 160.097ZM153.856 97.9947C154.056 97.9981 154.253 98.0487 154.429 98.1426C154.597 98.2314 154.738 98.3643 154.837 98.5271C154.935 98.6898 154.988 98.8763 154.988 99.0666C154.986 99.3131 155.055 99.5551 155.188 99.7627C155.321 99.9704 155.512 100.135 155.737 100.235C155.953 100.331 156.192 100.363 156.425 100.328C156.642 100.295 156.855 100.282 157.072 100.24C156.855 100.203 156.642 100.185 156.425 100.157C156.225 100.151 156.03 100.096 155.857 99.9952C155.697 99.9001 155.564 99.7648 155.473 99.6027C155.381 99.4406 155.334 99.2574 155.335 99.0712C155.329 98.8239 155.252 98.5836 155.111 98.38C154.971 98.1764 154.774 98.0183 154.545 97.9254C154.325 97.8418 154.088 97.8179 153.856 97.8561C153.639 97.8838 153.422 97.9023 153.205 97.9393C153.422 97.9439 153.639 97.967 153.856 97.9947ZM148.109 135.324C148.308 135.328 148.504 135.377 148.682 135.468C148.849 135.558 148.989 135.691 149.088 135.853C149.186 136.016 149.239 136.202 149.241 136.392C149.238 136.638 149.308 136.88 149.441 137.088C149.574 137.295 149.764 137.46 149.989 137.56C150.205 137.656 150.444 137.688 150.678 137.653C150.895 137.62 151.107 137.607 151.325 137.565C151.107 137.528 150.895 137.51 150.678 137.482C150.478 137.476 150.283 137.421 150.11 137.32C149.949 137.225 149.816 137.09 149.724 136.928C149.631 136.766 149.583 136.583 149.583 136.396C149.579 136.148 149.503 135.907 149.363 135.703C149.224 135.498 149.027 135.339 148.797 135.246C148.577 135.166 148.34 135.144 148.109 135.181C147.892 135.209 147.675 135.223 147.458 135.264C147.675 135.278 147.878 135.297 148.109 135.324ZM161.068 153.453C161.269 153.457 161.466 153.506 161.646 153.596C161.813 153.686 161.953 153.819 162.051 153.982C162.148 154.145 162.2 154.331 162.2 154.52C162.199 154.767 162.269 155.008 162.401 155.216C162.534 155.423 162.724 155.588 162.949 155.689C163.167 155.782 163.407 155.812 163.642 155.777C163.854 155.749 164.071 155.731 164.288 155.694C164.071 155.652 163.854 155.638 163.642 155.611C163.442 155.604 163.247 155.548 163.073 155.449C162.912 155.355 162.778 155.22 162.686 155.058C162.594 154.895 162.545 154.712 162.547 154.525C162.542 154.277 162.465 154.036 162.324 153.831C162.184 153.627 161.987 153.468 161.757 153.375C161.537 153.291 161.3 153.267 161.068 153.305C160.856 153.338 160.639 153.352 160.421 153.393C160.639 153.407 160.856 153.425 161.068 153.453ZM140.38 159.422C140.18 159.414 139.986 159.358 139.812 159.261C139.652 159.165 139.519 159.03 139.428 158.868C139.336 158.706 139.288 158.523 139.29 158.337C139.285 158.088 139.208 157.847 139.067 157.643C138.927 157.438 138.729 157.279 138.5 157.186C138.423 157.153 138.342 157.131 138.259 157.121V157.371L138.389 157.431C138.555 157.522 138.694 157.656 138.791 157.818C138.888 157.98 138.941 158.166 138.943 158.355C138.939 158.537 138.975 158.718 139.048 158.885C139.121 159.051 139.23 159.2 139.367 159.32C139.504 159.44 139.666 159.528 139.841 159.578C140.016 159.629 140.2 159.64 140.38 159.612C140.597 159.584 140.814 159.565 141.027 159.529C140.814 159.464 140.597 159.45 140.38 159.422ZM171.796 135.86C171.997 135.863 172.194 135.912 172.373 136.003C172.54 136.094 172.679 136.228 172.776 136.39C172.874 136.552 172.926 136.738 172.928 136.927C172.923 137.11 172.959 137.29 173.033 137.457C173.106 137.624 173.215 137.772 173.352 137.892C173.489 138.012 173.651 138.1 173.826 138.151C174.001 138.201 174.185 138.213 174.365 138.184C174.582 138.156 174.799 138.138 175.011 138.101C174.799 138.059 174.582 138.046 174.365 138.013C174.165 138.006 173.971 137.952 173.796 137.856C173.637 137.761 173.504 137.625 173.413 137.463C173.321 137.301 173.274 137.118 173.274 136.932C173.269 136.685 173.191 136.445 173.051 136.241C172.91 136.037 172.713 135.879 172.484 135.786C172.265 135.703 172.027 135.679 171.796 135.717C171.579 135.745 171.362 135.763 171.149 135.805C171.343 135.796 171.56 135.828 171.777 135.828L171.796 135.86ZM154.702 110.473C154.559 110.614 154.385 110.719 154.194 110.778C154.015 110.833 153.824 110.839 153.642 110.795C153.46 110.751 153.293 110.659 153.159 110.529C152.985 110.354 152.764 110.234 152.523 110.181C152.282 110.129 152.031 110.147 151.8 110.233C151.581 110.321 151.391 110.468 151.251 110.658C151.121 110.829 150.978 110.995 150.853 111.176C151.034 111.051 151.2 110.912 151.371 110.778C151.517 110.642 151.695 110.544 151.888 110.492C152.07 110.444 152.261 110.446 152.442 110.496C152.623 110.546 152.787 110.644 152.919 110.778C153.098 110.954 153.326 111.072 153.573 111.117C153.82 111.162 154.074 111.133 154.305 111.032C154.52 110.937 154.705 110.786 154.84 110.593C154.974 110.423 155.113 110.256 155.238 110.076C155.03 110.182 154.868 110.326 154.693 110.455L154.702 110.473ZM146.067 96.0312C145.921 96.1699 145.746 96.2741 145.554 96.3362C145.375 96.3902 145.185 96.3956 145.003 96.3518C144.821 96.3079 144.654 96.2164 144.519 96.0867C144.31 95.8753 144.034 95.7431 143.739 95.7124L143.669 96.022C143.903 96.054 144.118 96.1648 144.279 96.3362C144.459 96.5105 144.687 96.6277 144.934 96.6729C145.18 96.7182 145.435 96.6894 145.665 96.5903C145.877 96.4922 146.06 96.341 146.196 96.1513C146.33 95.9758 146.474 95.8141 146.598 95.6293C146.395 95.7402 146.229 95.8788 146.058 96.0128L146.067 96.0312ZM189.652 135.625C189.509 135.764 189.335 135.868 189.144 135.93C188.965 135.984 188.775 135.989 188.593 135.945C188.411 135.901 188.244 135.81 188.109 135.68C187.936 135.504 187.715 135.383 187.474 135.329C187.233 135.276 186.982 135.294 186.751 135.38C186.532 135.469 186.342 135.616 186.201 135.805C186.072 135.98 185.928 136.142 185.804 136.327C185.984 136.198 186.15 136.059 186.321 135.925C186.468 135.789 186.645 135.69 186.839 135.638C187.021 135.591 187.212 135.594 187.393 135.645C187.574 135.696 187.738 135.794 187.869 135.93C188.048 136.105 188.276 136.223 188.523 136.268C188.77 136.313 189.025 136.284 189.255 136.184C189.472 136.081 189.657 135.921 189.791 135.722C189.925 135.546 190.063 135.384 190.193 135.204C189.98 135.334 189.818 135.472 189.643 135.606L189.652 135.625ZM165.222 88.5006C165.124 88.511 165.029 88.5359 164.94 88.5745C164.721 88.6605 164.53 88.8061 164.39 88.995C164.261 89.1705 164.117 89.3368 163.993 89.517C164.173 89.3923 164.339 89.2491 164.51 89.1151C164.658 88.9807 164.835 88.8826 165.028 88.8286C165.221 88.7732 165.426 88.7732 165.619 88.8286C165.48 88.7039 165.346 88.5792 165.212 88.4683L165.222 88.5006ZM167.425 102.652C167.423 102.851 167.374 103.048 167.282 103.225C167.193 103.392 167.059 103.532 166.897 103.631C166.734 103.729 166.548 103.782 166.358 103.784C166.176 103.779 165.995 103.815 165.829 103.888C165.662 103.962 165.513 104.071 165.393 104.208C165.274 104.345 165.185 104.507 165.135 104.682C165.084 104.857 165.073 105.041 165.101 105.22C165.129 105.438 165.148 105.65 165.185 105.867C165.226 105.65 165.245 105.438 165.272 105.22C165.278 105.02 165.334 104.825 165.434 104.652C165.529 104.491 165.664 104.359 165.826 104.267C165.988 104.175 166.172 104.128 166.358 104.13C166.605 104.125 166.846 104.047 167.049 103.907C167.253 103.766 167.411 103.569 167.504 103.34C167.587 103.121 167.611 102.883 167.573 102.652C167.545 102.435 167.527 102.217 167.49 102.005C167.462 102.185 167.448 102.402 167.416 102.619L167.425 102.652ZM162.279 140.651C162.277 140.851 162.228 141.047 162.135 141.224C162.045 141.391 161.912 141.531 161.75 141.63C161.587 141.728 161.401 141.781 161.211 141.783C161.029 141.779 160.849 141.815 160.682 141.888C160.515 141.961 160.367 142.07 160.247 142.207C160.127 142.344 160.039 142.506 159.988 142.681C159.938 142.856 159.926 143.04 159.955 143.22C159.983 143.437 160.001 143.65 160.038 143.867C160.08 143.65 160.093 143.437 160.126 143.22C160.133 143.021 160.187 142.826 160.283 142.652C160.378 142.492 160.514 142.36 160.676 142.268C160.838 142.177 161.021 142.129 161.207 142.13C161.454 142.124 161.694 142.047 161.898 141.906C162.102 141.766 162.26 141.569 162.353 141.34C162.436 141.12 162.46 140.883 162.422 140.651C162.394 140.434 162.376 140.217 162.334 140.004C162.316 140.185 162.297 140.402 162.269 140.619L162.279 140.651ZM141.332 142.009C141.327 142.21 141.278 142.408 141.188 142.587C141.097 142.753 140.964 142.892 140.801 142.989C140.639 143.087 140.454 143.139 140.264 143.141C140.082 143.137 139.902 143.173 139.735 143.246C139.568 143.32 139.42 143.429 139.3 143.566C139.18 143.703 139.092 143.864 139.041 144.039C138.991 144.214 138.979 144.398 139.008 144.578C139.035 144.795 139.054 145.012 139.091 145.23C139.132 145.012 139.146 144.795 139.174 144.578C139.183 144.379 139.238 144.184 139.336 144.01C139.431 143.85 139.566 143.717 139.728 143.626C139.89 143.534 140.074 143.487 140.26 143.488C140.512 143.481 140.756 143.399 140.96 143.252C141.165 143.106 141.322 142.901 141.41 142.666C141.494 142.446 141.518 142.209 141.479 141.977C141.447 141.76 141.433 141.547 141.392 141.33C141.369 141.547 141.35 141.76 141.322 141.977L141.332 142.009ZM142.658 107.914C142.625 107.697 142.611 107.48 142.57 107.262C142.533 107.48 142.514 107.697 142.487 107.914C142.483 108.113 142.434 108.309 142.343 108.487C142.255 108.65 142.126 108.787 141.969 108.885C141.812 108.983 141.632 109.038 141.447 109.046C141.447 109.161 141.415 109.277 141.401 109.392H141.442C141.69 109.387 141.93 109.309 142.134 109.169C142.337 109.028 142.495 108.831 142.588 108.602C142.675 108.372 142.695 108.123 142.648 107.882L142.658 107.914ZM154.924 85.7379C154.922 85.939 154.873 86.1369 154.78 86.3154C154.691 86.4831 154.558 86.6233 154.395 86.721C154.233 86.8187 154.046 86.8701 153.856 86.8698C153.674 86.8655 153.494 86.9013 153.327 86.9746C153.16 87.0479 153.012 87.157 152.892 87.294C152.772 87.4311 152.684 87.5929 152.633 87.7678C152.583 87.9428 152.571 88.1267 152.6 88.3066C152.627 88.5237 152.646 88.7409 152.683 88.958C152.724 88.7409 152.743 88.5237 152.771 88.3066C152.777 88.1088 152.831 87.9155 152.928 87.7429C153.022 87.582 153.157 87.4487 153.319 87.3563C153.482 87.2639 153.665 87.2156 153.852 87.2163C154.099 87.2115 154.34 87.1341 154.543 86.9936C154.747 86.8531 154.905 86.6558 154.998 86.4263C155.082 86.2071 155.106 85.9694 155.067 85.7379C155.039 85.5207 155.021 85.3082 154.984 85.0911C154.961 85.2851 154.942 85.4976 154.914 85.7148L154.924 85.7379ZM151.574 119.981C151.571 120.183 151.521 120.381 151.426 120.559C151.338 120.727 151.205 120.868 151.042 120.966C150.879 121.064 150.692 121.115 150.502 121.113C150.32 121.109 150.138 121.145 149.971 121.218C149.804 121.292 149.655 121.401 149.534 121.539C149.414 121.676 149.325 121.839 149.275 122.014C149.224 122.19 149.213 122.374 149.241 122.555C149.269 122.767 149.287 122.984 149.329 123.201C149.366 122.984 149.384 122.767 149.412 122.555C149.418 122.355 149.473 122.159 149.574 121.986C149.668 121.825 149.803 121.692 149.965 121.599C150.127 121.507 150.311 121.459 150.498 121.46C150.745 121.456 150.985 121.379 151.189 121.24C151.393 121.1 151.551 120.903 151.643 120.674C151.727 120.453 151.751 120.214 151.713 119.981C151.685 119.769 151.667 119.552 151.63 119.335C151.62 119.552 151.606 119.769 151.574 119.981ZM181.553 124.601C181.551 124.801 181.502 124.997 181.41 125.174C181.321 125.342 181.188 125.482 181.025 125.58C180.862 125.677 180.676 125.729 180.486 125.729C180.304 125.725 180.123 125.761 179.956 125.835C179.79 125.909 179.641 126.019 179.521 126.156C179.402 126.293 179.313 126.455 179.263 126.631C179.212 126.806 179.201 126.99 179.229 127.17C179.257 127.383 179.276 127.6 179.313 127.817C179.354 127.6 179.373 127.383 179.4 127.17C179.406 126.97 179.462 126.775 179.562 126.602C179.656 126.441 179.791 126.307 179.953 126.215C180.116 126.122 180.299 126.074 180.486 126.075C180.733 126.071 180.974 125.995 181.177 125.855C181.381 125.715 181.539 125.519 181.632 125.29C181.715 125.07 181.739 124.833 181.701 124.601C181.673 124.384 181.655 124.167 181.618 123.95C181.604 124.158 181.604 124.375 181.558 124.592L181.553 124.601ZM153.93 162.43C153.907 162.541 153.893 162.652 153.879 162.763H153.977C153.967 162.624 153.953 162.532 153.935 162.421L153.93 162.43ZM191.597 146.454C191.592 146.655 191.543 146.852 191.454 147.031C191.363 147.197 191.229 147.336 191.067 147.434C190.905 147.531 190.719 147.584 190.53 147.586C190.284 147.584 190.042 147.653 189.834 147.786C189.627 147.919 189.462 148.11 189.361 148.334C189.266 148.55 189.233 148.789 189.269 149.023C189.301 149.24 189.315 149.457 189.356 149.669C189.393 149.457 189.412 149.24 189.44 149.023C189.446 148.823 189.502 148.628 189.601 148.454C189.696 148.294 189.832 148.162 189.994 148.07C190.156 147.979 190.339 147.931 190.525 147.932C190.773 147.928 191.013 147.85 191.217 147.71C191.421 147.569 191.579 147.372 191.671 147.142C191.765 146.926 191.798 146.688 191.768 146.454C191.74 146.237 191.722 146.02 191.685 145.807C191.643 146.038 191.625 146.255 191.597 146.454ZM176.638 111.291C176.782 111.151 176.958 111.046 177.15 110.986C177.329 110.932 177.52 110.926 177.702 110.97C177.884 111.014 178.051 111.105 178.185 111.236C178.357 111.412 178.577 111.533 178.818 111.586C179.058 111.639 179.309 111.62 179.539 111.531C179.759 111.445 179.95 111.298 180.089 111.106C180.223 110.935 180.361 110.769 180.486 110.589C180.306 110.714 180.144 110.857 179.969 110.986C179.823 111.123 179.648 111.223 179.456 111.277C179.274 111.323 179.083 111.321 178.902 111.27C178.721 111.218 178.557 111.121 178.426 110.986C178.245 110.812 178.018 110.695 177.771 110.649C177.524 110.604 177.27 110.633 177.04 110.732C176.827 110.831 176.642 110.982 176.504 111.171C176.374 111.342 176.231 111.508 176.106 111.688C176.3 111.582 176.467 111.439 176.638 111.31V111.291ZM159.544 128.491C159.686 128.35 159.86 128.246 160.052 128.186C160.231 128.131 160.421 128.125 160.603 128.169C160.786 128.213 160.952 128.305 161.087 128.436C161.261 128.61 161.482 128.731 161.722 128.783C161.963 128.836 162.214 128.818 162.445 128.732C162.665 128.645 162.856 128.498 162.995 128.307C163.124 128.136 163.267 127.969 163.392 127.789C163.212 127.914 163.046 128.052 162.875 128.186C162.728 128.323 162.55 128.421 162.357 128.473C162.175 128.52 161.984 128.519 161.803 128.469C161.622 128.418 161.458 128.321 161.327 128.186C161.147 128.011 160.92 127.893 160.673 127.848C160.426 127.803 160.171 127.832 159.941 127.932C159.726 128.027 159.541 128.179 159.405 128.371C159.271 128.542 159.132 128.708 159.008 128.889C159.197 128.782 159.359 128.639 159.534 128.51L159.544 128.491ZM147.693 151.827C147.837 151.688 148.011 151.583 148.202 151.522C148.381 151.468 148.571 151.463 148.753 151.506C148.935 151.55 149.102 151.642 149.236 151.772C149.362 151.904 149.515 152.007 149.685 152.074C149.855 152.141 150.038 152.169 150.22 152.157C150.402 152.145 150.579 152.093 150.739 152.005C150.899 151.917 151.037 151.795 151.144 151.647C151.278 151.471 151.417 151.31 151.542 151.129C151.362 151.254 151.2 151.393 151.024 151.527C150.88 151.664 150.704 151.762 150.512 151.813C150.329 151.86 150.137 151.858 149.955 151.807C149.773 151.756 149.608 151.657 149.477 151.522C149.297 151.346 149.069 151.228 148.822 151.184C148.575 151.139 148.32 151.17 148.091 151.273C147.877 151.367 147.692 151.517 147.555 151.707C147.425 151.882 147.282 152.049 147.157 152.229C147.347 152.118 147.513 151.998 147.684 151.845L147.693 151.827ZM175.746 149.429C175.89 149.29 176.064 149.185 176.254 149.124C176.433 149.069 176.624 149.063 176.806 149.107C176.988 149.151 177.155 149.243 177.289 149.374C177.461 149.55 177.681 149.672 177.922 149.724C178.162 149.777 178.413 149.758 178.643 149.669C178.863 149.582 179.055 149.435 179.197 149.244C179.326 149.073 179.47 148.907 179.594 148.727C179.414 148.852 179.248 148.995 179.077 149.124C178.931 149.262 178.753 149.362 178.56 149.415C178.377 149.462 178.186 149.46 178.005 149.409C177.824 149.358 177.66 149.26 177.529 149.124C177.35 148.949 177.122 148.831 176.875 148.786C176.628 148.74 176.373 148.77 176.143 148.87C175.925 148.972 175.74 149.132 175.607 149.332C175.473 149.508 175.33 149.669 175.205 149.85C175.395 149.72 175.561 149.582 175.737 149.448L175.746 149.429ZM191.523 159.09C191.668 158.949 191.844 158.845 192.036 158.785C192.215 158.73 192.406 158.724 192.588 158.768C192.77 158.812 192.937 158.904 193.071 159.034C193.198 159.165 193.351 159.267 193.521 159.332C193.691 159.397 193.873 159.425 194.055 159.412C194.237 159.4 194.413 159.348 194.573 159.261C194.733 159.173 194.871 159.051 194.979 158.905C195.108 158.734 195.252 158.568 195.376 158.387C195.196 158.512 195.03 158.651 194.859 158.785C194.712 158.921 194.535 159.019 194.341 159.071C194.16 159.119 193.969 159.117 193.788 159.067C193.607 159.017 193.442 158.919 193.311 158.785C193.131 158.61 192.903 158.493 192.657 158.448C192.41 158.403 192.156 158.431 191.925 158.531C191.712 158.627 191.529 158.779 191.394 158.969C191.26 159.14 191.117 159.307 190.992 159.487C191.177 159.39 191.343 159.237 191.514 159.108L191.523 159.09ZM141.918 128.755C141.772 128.891 141.594 128.989 141.401 129.041C141.219 129.089 141.028 129.087 140.847 129.037C140.666 128.987 140.502 128.889 140.371 128.755C140.145 128.538 139.847 128.411 139.534 128.399C139.534 128.505 139.534 128.607 139.511 128.713C139.744 128.738 139.962 128.841 140.13 129.004C140.305 129.179 140.525 129.299 140.766 129.352C141.007 129.404 141.258 129.386 141.489 129.3C141.707 129.211 141.897 129.064 142.038 128.875C142.168 128.704 142.311 128.538 142.436 128.357C142.256 128.482 142.089 128.621 141.918 128.755Z" fill="white"/>
<path d="M137.784 70.2239C137.964 73.8368 135.543 76.8952 132.369 77.0569C129.195 77.2186 126.483 74.4096 126.303 70.7968C126.123 67.184 128.548 64.1255 131.718 63.9684C134.887 63.8114 137.603 66.6203 137.784 70.2239Z" fill="#455A64"/>
<path d="M139.654 70.3718C139.858 74.3912 137.16 77.7915 133.648 77.967C130.137 78.1426 127.088 75.0287 126.885 71.0047C126.682 66.9807 129.38 63.585 132.891 63.4094C136.402 63.2339 139.456 66.3477 139.654 70.3718Z" fill="#C7C7C7"/>
<path d="M150.188 99.4224C153.884 99.1221 158.042 91.9934 158.966 87.0084C159.026 86.6666 157.58 83.7513 156.009 80.1246C155.057 77.9209 154.055 75.4446 153.297 73.1207C153.145 72.6587 139.862 81.3951 139.862 81.3951C139.862 81.3951 142.879 85.8072 144.168 89.8682C144.268 90.1906 144.338 90.5216 144.376 90.8569C144.376 90.9031 144.376 90.9585 144.408 91.0232C144.713 92.9313 146.621 99.7134 150.188 99.4224Z" fill="#D3766A"/>
<path d="M145.947 90.6121C145.452 90.7912 144.941 90.9272 144.423 91.0187C144.423 90.9586 144.423 90.9032 144.39 90.8524C144.354 90.5182 144.285 90.1885 144.182 89.8683C142.889 85.8073 139.876 81.3952 139.876 81.3952C139.876 81.3952 150.65 74.2897 152.909 73.2317C153.33 76.0637 154.485 87.6322 145.947 90.6121Z" fill="#263238"/>
<path d="M151.311 56.4055C154.198 61.3027 155.09 77.2509 152.147 81.5614C147.887 87.8076 139.077 90.4318 133.307 84.8924C127.707 79.5194 126.917 58.7201 130.373 54.6129C135.459 48.5654 147.046 49.1752 151.311 56.4055Z" fill="#D3766A"/>
<path d="M132.604 69.822C132.604 69.785 132.526 69.882 132.535 69.9236C132.674 70.9908 132.655 72.2336 131.722 72.6956C131.694 72.6956 131.722 72.7603 131.722 72.7557C132.905 72.4646 132.909 70.8106 132.604 69.822Z" fill="#263238"/>
<path d="M131.537 68.8011C129.805 68.8427 130.013 72.3077 131.62 72.2707C133.228 72.2337 132.992 68.7641 131.537 68.8011Z" fill="#263238"/>
<path d="M141.281 66.4171C140.819 66.3432 140.357 66.2 139.895 66.0798C139.392 66.0278 138.919 65.8119 138.55 65.4654C138.455 65.3342 138.405 65.1748 138.411 65.0125C138.416 64.8501 138.475 64.6941 138.578 64.5691C139.04 64.0563 139.742 64.0609 140.385 64.1995C141.039 64.3156 141.627 64.6713 142.034 65.1974C142.119 65.3228 142.166 65.4701 142.169 65.6215C142.173 65.773 142.132 65.9222 142.052 66.0511C141.973 66.18 141.858 66.2832 141.721 66.3481C141.584 66.4131 141.431 66.437 141.281 66.4171Z" fill="#263238"/>
<path d="M130.026 67.1933C130.481 67.0535 130.928 66.89 131.366 66.7036C131.861 66.5937 132.306 66.3242 132.632 65.9366C132.712 65.7955 132.743 65.6316 132.72 65.4709C132.696 65.3103 132.62 65.162 132.503 65.0496C131.976 64.5876 131.292 64.68 130.655 64.8925C130.017 65.0814 129.474 65.5016 129.13 66.0706C129.057 66.2054 129.026 66.3585 129.04 66.511C129.053 66.6634 129.112 66.8085 129.207 66.9281C129.303 67.0477 129.431 67.1366 129.577 67.1838C129.723 67.2309 129.879 67.2342 130.026 67.1933Z" fill="#263238"/>
<path d="M141.05 78.8032C140.819 79.0804 140.588 79.45 140.214 79.5193C139.815 79.5518 139.413 79.4998 139.036 79.3669C139.028 79.363 139.019 79.3621 139.01 79.3644C139.001 79.3666 138.994 79.3718 138.989 79.3791C138.984 79.3863 138.982 79.3951 138.983 79.4039C138.984 79.4127 138.988 79.4208 138.994 79.4269C139.166 79.6255 139.389 79.7735 139.639 79.8549C139.889 79.9363 140.156 79.9481 140.412 79.8889C140.625 79.811 140.81 79.6714 140.944 79.4879C141.077 79.3044 141.152 79.0853 141.161 78.8587C141.17 78.7755 141.087 78.7616 141.05 78.8032Z" fill="#263238"/>
<path d="M139.608 75.7125C139.377 76.1605 139.056 76.5559 138.665 76.8739C138.274 77.1919 137.821 77.4256 137.335 77.5605C136.913 77.6879 136.474 77.7532 136.033 77.7545C135.948 77.7615 135.863 77.7615 135.778 77.7545H135.538C135.481 77.7493 135.426 77.7252 135.384 77.6859C135.341 77.6466 135.313 77.5944 135.303 77.5374C135.298 77.5005 135.298 77.4633 135.303 77.4265V77.3295C135.196 76.5071 135.15 75.2458 135.15 75.2458C134.864 75.4306 133.399 76.2715 133.381 75.8372C133.237 72.2521 133.076 68.265 133.69 64.6707C133.695 64.648 133.708 64.6277 133.726 64.6131C133.744 64.5985 133.766 64.5906 133.79 64.5906C133.813 64.5906 133.835 64.5985 133.853 64.6131C133.871 64.6277 133.884 64.648 133.889 64.6707C134.166 68.1126 133.833 71.6007 134.051 75.0379C134.571 74.7286 135.132 74.4953 135.718 74.3449C135.839 74.368 135.765 76.7843 135.839 77.1493V77.1863C137.225 77.2232 138.241 76.7242 139.493 75.6385C139.562 75.5554 139.664 75.6201 139.608 75.7125Z" fill="#263238"/>
<path d="M141.724 69.1014C141.42 69.0408 141.109 69.0206 140.8 69.0413C140.484 69.0707 140.173 69.1422 139.876 69.2538C139.56 69.3815 139.27 69.5663 139.021 69.799C138.772 70.0471 138.582 70.3489 138.467 70.6814L138.254 71.282L138.878 71.1157C139.317 70.9989 139.765 70.9246 140.218 70.8939C140.693 70.8568 141.169 70.9394 141.604 71.1342C141.27 70.724 140.789 70.4604 140.264 70.3996C139.742 70.3179 139.21 70.3431 138.698 70.4735L139.109 70.9032C139.311 70.4195 139.671 70.0187 140.13 69.7666C140.633 69.4829 141.168 69.2596 141.724 69.1014Z" fill="#263238"/>
<path d="M140.334 71.901C139.84 71.867 139.352 71.7692 138.883 71.6099C138.777 71.5637 138.347 71.3466 138.356 71.2634C138.367 71.0185 138.411 70.7762 138.486 70.5427C138.344 70.7626 138.25 71.0097 138.208 71.2681C138.262 71.3973 138.343 71.5133 138.446 71.6082C138.549 71.7031 138.671 71.7746 138.804 71.8178C139.298 71.9794 139.826 72.0081 140.334 71.901Z" fill="#263238"/>
<path d="M148.239 66.8421C146.853 63.8484 148.086 58.4614 146.391 57.2325C142.695 54.5668 136.453 61.0764 131.741 61.603C127.171 62.1159 125.333 59.3346 125.767 55.537C126.201 51.7393 129.089 48.9165 134.138 47.6091C139.364 46.2554 144.427 47.8863 147.236 49.2954C147.236 49.2954 145.887 47.5629 146.257 46.9438C146.626 46.3247 149.056 47.8678 149.823 48.5515C150.396 49.1602 150.853 49.8678 151.172 50.6398C151.835 50.3878 152.531 50.2323 153.237 50.1778C154.402 50.0854 155.963 50.8431 156.074 51.1018C156.185 51.3605 154.545 51.7532 153.385 51.938C153.385 51.938 155.866 54.5945 156.079 57.0708C156.291 59.5471 153.686 71.6977 152.775 71.9195C151.602 72.2383 148.802 68.0572 148.239 66.8421Z" fill="#263238"/>
<path d="M152.9 51.7117C152.858 51.7117 152.808 51.7532 152.854 51.7856C154.083 52.579 155.066 53.6988 155.695 55.0196C156.337 56.6319 156.539 58.3855 156.282 60.1016C155.898 63.4234 154.623 66.5373 153.561 69.6789C153.528 69.7713 153.685 69.8267 153.722 69.7343C155.062 66.4772 156.402 62.9567 156.661 59.4178C156.882 56.4102 155.838 53.0746 152.9 51.7117Z" fill="#263238"/>
<path d="M146.446 56.013C145.04 55.9902 143.642 56.2299 142.325 56.7198C141.068 57.1818 140.047 58.1058 138.957 58.8543C136.508 60.5406 133.773 61.9358 130.752 62.0883C130.715 62.0883 130.719 62.1437 130.752 62.1483C133.524 62.1991 136.129 61.1042 138.435 59.6304C139.599 58.8912 140.666 57.8933 141.914 57.3204C143.332 56.6413 144.917 56.4934 146.455 56.304C146.494 56.3028 146.53 56.2863 146.557 56.2581C146.583 56.23 146.597 56.1925 146.596 56.1539C146.595 56.1153 146.578 56.0787 146.55 56.0523C146.522 56.0259 146.484 56.0117 146.446 56.013Z" fill="#263238"/>
<path d="M150.026 70.224C150.026 70.224 152.401 64.4999 154.924 65.2437C157.446 65.9875 156.42 73.7491 154 75.3153C153.701 75.5345 153.362 75.6918 153.002 75.7778C152.642 75.8638 152.268 75.8769 151.903 75.8161C151.538 75.7554 151.189 75.6222 150.876 75.4243C150.563 75.2264 150.293 74.9678 150.082 74.6639L150.026 70.224Z" fill="#D3766A"/>
<path d="M154.577 67.4797C154.619 67.4797 154.637 67.5259 154.605 67.549C152.919 68.7087 152.318 70.6398 152.027 72.571C152.429 71.7625 153.094 71.2219 154.161 71.6793C154.217 71.6793 154.161 71.7856 154.129 71.7856C153.78 71.7538 153.431 71.8309 153.128 72.0063C152.825 72.1817 152.584 72.4468 152.438 72.765C152.196 73.2984 152.012 73.8559 151.888 74.4282C151.842 74.613 151.523 74.5899 151.542 74.3866C151.542 74.3866 151.542 74.3543 151.542 74.3404C150.983 71.9842 152.092 68.2744 154.577 67.4797Z" fill="#263238"/>
<path d="M153.311 65.6964C153.311 65.6964 153.917 57.3804 151.583 53.0515C148.987 48.2143 144.131 46.6297 138.647 47.1101C138.647 47.1101 143.683 47.2626 147.795 52.7373C150.003 55.671 150.678 65.9182 150.678 65.9182L153.311 65.6964Z" fill="#C7C7C7"/>
<path d="M145.933 69.7249C145.91 73.7489 148.756 77.0291 152.286 77.0476C155.815 77.0661 158.698 73.8136 158.721 69.7942C158.745 65.7748 155.899 62.49 152.364 62.4715C148.83 62.453 145.956 65.7009 145.933 69.7249Z" fill="#C7C7C7"/>
<path d="M147.795 69.5033C147.795 73.1254 150.336 76.0683 153.51 76.0868C156.684 76.1053 159.271 73.1854 159.294 69.568C159.317 65.9505 156.753 63.0029 153.579 62.9845C150.405 62.966 147.818 65.8858 147.795 69.5033Z" fill="#455A64"/>
<path d="M150.927 69.5864C150.927 71.8132 152.484 73.6243 154.434 73.6335C156.383 73.6427 157.977 71.8502 157.991 69.6233C158.005 67.3965 156.43 65.5901 154.48 65.5808C152.53 65.5716 150.936 67.3642 150.927 69.5864Z" fill="#37474F"/>
<path d="M93.5746 75.4675C91.5233 71.6976 91.9391 65.0356 88.8114 65.6685C86.0394 66.2322 86.178 70.8753 86.178 70.8753C86.178 70.8753 84.33 65.7009 81.484 67.1793C78.6381 68.6577 79.8717 73.6888 79.8717 73.6888C79.8717 73.6888 77.8989 69.0226 75.1824 70.6812C72.4658 72.3398 73.3344 77.1123 73.3344 77.1123C73.3344 77.1123 72.087 76.1282 70.6917 78.161C68.7005 81.0716 71.2092 88.2187 73.0849 91.8547C77.5524 100.503 85.448 106.68 87.0558 108.385L109.694 95.1256C109.694 95.1256 108.848 87.1608 107.929 83.1737C107.01 79.1866 100.324 66.8928 97.1643 68.3435C94.0042 69.7942 98.8691 78.3966 99.5991 80.7621C100.329 83.1275 99.904 83.7004 98.749 82.8919C97.9821 82.3467 94.4801 77.1538 93.5746 75.4675Z" fill="#D3766A"/>
<path d="M86.2983 71.088C86.9774 77.556 88.3912 80.2448 92.3459 85.2622C92.4244 85.3592 92.2951 85.4978 92.2027 85.4008C87.883 80.8454 85.6238 77.7038 85.9841 71.1065C86.0026 70.7831 86.266 70.7831 86.2983 71.088Z" fill="#263238"/>
<path d="M79.9085 73.3932C81.1974 80.0368 82.7036 82.9843 86.4596 88.5376C86.5151 88.6207 86.3857 88.7178 86.3256 88.6392C82.1676 83.4972 80.0009 80.3232 79.5804 73.5133C79.562 73.2038 79.8484 73.0929 79.9085 73.3932Z" fill="#263238"/>
<path d="M73.3901 77.154C75.1041 83.4926 76.624 86.7959 80.9576 91.7254C80.9754 91.7488 80.984 91.7778 80.9819 91.8071C80.9797 91.8364 80.9669 91.8639 80.9458 91.8844C80.9248 91.9048 80.897 91.9169 80.8677 91.9183C80.8383 91.9196 80.8095 91.9102 80.7867 91.8918C75.871 87.318 73.9583 83.1969 73.2052 77.2325C73.1544 76.8259 73.2838 76.7613 73.3901 77.154Z" fill="#263238"/>
<path d="M87.0465 108.371C90.2343 111.762 117.474 138.577 128.548 138.637C139.622 138.697 161.562 105.184 164.51 98.3598C167.458 91.5361 163.586 86.9299 156.453 91.9796C149.319 97.0293 129.865 113.051 128.631 113.088C127.398 113.125 113.491 97.4127 109.689 95.112C105.887 92.8112 85.4664 106.694 87.0465 108.371Z" fill="#D3766A"/>
<path d="M122.233 106.112L109.532 132.271C109.532 132.271 121.955 138.812 128.474 139.561C134.993 140.309 151.814 122.411 162.075 104.588C172.337 86.7636 163.803 85.1281 152.646 93.9615C143.84 100.924 129.426 111.319 128.899 111.601C128.373 111.883 122.233 106.112 122.233 106.112Z" fill="#FF5F0A"/>
<path d="M153.205 97.9117C153.422 97.8747 153.639 97.8562 153.856 97.8285C154.088 97.7903 154.325 97.8142 154.545 97.8978C154.774 97.9907 154.971 98.1488 155.111 98.3524C155.252 98.556 155.329 98.7963 155.335 99.0436C155.333 99.2297 155.381 99.413 155.473 99.5751C155.564 99.7372 155.697 99.8725 155.857 99.9676C156.03 100.068 156.225 100.124 156.425 100.129C156.642 100.157 156.855 100.175 157.072 100.212C156.855 100.254 156.642 100.268 156.425 100.3C156.191 100.335 155.953 100.303 155.737 100.208C155.512 100.107 155.321 99.9427 155.188 99.7351C155.055 99.5275 154.985 99.2855 154.988 99.0389C154.987 98.8487 154.935 98.6622 154.837 98.4995C154.738 98.3367 154.597 98.2038 154.429 98.1149C154.252 98.0211 154.056 97.9704 153.856 97.9671C153.639 97.9671 153.422 97.944 153.205 97.9117ZM121.327 124.805C121.528 124.808 121.725 124.857 121.904 124.948C122.072 125.037 122.212 125.171 122.309 125.333C122.407 125.496 122.459 125.682 122.459 125.872C122.457 126.118 122.527 126.36 122.66 126.567C122.793 126.775 122.983 126.939 123.207 127.041C123.425 127.135 123.665 127.166 123.9 127.129C124.113 127.101 124.33 127.087 124.547 127.045C124.33 127.004 124.113 126.99 123.9 126.962C123.7 126.957 123.505 126.901 123.332 126.801C123.171 126.706 123.037 126.571 122.945 126.409C122.852 126.247 122.804 126.063 122.805 125.877C122.801 125.628 122.724 125.387 122.584 125.182C122.443 124.977 122.245 124.819 122.015 124.726C121.796 124.644 121.558 124.621 121.327 124.661C121.114 124.689 120.897 124.703 120.68 124.745C120.906 124.74 121.123 124.777 121.336 124.805H121.327ZM154.683 110.455C154.541 110.596 154.366 110.701 154.175 110.76C153.996 110.815 153.805 110.821 153.623 110.777C153.441 110.733 153.274 110.641 153.14 110.51C152.966 110.336 152.745 110.215 152.504 110.163C152.264 110.11 152.013 110.128 151.782 110.215C151.562 110.302 151.372 110.45 151.232 110.64C151.103 110.811 150.959 110.977 150.835 111.157C151.015 111.032 151.181 110.894 151.352 110.76C151.499 110.624 151.676 110.525 151.87 110.473C152.051 110.426 152.242 110.427 152.423 110.478C152.604 110.528 152.769 110.625 152.9 110.76C153.079 110.935 153.307 111.053 153.554 111.099C153.801 111.144 154.056 111.114 154.286 111.014C154.501 110.919 154.686 110.767 154.822 110.575C154.956 110.404 155.094 110.238 155.219 110.058C155.03 110.182 154.868 110.326 154.692 110.455H154.683ZM134.817 119.057C134.674 119.197 134.5 119.301 134.309 119.362C134.13 119.416 133.94 119.422 133.758 119.378C133.576 119.334 133.409 119.243 133.274 119.113C133.101 118.937 132.88 118.815 132.639 118.763C132.398 118.71 132.146 118.729 131.916 118.817C131.696 118.902 131.505 119.048 131.366 119.238C131.232 119.413 131.093 119.579 130.969 119.76C131.149 119.635 131.315 119.492 131.486 119.358C131.632 119.222 131.808 119.124 131.999 119.071C132.182 119.024 132.374 119.027 132.556 119.078C132.737 119.129 132.902 119.227 133.034 119.362C133.213 119.538 133.441 119.656 133.688 119.701C133.935 119.746 134.19 119.717 134.42 119.616C134.635 119.511 134.82 119.352 134.956 119.154C135.09 118.979 135.228 118.817 135.353 118.637C135.145 118.785 134.983 118.923 134.808 119.057H134.817ZM114.027 130.829C113.885 130.97 113.71 131.075 113.519 131.134C113.34 131.189 113.149 131.195 112.967 131.151C112.785 131.107 112.618 131.015 112.484 130.885C112.311 130.709 112.09 130.587 111.849 130.535C111.608 130.482 111.356 130.501 111.126 130.589C110.906 130.675 110.715 130.823 110.576 131.014C110.442 131.185 110.303 131.351 110.179 131.531C110.359 131.407 110.521 131.263 110.696 131.134C110.841 130.997 111.017 130.898 111.209 130.843C111.392 130.798 111.584 130.8 111.765 130.851C111.946 130.903 112.111 131 112.244 131.134C112.423 131.31 112.651 131.427 112.898 131.473C113.145 131.518 113.4 131.489 113.63 131.388C113.844 131.292 114.029 131.14 114.166 130.949C114.295 130.778 114.438 130.612 114.563 130.432C114.36 130.557 114.193 130.7 114.023 130.829H114.027ZM164.473 88.8611C164.441 88.8928 164.412 88.9268 164.385 88.9627C164.256 89.1383 164.113 89.3046 163.988 89.4848C164.168 89.36 164.334 89.2168 164.505 89.0828C164.57 89.0261 164.64 88.9751 164.713 88.9304C164.633 88.9022 164.551 88.8791 164.468 88.8611H164.473ZM142.482 107.882C142.478 108.081 142.429 108.277 142.339 108.455C142.249 108.622 142.115 108.762 141.953 108.86C141.79 108.958 141.604 109.011 141.415 109.014C141.232 109.009 141.052 109.045 140.885 109.118C140.718 109.192 140.57 109.301 140.45 109.438C140.33 109.575 140.242 109.737 140.191 109.912C140.141 110.087 140.129 110.27 140.158 110.45C140.186 110.667 140.204 110.88 140.241 111.097C140.283 110.88 140.296 110.667 140.329 110.45C140.335 110.251 140.389 110.056 140.486 109.882C140.581 109.722 140.717 109.59 140.879 109.499C141.041 109.407 141.224 109.359 141.41 109.36C141.657 109.355 141.897 109.277 142.101 109.137C142.305 108.996 142.463 108.799 142.556 108.57C142.639 108.351 142.663 108.113 142.625 107.882C142.593 107.664 142.579 107.447 142.537 107.23C142.523 107.447 142.505 107.646 142.477 107.882H142.482ZM150.53 121.113C150.347 121.109 150.166 121.145 149.999 121.219C149.831 121.292 149.682 121.401 149.562 121.539C149.442 121.676 149.353 121.839 149.302 122.014C149.252 122.19 149.24 122.374 149.269 122.555C149.269 122.675 149.296 122.8 149.315 122.924L149.412 122.804L149.439 122.555C149.445 122.355 149.501 122.159 149.601 121.986C149.695 121.825 149.83 121.692 149.993 121.599C150.155 121.507 150.338 121.459 150.525 121.46C150.631 121.33 150.738 121.201 150.839 121.067C150.738 121.101 150.632 121.116 150.525 121.113H150.53ZM151.666 119.335C151.625 119.552 151.611 119.769 151.583 119.981V120.125L151.754 119.907C151.713 119.718 151.694 119.529 151.662 119.335H151.666ZM122.223 111.254C122.22 111.455 122.171 111.653 122.08 111.832C121.99 111.999 121.857 112.139 121.694 112.237C121.532 112.334 121.346 112.386 121.156 112.386C120.91 112.385 120.668 112.455 120.461 112.587C120.253 112.72 120.089 112.91 119.987 113.135C119.892 113.352 119.862 113.593 119.899 113.828C119.927 114.04 119.941 114.257 119.982 114.474C120.019 114.257 120.038 114.04 120.066 113.828C120.071 113.628 120.126 113.432 120.227 113.259C120.321 113.098 120.456 112.965 120.619 112.872C120.781 112.78 120.965 112.731 121.151 112.733C121.399 112.729 121.641 112.652 121.846 112.511C122.05 112.371 122.209 112.173 122.302 111.943C122.381 111.722 122.403 111.485 122.366 111.254C122.339 111.042 122.325 110.825 122.283 110.607C122.265 110.825 122.246 111.042 122.218 111.254H122.223ZM129.86 133.019C129.856 133.218 129.807 133.414 129.717 133.592C129.627 133.759 129.494 133.899 129.331 133.998C129.168 134.096 128.983 134.149 128.793 134.151C128.546 134.148 128.304 134.218 128.097 134.351C127.889 134.484 127.725 134.674 127.624 134.899C127.528 135.115 127.496 135.354 127.531 135.588C127.564 135.805 127.578 136.017 127.619 136.235C127.656 136.017 127.675 135.805 127.702 135.588C127.708 135.388 127.764 135.193 127.864 135.02C127.959 134.859 128.094 134.727 128.257 134.635C128.419 134.544 128.602 134.496 128.788 134.497C129.036 134.492 129.277 134.414 129.481 134.274C129.685 134.133 129.844 133.937 129.938 133.707C130.018 133.487 130.04 133.25 130.003 133.019C129.975 132.802 129.962 132.585 129.92 132.368C129.892 132.594 129.86 132.802 129.86 133.019ZM138.601 129.06C138.743 128.919 138.918 128.814 139.109 128.755C139.288 128.7 139.479 128.694 139.661 128.738C139.843 128.782 140.01 128.874 140.144 129.004C140.318 129.179 140.539 129.299 140.78 129.352C141.021 129.404 141.271 129.386 141.502 129.3C141.721 129.211 141.911 129.064 142.052 128.875C142.181 128.704 142.325 128.538 142.449 128.357C142.269 128.482 142.103 128.621 141.932 128.755C141.785 128.891 141.608 128.989 141.415 129.041C141.233 129.089 141.042 129.087 140.861 129.037C140.68 128.987 140.515 128.889 140.384 128.755C140.205 128.579 139.977 128.46 139.73 128.415C139.483 128.37 139.228 128.4 138.998 128.501C138.783 128.596 138.598 128.747 138.462 128.94C138.328 129.111 138.19 129.277 138.065 129.457C138.25 129.332 138.412 129.189 138.587 129.06H138.601Z" fill="white"/>
<path d="M162.56 106.357C162.625 106.255 162.477 106.172 162.408 106.26C159.414 110.007 156.49 113.818 153.408 117.491C150.327 121.164 147.264 124.717 144.131 128.274C143.272 129.251 142.413 130.221 141.553 131.185C140.629 132.215 139.816 133.338 138.86 134.322C138.791 134.396 138.897 134.511 138.971 134.437C139.816 133.569 140.773 132.811 141.641 131.961C142.51 131.111 143.29 130.293 144.108 129.448C145.758 127.724 147.393 125.973 148.955 124.172C151.569 121.15 154.064 118.018 156.499 114.848C156.735 114.654 156.961 114.47 157.201 114.266C157.663 113.846 158.125 113.425 158.587 112.996C159.522 112.146 160.405 111.242 161.235 110.289C161.247 110.272 161.253 110.251 161.252 110.231C161.25 110.21 161.242 110.19 161.227 110.175C161.213 110.16 161.194 110.151 161.173 110.149C161.152 110.147 161.132 110.152 161.114 110.164C160.158 110.977 159.234 111.85 158.342 112.723C158.084 112.977 157.82 113.227 157.557 113.476C157.654 113.347 157.76 113.222 157.857 113.093C159.521 110.903 161.088 108.658 162.56 106.357Z" fill="#263238"/>
<path d="M119.211 102.402L124.64 107.272L112.383 134.77L105.822 131.453L119.211 102.402Z" fill="#FF5F0A"/>
<path opacity="0.1" d="M119.211 102.402L124.64 107.272L112.383 134.77L105.822 131.453L119.211 102.402Z" fill="black"/>
<path d="M142.662 101.594C144.142 100.094 145.834 98.819 147.684 97.8101C146.202 99.3073 144.51 100.582 142.662 101.594Z" fill="#263238"/>
</svg>
